<?xml version="1.0" standalone="no"?>
<!DOCTYPE svg PUBLIC "-//W3C//DTD SVG 20010904//EN"
 "http://www.w3.org/TR/2001/REC-SVG-20010904/DTD/svg10.dtd">
<svg version="1.0" xmlns="http://www.w3.org/2000/svg"
 width="343.000000pt" height="343.000000pt" viewBox="0 0 343.000000 343.000000"
 preserveAspectRatio="xMidYMid meet">
<metadata>
Created by potrace 1.11, written by Peter Selinger 2001-2013
</metadata>
<g transform="translate(0.000000,343.000000) scale(0.100000,-0.100000)"
fill="#000000" stroke="none">
<path d="M658 3423 c6 -2 18 -2 25 0 6 3 1 5 -13 5 -14 0 -19 -2 -12 -5z"/>
<path d="M710 3420 c-13 -8 -12 -10 3 -10 9 0 17 5 17 10 0 12 -1 12 -20 0z"/>
<path d="M848 3423 c7 -3 16 -2 19 1 4 3 -2 6 -13 5 -11 0 -14 -3 -6 -6z"/>
<path d="M1055 3420 c-3 -5 3 -11 12 -13 10 -2 6 -4 -9 -2 -27 1 -38 -11 -38
-41 0 -8 10 -14 23 -14 18 0 19 2 7 10 -19 12 -8 13 24 0 14 -5 41 -10 61 -12
19 -1 35 -5 35 -8 0 -3 18 -6 41 -7 54 -3 47 16 -17 39 l-49 19 43 -4 c29 -2
42 1 42 10 0 9 -17 13 -53 13 -28 0 -67 4 -84 9 -18 5 -35 6 -38 1z m82 -56
c-3 -3 -12 -4 -19 -1 -8 3 -5 6 6 6 11 1 17 -2 13 -5z"/>
<path d="M1251 3426 c10 -8 89 -13 89 -5 0 5 -21 9 -47 9 -25 0 -44 -2 -42 -4z"/>
<path d="M1360 3420 c20 -13 40 -13 40 0 0 6 -12 10 -27 10 -22 0 -25 -2 -13
-10z"/>
<path d="M940 3409 c0 -4 -12 -10 -27 -12 -16 -2 -4 -4 25 -4 54 0 70 11 27
19 -14 3 -25 2 -25 -3z"/>
<path d="M642 3398 c5 -16 43 -22 66 -12 14 6 13 8 -8 14 -39 12 -62 11 -58
-2z"/>
<path d="M1293 3393 c-7 -3 -13 -18 -13 -34 0 -26 3 -28 35 -27 19 1 32 5 28
10 -3 6 -13 8 -23 5 -13 -3 -17 0 -13 10 4 11 17 13 57 8 48 -6 50 -5 29 9
-12 9 -28 13 -36 10 -9 -3 -24 -1 -34 4 -10 5 -24 7 -30 5z"/>
<path d="M850 3365 c30 -8 63 -12 73 -9 29 9 16 13 -59 18 l-69 5 55 -14z"/>
<path d="M950 3360 c0 -13 11 -13 30 0 12 8 11 10 -7 10 -13 0 -23 -4 -23 -10z"/>
<path d="M526 3343 c-9 -9 -7 -33 3 -33 12 0 22 28 12 34 -5 3 -11 3 -15 -1z"/>
<path d="M456 3325 c-2 -7 7 -12 23 -12 16 0 28 6 28 13 0 16 -45 15 -51 -1z"/>
<path d="M618 3333 c-24 -6 -23 -19 3 -26 13 -4 18 -10 13 -18 -4 -8 -3 -10 5
-5 6 4 17 3 24 -2 7 -6 58 -10 114 -11 56 0 114 -3 128 -7 42 -10 75 3 75 31
0 13 -5 27 -12 31 -17 11 -246 16 -230 6 10 -7 5 -11 -17 -15 -17 -4 -31 -12
-31 -18 0 -6 9 -9 20 -6 11 3 20 1 20 -4 0 -12 -27 -11 -52 2 -17 9 -18 13 -7
21 10 7 6 8 -13 5 -16 -2 -28 -1 -28 4 0 4 21 10 48 12 l47 3 -45 1 c-25 0
-53 -1 -62 -4z m289 -9 c-3 -3 -12 -4 -19 -1 -8 3 -5 6 6 6 11 1 17 -2 13 -5z"/>
<path d="M392 3318 c2 -6 11 -13 19 -16 12 -3 12 -2 0 6 -11 8 -9 11 10 15 22
4 22 4 -4 6 -18 0 -27 -3 -25 -11z"/>
<path d="M1032 3309 c-17 -6 -22 -15 -20 -31 2 -19 11 -24 52 -30 59 -8 70 -4
56 23 -9 15 -7 19 7 17 38 -3 73 2 73 11 0 13 -38 18 -81 10 -21 -3 -43 -3
-50 1 -8 4 -24 4 -37 -1z"/>
<path d="M1874 3275 c-4 -8 -10 -13 -14 -10 -5 3 -3 -9 3 -26 10 -27 9 -32 -7
-44 -11 -9 -16 -20 -12 -30 3 -10 2 -14 -5 -10 -5 4 -16 1 -24 -5 -12 -10 -15
-9 -15 4 0 9 -4 16 -9 16 -4 0 -7 12 -5 27 3 33 -10 61 -21 44 -5 -9 -11 -7
-20 6 -13 17 -14 17 -9 -3 7 -25 -11 -41 -20 -19 -3 8 -10 15 -15 15 -6 0 -7
-7 -4 -17 4 -11 3 -14 -5 -9 -7 4 -12 3 -12 -3 0 -5 -10 -11 -22 -13 -16 -2
-22 -9 -20 -20 2 -10 -1 -18 -7 -18 -5 0 -14 -12 -19 -27 -6 -16 -11 -21 -11
-13 -1 16 -51 25 -51 9 0 -5 -4 -9 -9 -9 -6 0 -7 15 -4 34 3 19 1 36 -6 40 -6
4 -11 0 -11 -9 0 -11 -5 -15 -15 -11 -13 5 -15 -2 -13 -35 1 -25 -3 -43 -11
-49 -8 -4 -11 -14 -8 -22 3 -8 -4 -20 -14 -27 -26 -16 -50 7 -42 39 5 18 3 21
-7 15 -35 -21 -50 -42 -56 -73 -4 -18 -9 -31 -12 -28 -3 3 -12 0 -21 -7 -14
-10 -14 -10 -5 3 14 18 23 90 12 90 -4 0 -8 -15 -8 -32 0 -25 -3 -29 -10 -18
-8 12 -10 11 -10 -8 0 -12 -7 -25 -15 -28 -8 -4 -15 -12 -15 -20 0 -8 -6 -13
-12 -12 -19 4 -36 38 -30 61 3 14 1 18 -9 15 -8 -2 -15 -17 -17 -31 -2 -17 -8
-25 -14 -21 -8 5 -9 1 -3 -12 12 -29 14 -77 2 -65 -16 16 -34 1 -29 -25 3 -19
1 -23 -12 -18 -9 3 -16 16 -16 28 0 20 -1 20 -19 -4 -22 -27 -33 -90 -16 -91
5 0 1 -4 -10 -9 -11 -5 -14 -9 -7 -9 9 -1 9 -9 -3 -38 -14 -35 -13 -36 1 -18
15 19 15 19 8 -10 -4 -16 -10 -32 -14 -35 -4 -3 -10 -19 -13 -37 -5 -27 -4
-31 10 -26 12 5 15 2 10 -10 -3 -8 -9 -33 -13 -54 -4 -21 -11 -43 -16 -49 -5
-7 -10 -25 -11 -42 -1 -16 -5 -28 -9 -25 -5 2 -8 0 -8 -5 0 -5 20 -9 43 -9 31
0 60 -9 99 -31 31 -18 63 -32 72 -32 42 0 117 -65 114 -98 -2 -14 3 -27 11
-30 10 -3 12 1 8 17 -3 11 -1 19 4 15 5 -3 9 2 9 11 0 8 6 18 14 21 8 3 13 11
10 17 -2 7 1 19 6 27 9 13 11 13 19 0 8 -12 12 -10 19 11 6 14 12 36 14 50 1
13 12 29 23 36 20 12 20 12 -2 13 -12 0 -52 -7 -89 -15 -104 -25 -110 -12 -7
14 91 23 92 23 89 52 -2 15 2 30 8 33 7 3 6 5 -2 5 -7 1 -2 11 13 25 19 18 25
31 20 45 -4 15 -2 21 9 21 8 0 18 10 22 23 4 12 18 36 31 54 18 23 21 33 11
37 -10 5 -10 7 0 12 6 3 12 18 12 32 0 34 57 82 97 82 16 0 46 9 68 20 48 25
49 25 42 -1 -5 -20 -5 -20 20 -3 24 15 27 15 38 0 11 -14 14 -14 30 4 10 11
21 17 26 15 4 -3 17 7 29 22 16 21 23 24 29 14 7 -11 14 -10 35 4 14 9 32 15
41 12 8 -4 17 -2 21 4 4 7 10 6 18 0 7 -6 16 -8 19 -4 4 3 7 -7 7 -23 0 -22 3
-26 10 -14 8 12 10 12 11 -5 0 -15 2 -16 6 -5 4 8 13 20 22 26 24 18 52 -1 90
-62 18 -29 52 -74 75 -98 33 -36 44 -43 59 -35 13 8 17 6 18 -6 2 -18 3 -22
19 -60 12 -30 16 -31 79 -33 84 -3 775 -40 861 -46 41 -3 58 -2 45 3 -11 5
-213 19 -450 31 -406 20 -501 27 -492 36 4 4 435 -19 677 -36 74 -5 168 -9
208 -10 l72 0 0 28 0 28 -247 12 c-339 18 -559 31 -615 38 -45 5 -46 7 -37 31
13 36 11 119 -5 156 -37 89 -172 247 -198 231 -4 -3 -8 -1 -8 5 0 10 -55 41
-72 41 -5 0 -6 -5 -2 -12 4 -6 -13 2 -37 19 -46 32 -103 49 -96 29 3 -7 -13
-11 -44 -12 -32 -1 -50 4 -53 13 -3 7 -12 13 -21 13 -8 0 -15 5 -15 11 0 6 -6
9 -14 6 -8 -3 -17 1 -20 8 -3 9 -12 12 -22 8 -12 -4 -15 -3 -10 5 5 8 0 12
-14 12 -11 0 -23 -7 -26 -15z m-743 -455 c-5 -28 -8 -31 -14 -17 -4 10 -2 28
4 39 15 28 19 19 10 -22z m-13 -60 c-7 -11 -15 -15 -17 -9 -2 6 3 15 10 20 20
12 21 11 7 -11z m1969 -86 c-3 -3 -12 -4 -19 -1 -8 3 -5 6 6 6 11 1 17 -2 13
-5z m-2004 -169 c-3 -9 -8 -14 -10 -11 -3 3 -2 9 2 15 9 16 15 13 8 -4z"/>
<path d="M505 3250 c4 -6 11 -8 16 -5 14 9 11 15 -7 15 -8 0 -12 -5 -9 -10z"/>
<path d="M618 3243 c12 -2 30 -2 40 0 9 3 -1 5 -23 4 -22 0 -30 -2 -17 -4z"/>
<path d="M848 3242 c-22 -3 -28 -9 -28 -27 0 -37 -3 -36 172 -49 41 -3 60 0
69 10 8 10 8 14 0 14 -6 0 -11 5 -11 11 0 6 7 9 15 6 8 -4 17 -2 20 3 4 6 0
10 -7 11 -7 0 -22 2 -33 4 -11 2 -51 6 -90 10 -38 4 -72 8 -75 9 -3 1 -17 0
-32 -2z"/>
<path d="M1310 3230 c-8 -5 -12 -11 -10 -14 3 -2 14 2 24 10 22 15 10 19 -14
4z"/>
<path d="M375 3200 c-3 -4 14 -8 36 -8 23 -1 38 2 35 6 -10 9 -65 11 -71 2z"/>
<path d="M732 3201 c-10 -6 -8 -10 9 -14 26 -7 34 -3 24 12 -7 13 -15 14 -33
2z"/>
<path d="M648 3193 c6 -2 18 -2 25 0 6 3 1 5 -13 5 -14 0 -19 -2 -12 -5z"/>
<path d="M1287 3160 c-3 -11 -2 -18 3 -15 4 3 10 -2 14 -10 3 -8 1 -15 -4 -15
-6 0 -10 -9 -10 -21 0 -17 2 -18 13 -7 17 17 30 51 17 43 -13 -8 -13 8 0 23 6
6 7 10 4 7 -4 -3 -13 0 -19 5 -9 8 -14 5 -18 -10z"/>
<path d="M466 3144 c-14 -13 -20 -14 -26 -5 -11 19 -49 -4 -47 -29 1 -11 5
-20 10 -20 4 0 6 -4 2 -9 -3 -6 45 -10 115 -10 99 -1 120 1 120 13 0 8 -4 18
-10 21 -5 3 -10 15 -10 26 0 15 -7 19 -39 19 -21 0 -52 3 -68 6 -21 4 -35 1
-47 -12z m93 -10 c10 -9 -55 -3 -69 6 -10 6 -2 7 25 3 22 -3 42 -7 44 -9z"/>
<path d="M670 3139 c0 -5 5 -7 10 -4 6 3 10 8 10 11 0 2 -4 4 -10 4 -5 0 -10
-5 -10 -11z"/>
<path d="M371 3124 c0 -11 3 -14 6 -6 3 7 2 16 -1 19 -3 4 -6 -2 -5 -13z"/>
<path d="M920 3123 c0 -6 -11 -9 -25 -8 -14 2 -23 -1 -19 -6 3 -5 9 -7 13 -5
4 3 7 -4 8 -14 1 -11 -3 -23 -9 -26 -7 -5 -9 -1 -5 9 3 10 3 18 -1 18 -4 1
-17 3 -29 4 -12 1 -39 5 -60 8 -21 3 -47 2 -58 -3 -11 -4 -30 -4 -42 1 -21 8
-22 7 -11 -11 7 -11 18 -20 25 -20 19 0 16 -17 -8 -39 -21 -19 -21 -19 -1 -30
13 -7 22 -7 30 1 7 7 17 4 33 -11 27 -25 56 -26 84 -5 19 16 19 16 -5 10 -22
-6 -23 -6 -6 5 15 9 24 9 39 0 10 -7 22 -10 25 -7 3 3 -1 6 -9 6 -11 0 -11 2
1 10 10 7 11 10 2 10 -21 0 9 38 35 45 13 3 23 10 23 15 0 6 6 10 13 10 8 0
14 7 14 15 0 10 -4 12 -12 5 -7 -5 -16 -6 -20 -2 -5 4 -5 2 -2 -4 4 -7 1 -14
-7 -17 -20 -8 -28 4 -14 20 6 7 8 16 4 20 -3 3 -6 2 -6 -4z m-132 -40 c-10 -2
-28 -2 -40 0 -13 2 -5 4 17 4 22 1 32 -1 23 -4z"/>
<path d="M1221 3064 c0 -11 3 -14 6 -6 3 7 2 16 -1 19 -3 4 -6 -2 -5 -13z"/>
<path d="M688 3053 c7 -3 16 -2 19 1 4 3 -2 6 -13 5 -11 0 -14 -3 -6 -6z"/>
<path d="M1267 3053 c-4 -3 -7 -13 -7 -22 1 -13 3 -13 11 2 11 19 8 33 -4 20z"/>
<path d="M410 3040 c-8 -5 -10 -10 -5 -10 6 0 17 5 25 10 8 5 11 10 5 10 -5 0
-17 -5 -25 -10z"/>
<path d="M460 3040 c0 -5 5 -10 10 -10 6 0 10 5 10 10 0 6 -4 10 -10 10 -5 0
-10 -4 -10 -10z"/>
<path d="M525 3040 c-3 -5 0 -10 7 -10 11 0 11 -2 0 -9 -7 -4 -24 -6 -36 -4
-13 3 -27 0 -30 -6 -4 -6 -16 -11 -27 -11 -10 0 -19 -4 -19 -8 0 -18 49 -30
138 -31 78 -2 92 1 92 14 0 10 -5 13 -12 9 -9 -5 -9 -2 1 9 11 14 11 20 1 32
-14 16 -45 21 -35 5 3 -5 -7 -3 -22 5 -33 17 -49 19 -58 5z m59 -32 c-3 -5
-12 -2 -20 6 -20 21 -17 28 5 14 11 -7 17 -16 15 -20z"/>
<path d="M925 3040 c-3 -5 -1 -10 4 -10 6 0 11 5 11 10 0 6 -2 10 -4 10 -3 0
-8 -4 -11 -10z"/>
<path d="M380 2990 c0 -5 5 -10 10 -10 6 0 10 5 10 10 0 6 -4 10 -10 10 -5 0
-10 -4 -10 -10z"/>
<path d="M500 2928 c0 -4 -18 -5 -40 -2 -24 3 -40 1 -40 -6 0 -5 -7 -10 -15
-10 -11 0 -15 -11 -15 -42 0 -54 12 -74 36 -63 11 5 23 7 27 6 5 -1 25 3 45 8
24 7 40 7 48 0 9 -7 248 -7 283 0 2 1 1 10 -2 21 -3 10 -1 18 5 17 7 -1 41 70
34 74 -9 5 -366 2 -366 -3z m355 -8 c-3 -5 -12 -10 -18 -10 -7 0 -6 4 3 10 19
12 23 12 15 0z m-192 -37 c-7 -2 -21 -2 -30 0 -10 3 -4 5 12 5 17 0 24 -2 18
-5z m-237 -50 c-10 -10 -19 5 -10 18 6 11 8 11 12 0 2 -7 1 -15 -2 -18z"/>
<path d="M438 2753 c12 -2 20 -9 16 -14 -3 -5 -9 -7 -14 -4 -12 8 -30 -27 -25
-51 2 -10 4 -22 4 -26 1 -5 81 -8 179 -8 103 0 171 4 163 9 -7 5 -23 6 -35 4
-13 -3 -17 -2 -9 4 21 15 0 30 -52 38 -28 5 -41 10 -31 13 10 2 45 -1 78 -8
59 -11 78 -8 78 13 0 9 -3 8 -8 -1 -5 -7 -15 -10 -23 -7 -32 12 -198 37 -269
40 -41 2 -65 1 -52 -2z m182 -83 c0 -5 -12 -10 -26 -10 -14 0 -23 4 -19 10 3
6 15 10 26 10 10 0 19 -4 19 -10z"/>
<path d="M3158 2703 c6 -2 18 -2 25 0 6 3 1 5 -13 5 -14 0 -19 -2 -12 -5z"/>
<path d="M970 2680 c0 -11 4 -20 8 -20 4 0 8 9 9 20 1 11 -2 20 -8 20 -5 0 -9
-9 -9 -20z"/>
<path d="M2095 2642 c-63 -7 -102 -23 -132 -54 -36 -38 -53 -81 -29 -72 8 3
15 9 14 12 -2 19 4 23 17 12 14 -12 31 -15 146 -24 25 -2 61 -9 81 -14 24 -6
40 -6 46 0 6 6 12 6 16 -1 11 -17 56 -13 56 5 0 8 4 13 9 9 18 -11 23 16 6 35
-15 17 -15 19 7 34 25 18 17 22 -13 6 -14 -8 -19 -8 -17 1 6 26 -131 60 -207
51z m125 -82 c0 -5 -4 -10 -10 -10 -5 0 -10 5 -10 10 0 6 5 10 10 10 6 0 10
-4 10 -10z m-133 -19 c-1 -12 -7 -17 -19 -13 -24 6 -23 32 1 32 13 0 19 -6 18
-19z"/>
<path d="M1966 2621 c-3 -4 -25 -14 -49 -21 -25 -6 -57 -20 -73 -31 l-29 -19
50 0 c46 0 53 4 83 40 18 22 31 40 28 40 -3 0 -7 -4 -10 -9z"/>
<path d="M2473 2593 c9 -2 25 -2 35 0 9 3 1 5 -18 5 -19 0 -27 -2 -17 -5z"/>
<path d="M2618 2583 c12 -2 32 -2 45 0 12 2 2 4 -23 4 -25 0 -35 -2 -22 -4z"/>
<path d="M2425 2559 c22 -10 34 -19 28 -19 -7 0 -13 -7 -13 -15 0 -11 -8 -13
-32 -10 -18 3 -27 3 -20 -1 6 -3 12 -10 12 -15 0 -6 -4 -8 -8 -5 -4 2 -9 -17
-10 -44 -1 -33 3 -52 14 -61 8 -7 24 -29 34 -48 15 -30 150 -171 163 -171 2 0
7 27 10 60 8 77 -15 220 -40 237 -9 7 -13 13 -8 13 11 0 -25 39 -47 51 -10 6
-19 5 -23 -1 -4 -6 -1 -9 6 -8 15 3 34 -32 44 -82 7 -32 6 -34 -10 -20 -16 14
-17 12 -11 -15 14 -72 6 -152 -15 -140 -5 4 -9 11 -9 16 0 6 5 7 12 3 7 -4 8
-3 4 5 -4 6 -11 9 -16 6 -4 -3 -6 8 -4 25 4 20 0 36 -12 47 -16 17 -17 15 -11
-27 4 -27 3 -37 -2 -25 -5 11 -11 47 -14 80 -3 33 -3 49 1 36 6 -19 9 -21 19
-10 6 8 9 28 7 44 -3 17 -5 42 -5 58 0 22 -7 30 -36 42 -50 21 -56 17 -8 -6z
m12 -91 c-3 -8 -6 -5 -6 6 -1 11 2 17 5 13 3 -3 4 -12 1 -19z"/>
<path d="M2768 2573 c7 -3 16 -2 19 1 4 3 -2 6 -13 5 -11 0 -14 -3 -6 -6z"/>
<path d="M2808 2573 c7 -3 16 -2 19 1 4 3 -2 6 -13 5 -11 0 -14 -3 -6 -6z"/>
<path d="M2356 2527 c3 -10 9 -15 12 -12 3 3 0 11 -7 18 -10 9 -11 8 -5 -6z"/>
<path d="M1795 2510 c-28 -7 -28 -8 -5 -9 14 0 32 4 40 9 17 11 8 11 -35 0z"/>
<path d="M938 2505 c-10 -17 -6 -64 6 -62 12 2 36 23 36 31 0 3 -6 6 -14 6 -8
0 -16 8 -18 18 -2 9 -6 13 -10 7z"/>
<path d="M906 2455 c-3 -8 -1 -15 4 -15 6 0 10 7 10 15 0 8 -2 15 -4 15 -2 0
-6 -7 -10 -15z"/>
<path d="M2354 2438 c6 -36 -7 -71 -17 -45 -3 8 -30 23 -59 33 -71 24 -78 25
-78 7 0 -12 -7 -13 -32 -6 -18 4 -59 8 -90 8 -32 0 -58 3 -58 7 0 13 -135 -4
-150 -19 -13 -12 -13 -13 5 -7 20 7 20 7 1 -14 -19 -22 -19 -22 2 -22 11 0 23
-4 26 -9 3 -4 16 -6 30 -4 13 3 26 1 30 -5 3 -5 -5 -7 -19 -4 -32 6 -31 -5 5
-48 17 -19 30 -40 30 -46 0 -7 13 -22 29 -33 34 -24 147 -44 156 -27 3 7 7 7
11 -1 3 -7 11 -13 17 -13 5 0 8 3 4 6 -3 4 15 17 42 30 26 13 58 36 72 51 42
46 78 193 48 193 -7 0 -9 -12 -5 -32z m-427 -14 c-3 -3 -12 -4 -19 -1 -8 3 -5
6 6 6 11 1 17 -2 13 -5z m63 2 c0 -9 -30 -14 -35 -6 -4 6 3 10 14 10 12 0 21
-2 21 -4z m100 -11 c0 -1 -9 -5 -19 -8 -13 -3 -18 -1 -14 9 4 10 33 10 33 -1z
m-140 -13 c0 -14 -11 -21 -26 -15 -21 8 -17 23 6 23 11 0 20 -4 20 -8z m175
-2 c3 -5 -1 -10 -9 -10 -9 0 -16 5 -16 10 0 6 4 10 9 10 6 0 13 -4 16 -10z
m-58 -16 c-3 -3 -12 -4 -19 -1 -8 3 -5 6 6 6 11 1 17 -2 13 -5z m182 -15 c-17
-11 -39 -12 -39 -1 0 4 12 8 27 9 19 1 22 -1 12 -8z m-144 -10 c4 -5 -2 -6
-11 -2 -12 4 -15 3 -10 -5 10 -16 27 -15 40 3 10 14 13 13 28 -4 16 -19 16
-21 -12 -35 -16 -8 -29 -11 -29 -8 3 20 -2 25 -11 12 -8 -12 -10 -12 -10 -1 0
11 -3 11 -15 1 -8 -7 -25 -10 -39 -6 -14 3 -27 2 -31 -3 -6 -10 34 -20 97 -24
30 -1 38 -6 38 -21 0 -14 -5 -17 -22 -11 -13 3 -30 7 -38 7 -8 0 -34 5 -58 10
-31 8 -42 15 -38 25 3 8 7 27 7 41 1 15 3 20 6 11 4 -17 50 -32 66 -22 4 2 5
12 2 22 -3 12 1 17 15 18 11 1 22 -2 25 -8z m175 -19 c8 -5 13 -10 10 -11 -31
-6 -47 -3 -47 8 0 15 16 17 37 3z m-300 -21 c0 -4 -7 -6 -15 -3 -8 4 -15 10
-15 15 0 4 7 6 15 3 8 -4 15 -10 15 -15z m250 11 c0 -5 -5 -10 -11 -10 -5 0
-7 5 -4 10 3 6 8 10 11 10 2 0 4 -4 4 -10z"/>
<path d="M2126 2344 c-8 -20 -4 -25 11 -16 7 4 9 13 4 21 -6 10 -10 9 -15 -5z"/>
<path d="M963 2429 c-5 -8 -10 -21 -10 -29 0 -9 -3 -28 -7 -43 -4 -16 -2 -27
4 -27 5 0 9 3 8 8 -1 4 6 20 16 35 14 20 16 33 9 48 -7 17 -11 19 -20 8z"/>
<path d="M923 2364 c0 -17 2 -22 7 -13 5 6 6 18 3 26 -8 19 -10 16 -10 -13z"/>
<path d="M934 2305 c-4 -8 -9 -13 -13 -11 -3 2 -6 -7 -6 -20 0 -34 18 -24 26
14 7 33 3 43 -7 17z"/>
<path d="M1194 2232 c5 -8 -1 -12 -18 -12 -14 0 -28 -5 -31 -10 -4 -7 3 -8 20
-4 18 4 30 2 36 -7 7 -11 9 -9 9 8 0 12 -5 25 -12 29 -7 4 -8 3 -4 -4z"/>
<path d="M928 2225 c-6 -11 10 -61 17 -53 2 2 1 17 -3 33 -5 16 -11 25 -14 20z"/>
<path d="M1360 2196 c0 -9 5 -16 10 -16 6 0 10 4 10 9 0 6 -4 13 -10 16 -5 3
-10 -1 -10 -9z"/>
<path d="M2738 2173 c7 -3 16 -2 19 1 4 3 -2 6 -13 5 -11 0 -14 -3 -6 -6z"/>
<path d="M2709 2143 c-13 -16 -12 -17 4 -4 9 7 17 15 17 17 0 8 -8 3 -21 -13z"/>
<path d="M2643 2105 c1 -9 -14 -29 -32 -43 -19 -15 -32 -22 -28 -15 4 6 2 15
-4 19 -7 4 -9 3 -6 -2 3 -6 2 -16 -4 -24 -5 -9 -9 -10 -9 -3 0 6 -13 11 -29
11 -23 -1 -28 -5 -26 -19 3 -12 -1 -16 -11 -12 -11 4 -13 -2 -8 -28 4 -19 8
-36 10 -38 4 -5 44 27 126 105 40 38 66 63 57 57 -11 -9 -19 -9 -26 -2 -8 8
-11 6 -10 -6z m-98 -75 c3 -5 1 -10 -4 -10 -6 0 -11 5 -11 10 0 6 2 10 4 10 3
0 8 -4 11 -10z"/>
<path d="M2354 2100 c-31 -12 -36 -24 -20 -46 14 -18 15 -18 33 -1 11 9 32 17
47 17 31 0 66 16 66 30 0 12 -97 12 -126 0z"/>
<path d="M953 2035 c1 -11 -4 -26 -13 -33 -13 -10 -12 -11 4 -5 13 4 17 3 12
-5 -4 -7 -2 -12 3 -12 6 0 11 -5 11 -11 0 -5 -4 -8 -9 -5 -4 3 -5 -11 -1 -32
14 -81 21 -102 32 -102 6 0 8 -7 4 -15 -3 -8 -1 -15 4 -15 6 0 10 -11 10 -25
0 -14 3 -24 8 -22 4 1 18 -8 32 -20 13 -13 27 -23 30 -23 17 0 27 51 24 120
-2 41 -4 77 -5 80 -1 3 -1 8 0 12 1 13 -91 108 -100 102 -5 -3 -9 0 -9 5 0 6
-4 11 -9 11 -5 0 -7 -10 -5 -22 3 -18 1 -16 -11 7 -10 19 -14 23 -12 10z m37
-96 c0 -16 -4 -28 -8 -25 -5 3 -8 15 -6 28 3 28 3 28 9 28 3 0 5 -14 5 -31z"/>
<path d="M2460 1973 c0 -12 -4 -25 -10 -28 -5 -3 -10 -11 -10 -16 0 -6 4 -8 9
-4 5 3 12 -3 16 -14 3 -11 13 -25 21 -32 13 -11 14 -8 10 17 -2 16 -5 29 -6
29 -1 0 -3 7 -5 17 -2 9 -8 24 -14 35 -10 17 -10 16 -11 -4z"/>
<path d="M2410 1956 c0 -8 5 -18 10 -21 6 -3 10 3 10 14 0 12 -4 21 -10 21 -5
0 -10 -6 -10 -14z"/>
<path d="M2330 1941 c0 -12 6 -21 16 -21 9 0 14 7 12 17 -5 25 -28 28 -28 4z"/>
<path d="M1311 1904 c0 -11 3 -14 6 -6 3 7 2 16 -1 19 -3 4 -6 -2 -5 -13z"/>
<path d="M2280 1896 c0 -9 5 -16 10 -16 6 0 10 4 10 9 0 6 -4 13 -10 16 -5 3
-10 -1 -10 -9z"/>
<path d="M2481 1837 c-1 -16 -5 -26 -11 -22 -6 4 -8 10 -5 16 8 11 -124 4
-190 -10 -27 -7 -64 -9 -82 -6 -25 5 -34 2 -43 -15 -10 -18 -8 -20 28 -20 21
0 42 4 48 9 17 17 109 18 177 3 37 -8 67 -19 67 -24 0 -13 17 -9 23 5 2 7 1
30 -3 52 -6 32 -8 35 -9 12z"/>
<path d="M2411 1684 c0 -11 3 -14 6 -6 3 7 2 16 -1 19 -3 4 -6 -2 -5 -13z"/>
<path d="M975 1679 c-11 -16 -1 -19 13 -3 7 8 8 14 3 14 -5 0 -13 -5 -16 -11z"/>
<path d="M1465 1670 c-3 -5 -1 -10 4 -10 6 0 11 5 11 10 0 6 -2 10 -4 10 -3 0
-8 -4 -11 -10z"/>
<path d="M1490 1646 c-23 -8 -36 -20 -38 -34 -2 -12 1 -22 7 -22 6 0 11 5 11
11 0 20 34 38 60 33 14 -3 36 -1 50 5 l25 10 -27 0 c-14 1 -32 3 -40 5 -7 3
-29 -1 -48 -8z"/>
<path d="M0 1630 c0 -5 12 -10 26 -10 14 0 23 4 19 10 -3 6 -15 10 -26 10 -10
0 -19 -4 -19 -10z"/>
<path d="M1010 1626 c0 -2 7 -7 16 -10 8 -3 12 -2 9 4 -6 10 -25 14 -25 6z"/>
<path d="M1480 1596 c0 -9 -4 -16 -10 -16 -19 0 -10 -18 12 -23 38 -10 50 5
22 32 -19 18 -24 20 -24 7z"/>
<path d="M1630 1587 c14 -6 27 -14 30 -18 3 -3 14 -10 24 -16 16 -9 12 -11
-27 -14 -32 -3 -47 0 -47 8 0 6 -4 14 -9 17 -5 4 -7 -3 -4 -15 3 -11 15 -25
27 -29 11 -5 14 -9 6 -8 -21 0 -68 16 -52 17 22 2 13 21 -10 21 -25 0 -63 -20
-39 -20 7 0 11 -6 7 -15 -3 -8 -1 -15 5 -15 5 0 28 -18 50 -40 22 -22 46 -40
52 -40 6 0 28 -18 48 -40 21 -22 40 -40 44 -40 4 0 20 -9 36 -21 17 -12 42
-24 57 -29 15 -4 26 -12 25 -19 -2 -6 9 -11 25 -11 15 0 42 -9 60 -20 18 -11
38 -20 44 -20 6 0 17 -8 24 -17 7 -10 16 -18 21 -19 15 -1 43 -16 43 -23 0
-15 -66 -78 -78 -74 -8 3 -16 -4 -19 -16 -3 -12 -8 -21 -11 -21 -3 0 -62 38
-131 84 -69 46 -148 94 -176 106 -27 12 -53 27 -56 32 -4 6 -13 8 -20 6 -7 -2
12 -19 43 -38 31 -19 54 -38 51 -44 -4 -5 1 -7 10 -3 10 3 17 3 17 -2 0 -4 12
-14 28 -22 15 -8 29 -16 32 -19 3 -3 24 -18 47 -34 24 -16 40 -32 37 -37 -3
-5 -8 -8 -12 -6 -4 2 -25 11 -47 21 -22 9 -48 21 -57 26 -31 17 -26 -14 6 -36
27 -18 140 -68 199 -88 28 -9 31 -33 12 -91 -15 -49 -19 -53 -38 -46 -12 5
-21 16 -19 24 2 10 -14 23 -45 37 -26 11 -57 29 -68 39 -11 10 -41 28 -67 40
-27 13 -50 26 -53 31 -3 5 -23 11 -45 15 -22 4 -42 10 -45 14 -2 5 -27 6 -54
3 -28 -2 -58 -1 -68 3 -10 4 -41 8 -69 8 -28 1 -58 8 -66 14 -8 7 -18 10 -21
6 -4 -3 -7 -1 -7 5 0 7 -4 12 -8 12 -5 0 -29 18 -53 41 -24 22 -57 48 -74 56
l-30 16 19 -22 c13 -14 15 -21 6 -21 -10 0 -10 -3 0 -15 11 -13 15 -13 21 -3
7 10 9 9 9 -4 0 -9 -6 -18 -12 -21 -8 -3 -6 -8 7 -13 30 -12 40 -26 43 -59 5
-61 7 -74 14 -80 11 -12 -11 -45 -30 -46 -14 0 -14 -2 3 -9 19 -8 19 -9 -1 -9
-12 -1 -24 6 -28 14 -7 18 -52 20 -60 3 -3 -9 -9 -7 -20 6 -15 18 -16 18 -16
2 0 -9 -4 -15 -9 -12 -5 3 -14 -8 -21 -24 -16 -39 -22 -34 -11 8 6 20 6 32 0
32 -5 0 -9 -9 -9 -20 0 -14 -5 -18 -17 -13 -16 6 -16 5 -4 -10 11 -14 11 -17
0 -17 -11 0 -11 -2 1 -10 21 -14 53 -13 44 2 -4 7 -3 8 4 4 18 -11 15 -15 -14
-26 -21 -8 -24 -13 -14 -25 12 -14 6 -35 -9 -35 -5 0 -16 19 -25 43 -9 23 -29
62 -45 86 -24 36 -30 40 -38 27 -5 -9 -21 -18 -34 -19 -14 -1 -33 -10 -42 -19
-15 -15 -15 -18 -3 -25 11 -6 12 -13 6 -23 -8 -13 -10 -12 -10 3 0 15 -2 16
-14 5 -9 -8 -10 -14 -4 -17 6 -2 0 -10 -13 -18 l-24 -14 24 7 c20 5 22 4 11
-7 -7 -8 -24 -15 -38 -16 -14 0 -32 -9 -39 -19 -7 -10 -13 -13 -13 -8 0 6 5
15 12 22 6 6 8 15 3 19 -4 5 -10 2 -12 -4 -3 -7 -12 -13 -20 -13 -10 0 -14 -6
-11 -18 4 -12 -1 -17 -19 -17 -27 0 -31 11 -5 18 9 3 5 4 -10 4 -15 -1 -25 -4
-23 -8 3 -3 -2 -15 -10 -25 -13 -18 -14 -18 -9 6 2 14 2 19 -2 12 -3 -6 -10
-10 -15 -6 -5 3 -9 0 -9 -6 0 -6 -5 -8 -12 -4 -8 5 -9 2 -5 -9 3 -9 1 -19 -5
-23 -7 -4 -8 -3 -4 4 4 7 2 12 -3 12 -6 0 -11 -4 -11 -10 0 -5 -11 -10 -24
-10 -35 0 -78 -18 -71 -30 3 -5 1 -10 -4 -10 -6 0 -11 8 -11 18 0 13 -2 14 -9
4 -4 -8 -11 -13 -15 -12 -3 1 -28 -1 -54 -6 -26 -4 -50 -7 -54 -6 -5 1 -8 -2
-8 -7 0 -5 -23 -1 -52 9 -28 10 -70 17 -94 16 -23 0 -40 3 -37 8 4 5 -11 5
-33 1 -21 -4 -47 -8 -56 -7 -17 1 -18 -22 -18 -354 l0 -354 1290 0 c748 0
1290 4 1290 9 0 5 -4 11 -8 13 -13 5 -24 58 -12 58 5 0 10 -8 10 -17 0 -10 16
-28 35 -41 35 -22 37 -22 430 -22 l395 0 0 156 0 157 -31 -7 c-17 -3 -38 -6
-45 -6 -9 0 -14 -12 -15 -32 l-2 -33 -6 35 -6 34 -110 -2 c-160 -4 -173 -7
-178 -46 l-4 -31 -1 34 -2 34 -132 -5 c-73 -3 -120 -4 -104 -1 26 4 28 7 22
35 -3 17 -6 33 -6 37 0 3 -25 4 -55 3 l-55 -4 1 39 c1 36 2 37 8 8 l6 -30 100
3 c150 4 197 11 191 29 -3 8 -6 21 -6 29 0 11 -20 14 -95 14 -92 0 -95 -1 -96
-22 0 -22 -1 -22 -8 -3 -7 18 -17 19 -97 18 l-89 -1 79 9 c100 11 102 12 82
31 -9 9 -16 22 -16 28 0 7 -31 10 -97 8 -77 -2 -97 -6 -95 -17 2 -7 -11 -2
-28 13 -18 14 -36 26 -42 26 -28 0 -123 104 -111 123 3 5 1 7 -5 3 -6 -3 -26
12 -46 35 -32 38 -34 43 -21 63 22 30 18 71 -7 100 -13 14 -56 41 -95 61 -40
20 -73 42 -73 50 0 7 -6 16 -12 18 -7 3 -4 6 7 7 l20 1 -20 9 c-16 7 -17 9 -3
9 9 1 20 5 23 11 3 5 0 7 -8 4 -8 -3 -14 2 -14 11 0 8 7 15 16 15 13 1 13 2
-2 11 -9 6 -15 14 -12 19 3 5 -1 26 -10 46 -8 20 -14 38 -13 38 2 1 15 8 30
15 15 8 35 15 45 16 10 1 25 4 33 8 8 3 34 11 56 17 23 5 47 17 54 25 7 8 19
15 28 15 30 0 97 53 115 90 25 54 32 117 12 117 -8 0 -15 -7 -15 -15 0 -8 -6
-12 -15 -8 -8 3 -20 -3 -27 -13 -10 -14 -24 -18 -63 -16 -27 2 -62 8 -77 14
-21 8 -28 8 -28 -2 0 -9 -3 -8 -9 1 -7 11 -11 11 -24 -2 -14 -15 -17 -15 -32
0 -9 9 -13 25 -10 38 2 11 2 15 -1 9 -3 -7 -12 -13 -20 -13 -8 0 -14 -5 -14
-11 0 -5 -5 -7 -10 -4 -6 4 -8 11 -5 16 4 5 -2 8 -12 7 -31 -4 -128 14 -135
25 -4 7 -11 7 -22 -2 -8 -7 -23 -11 -33 -9 -10 1 -24 -1 -31 -6 -7 -4 -19 -3
-26 3 -10 8 -22 8 -40 1 -30 -11 -74 -4 -94 16 -11 11 -6 13 28 8 26 -4 40 -2
40 5 0 6 -13 11 -29 11 -59 0 -77 20 -43 46 15 13 14 13 -8 5 -18 -6 -36 -5
-59 5 -41 17 -78 18 -41 1z m310 -111 c0 -2 -7 -6 -15 -10 -8 -3 -15 -1 -15 4
0 6 7 10 15 10 8 0 15 -2 15 -4z m-489 -490 c5 3 9 0 9 -7 0 -8 6 -6 18 4 20
18 42 22 42 8 0 -4 30 -22 68 -39 37 -18 94 -50 127 -72 33 -22 66 -40 73 -40
12 0 52 -19 62 -30 3 -3 17 -11 33 -17 23 -11 27 -10 27 4 0 9 2 14 5 11 3 -3
0 -26 -7 -51 -6 -26 -15 -43 -18 -37 -3 5 -6 -9 -6 -30 -1 -25 2 -37 9 -33 6
4 7 1 2 -7 -6 -10 -11 -9 -22 5 -7 11 -13 26 -13 36 0 9 -7 23 -17 30 -15 13
-15 12 -2 -8 11 -19 11 -27 1 -43 -7 -12 -8 -20 -2 -20 5 0 10 6 10 13 0 8 4
7 10 -3 13 -20 13 -80 -1 -80 -6 0 -22 14 -36 30 -14 17 -37 37 -52 45 -14 7
-44 30 -66 50 -39 36 -39 37 -12 31 20 -5 27 -3 22 5 -4 6 -20 9 -37 7 -20 -3
-36 2 -52 17 -13 12 -32 25 -41 29 -10 3 -15 12 -11 21 3 8 1 15 -5 15 -6 0
-8 3 -6 8 3 4 -1 13 -9 20 -8 7 -14 10 -14 6 0 -3 -7 -1 -15 6 -13 11 -18 11
-28 0 -10 -10 -8 -12 6 -7 11 4 16 3 12 -3 -4 -6 -3 -10 2 -9 20 3 34 -2 28
-11 -3 -5 -1 -10 4 -10 6 0 11 -6 11 -12 -1 -8 -8 -5 -18 7 -10 11 -24 21 -31
23 -17 4 -109 90 -122 115 -6 10 -6 17 -1 17 6 0 12 -9 15 -21 6 -22 29 -22
33 -1 1 7 0 8 -3 2 -2 -5 -9 -8 -14 -5 -5 3 -3 15 4 26 6 10 13 15 15 9 2 -6
8 -8 13 -4z m-205 -51 c-9 -13 -13 -32 -9 -42 3 -10 3 -15 -2 -11 -12 12 -15
59 -2 51 6 -4 8 0 4 9 -7 18 1 30 15 22 5 -3 2 -16 -6 -29z m41 -10 c-3 -20
-2 -35 4 -35 6 0 6 -7 -1 -19 -13 -26 -13 -52 1 -48 6 1 15 -8 20 -20 7 -19 5
-23 -11 -23 -11 0 -20 5 -20 11 0 5 -4 7 -10 4 -9 -6 -11 -1 -14 38 -1 6 -5
15 -11 19 -6 4 -2 8 9 8 16 0 17 2 5 17 -10 11 -10 14 -1 9 6 -4 12 -2 12 3 0
6 -4 11 -10 11 -5 0 -10 5 -10 11 0 6 7 9 15 5 8 -3 15 -1 15 4 0 6 -4 10 -10
10 -5 0 -7 7 -4 15 12 30 27 15 21 -20z m-137 5 c0 -5 -7 -7 -15 -4 -8 4 -15
8 -15 10 0 2 7 4 15 4 8 0 15 -4 15 -10z m160 -176 c0 -11 -5 -14 -16 -10 -9
3 -18 6 -20 6 -3 0 -2 5 1 10 10 16 35 12 35 -6z m320 -35 c0 -15 -18 -19 -23
-6 -3 8 1 14 9 14 8 0 14 -4 14 -8z m24 -17 c3 -5 -1 -9 -9 -9 -8 0 -12 4 -9
9 3 4 7 8 9 8 2 0 6 -4 9 -8z m49 -40 c-1 -5 4 -13 12 -16 10 -3 12 0 9 12 -4
10 -2 13 3 7 4 -6 25 -25 46 -43 23 -20 32 -32 22 -32 -9 0 -18 -7 -21 -15 -4
-8 -10 -12 -15 -9 -5 3 -9 1 -9 -4 0 -6 7 -12 15 -16 8 -3 14 -2 14 2 -4 26 1
34 16 22 8 -7 15 -10 15 -6 0 3 22 -5 50 -19 27 -14 55 -25 63 -25 21 0 57
-47 50 -66 -3 -8 4 -28 16 -44 25 -35 26 -40 6 -40 -8 0 -15 -4 -15 -10 0 -5
5 -10 11 -10 6 0 8 -9 4 -21 -5 -15 -4 -19 4 -15 6 4 11 3 11 -3 0 -5 -4 -13
-10 -16 -5 -3 -10 -1 -10 4 0 6 -5 11 -11 11 -5 0 -7 -4 -4 -10 3 -5 -1 -10
-9 -10 -8 0 -20 9 -26 19 -13 25 -13 34 0 26 6 -3 10 -1 10 6 0 6 -8 9 -19 6
-11 -2 -25 3 -34 14 -26 30 -50 69 -42 69 9 0 55 -48 54 -55 0 -3 2 -11 5 -18
2 -6 4 -2 2 10 -1 12 -10 31 -20 42 -10 11 -16 27 -12 36 4 13 2 14 -14 5 -14
-8 -20 -8 -20 0 0 6 -6 10 -12 8 -7 -2 -13 2 -13 7 0 6 2 9 5 8 3 -1 14 -4 25
-8 15 -4 15 -3 -3 6 -16 9 -21 18 -16 33 6 19 4 18 -15 -4 l-21 -25 10 30 c9
26 8 28 -4 13 -13 -18 -28 -24 -24 -10 1 4 -15 25 -36 47 -48 52 -67 90 -53
104 7 7 7 11 1 11 -5 0 -15 -5 -21 -11 -8 -8 -13 -7 -18 2 -5 7 -4 10 3 5 6
-3 14 -2 17 4 8 13 31 7 28 -8z m575 -53 c-3 -8 -7 -3 -11 10 -4 17 -3 21 5
13 5 -5 8 -16 6 -23z m-331 -29 c12 -10 19 -20 16 -24 -3 -3 1 -6 10 -6 10 0
17 -4 17 -9 0 -6 -12 -6 -30 -1 -17 5 -34 9 -38 9 -35 4 -59 30 -29 32 10 0
10 2 0 6 -7 2 -13 9 -13 15 0 12 39 0 67 -22z m-757 -10 c-14 -11 -30 -24 -37
-30 -16 -13 -26 -13 -17 1 6 11 65 49 74 49 3 -1 -6 -10 -20 -20z m1780 -140
c-8 -5 -19 -10 -25 -10 -5 0 -3 5 5 10 8 5 20 10 25 10 6 0 3 -5 -5 -10z
m-536 -118 c2 -4 -4 -8 -14 -8 -10 0 -16 4 -14 8 3 4 9 8 14 8 5 0 11 -4 14
-8z m-434 -36 c0 -3 -4 -8 -10 -11 -5 -3 -10 -1 -10 4 0 6 5 11 10 11 6 0 10
-2 10 -4z m854 -48 c-3 -4 -11 -5 -19 -1 -21 7 -19 12 4 10 11 0 18 -5 15 -9z
m-814 -4 c0 -8 -19 -13 -24 -6 -3 5 1 9 9 9 8 0 15 -2 15 -3z m437 -39 c0 -8
-4 -12 -9 -9 -5 3 -6 10 -3 15 9 13 12 11 12 -6z m29 -52 l3 -28 -14 25 c-7
14 -11 28 -8 33 8 13 16 0 19 -30z m-400 -10 c-3 -4 -6 0 -6 8 0 11 -2 12 -9
1 -7 -11 -9 -10 -14 3 -4 9 -3 13 3 10 6 -3 10 0 10 7 0 8 5 6 11 -5 6 -10 8
-21 5 -24z m431 22 c0 -8 -4 -12 -9 -9 -5 3 -6 10 -3 15 9 13 12 11 12 -6z
m-403 -57 c-3 -11 -2 -18 3 -15 5 3 15 2 22 -2 10 -6 9 -10 -3 -14 -10 -4 -23
5 -38 26 -18 27 -19 29 -3 17 17 -14 18 -13 12 3 -4 11 -3 16 4 12 5 -4 7 -16
3 -27z m413 10 c-3 -8 -6 -5 -6 6 -1 11 2 17 5 13 3 -3 4 -12 1 -19z"/>
<path d="M1430 934 c0 -10 28 -34 39 -34 6 0 11 -4 11 -10 0 -5 7 -7 16 -3 12
4 8 9 -15 21 -17 8 -31 18 -31 23 0 5 -4 9 -10 9 -5 0 -10 -3 -10 -6z"/>
<path d="M1585 810 c-3 -5 -1 -10 4 -10 6 0 11 5 11 10 0 6 -2 10 -4 10 -3 0
-8 -4 -11 -10z"/>
<path d="M1630 780 c-9 -6 -10 -10 -3 -10 6 0 15 5 18 10 8 12 4 12 -15 0z"/>
<path d="M1720 710 c0 -5 5 -10 11 -10 5 0 7 5 4 10 -3 6 -8 10 -11 10 -2 0
-4 -4 -4 -10z"/>
<path d="M1759 710 c0 -3 -2 -13 -4 -23 -2 -9 0 -15 5 -12 5 3 10 -1 13 -7 2
-7 6 -11 9 -8 3 3 -1 16 -9 30 -7 14 -13 23 -14 20z"/>
<path d="M1830 630 c8 -5 20 -10 25 -10 6 0 3 5 -5 10 -8 5 -19 10 -25 10 -5
0 -3 -5 5 -10z"/>
<path d="M1715 619 c-4 -6 -5 -12 -2 -15 2 -3 7 2 10 11 7 17 1 20 -8 4z"/>
<path d="M1799 543 c-12 -16 -12 -17 2 -6 9 7 20 9 24 5 5 -4 5 -1 1 6 -9 16
-11 15 -27 -5z"/>
<path d="M1950 370 c0 -5 5 -10 10 -10 6 0 10 5 10 10 0 6 -4 10 -10 10 -5 0
-10 -4 -10 -10z"/>
<path d="M1961 332 c-7 -13 -11 -26 -8 -28 8 -8 29 25 25 38 -3 8 -9 4 -17
-10z"/>
<path d="M1916 573 c-6 -14 -5 -15 5 -6 7 7 10 15 7 18 -3 3 -9 -2 -12 -12z"/>
<path d="M1800 1570 c0 -5 7 -7 15 -4 8 4 15 8 15 10 0 2 -7 4 -15 4 -8 0 -15
-4 -15 -10z"/>
<path d="M1900 1528 c-25 -27 -14 -33 26 -17 23 10 25 13 11 16 -9 3 -15 9
-12 14 11 17 -4 9 -25 -13z"/>
<path d="M640 1499 c0 -6 -9 -9 -19 -6 -10 2 -25 1 -32 -4 -10 -6 -4 -9 17 -9
17 0 37 7 44 15 9 10 9 15 1 15 -6 0 -11 -5 -11 -11z"/>
<path d="M784 1495 c26 -20 42 -19 22 0 -8 8 -21 15 -28 15 -8 -1 -6 -6 6 -15z"/>
<path d="M1045 1500 c-3 -6 1 -7 9 -4 18 7 21 14 7 14 -6 0 -13 -4 -16 -10z"/>
<path d="M480 1491 c0 -6 17 -7 38 -4 51 8 53 13 4 13 -23 0 -42 -4 -42 -9z"/>
<path d="M1025 1471 c-3 -5 -1 -12 5 -16 5 -3 10 1 10 9 0 18 -6 21 -15 7z"/>
<path d="M631 1459 c-24 -5 -48 -6 -53 -3 -5 3 -25 -4 -44 -15 -22 -13 -53
-21 -81 -21 -31 0 -50 -5 -58 -16 -16 -22 -65 -11 -65 14 0 10 -3 13 -8 6 -13
-20 -83 -36 -133 -32 -36 4 -49 1 -54 -9 -11 -29 -4 -33 53 -29 31 3 46 2 32
0 -14 -3 -30 -10 -35 -14 -16 -13 -95 12 -95 29 0 12 -3 12 -12 3 -9 -9 -8
-15 4 -24 14 -11 18 -56 9 -88 -4 -13 -31 66 -42 120 -8 44 -16 60 -28 60 -11
0 -12 -3 -4 -8 12 -8 14 -82 2 -82 -4 0 -10 15 -12 33 -2 17 -5 -82 -5 -220
l-2 -253 28 -1 c16 -1 20 -3 9 -6 -9 -2 -17 -9 -17 -14 0 -10 10 -12 50 -10
23 0 22 -1 -5 -9 -16 -6 -35 -8 -42 -5 -7 2 -15 0 -18 -5 -4 -6 2 -10 12 -10
36 1 179 37 223 57 153 70 426 171 494 184 32 6 64 22 93 45 52 43 121 142 81
118 -7 -4 -8 -3 -4 5 4 6 11 9 16 6 5 -3 16 10 24 30 8 19 20 35 26 35 6 0 9
16 8 40 -3 35 -5 38 -15 23 -18 -24 -16 -2 1 23 10 14 11 25 5 35 -8 11 -9 10
-7 -5 3 -20 -9 -22 -107 -16 -33 2 -36 3 -16 9 23 6 22 8 -16 19 -45 14 -126
14 -192 1z m309 -89 c0 -5 -4 -10 -10 -10 -5 0 -10 5 -10 10 0 6 5 10 10 10 6
0 10 -4 10 -10z m16 -28 c-17 -16 -18 -16 -5 5 7 12 15 20 18 17 3 -2 -3 -12
-13 -22z m-26 -27 c4 3 6 -5 2 -17 -5 -21 -6 -21 -13 -2 -4 10 -8 24 -8 29 1
6 3 4 6 -3 2 -6 8 -10 13 -7z m-770 -15 c0 -5 -7 -10 -16 -10 -8 0 -12 5 -9
10 3 6 10 10 16 10 5 0 9 -4 9 -10z m213 -320 c-19 -21 -38 -26 -47 -11 -4 5
4 7 16 4 17 -3 19 -2 9 5 -11 8 -10 11 5 15 33 8 34 7 17 -13z m-323 -40 c0
-5 -8 -10 -17 -10 -15 0 -16 2 -3 10 19 12 20 12 20 0z m210 5 c0 -2 -6 -8
-13 -14 -10 -8 -14 -7 -14 2 0 8 6 14 14 14 7 0 13 -1 13 -2z m40 1 c0 -2 -7
-6 -15 -10 -8 -3 -15 -1 -15 4 0 6 7 10 15 10 8 0 15 -2 15 -4z m-105 -16 c3
-5 2 -10 -4 -10 -5 0 -13 5 -16 10 -3 6 -2 10 4 10 5 0 13 -4 16 -10z m-75
-10 c0 -5 -4 -10 -9 -10 -6 0 -13 5 -16 10 -3 6 1 10 9 10 9 0 16 -4 16 -10z
m84 -17 c-10 -7 -26 -11 -38 -8 -12 2 -23 4 -26 4 -17 3 23 16 49 16 27 0 29
-2 15 -12z m-84 -7 c0 -11 -19 -15 -25 -6 -3 5 1 10 9 10 9 0 16 -2 16 -4z"/>
<path d="M2220 1459 c0 -5 5 -7 10 -4 6 3 10 8 10 11 0 2 -4 4 -10 4 -5 0 -10
-5 -10 -11z"/>
<path d="M880 1450 c0 -5 5 -10 11 -10 5 0 7 5 4 10 -3 6 -8 10 -11 10 -2 0
-4 -4 -4 -10z"/>
<path d="M1010 1430 c0 -5 5 -10 11 -10 5 0 7 5 4 10 -3 6 -8 10 -11 10 -2 0
-4 -4 -4 -10z"/>
<path d="M1011 1394 c0 -11 3 -14 6 -6 3 7 2 16 -1 19 -3 4 -6 -2 -5 -13z"/>
<path d="M2473 1180 c0 -25 2 -35 4 -22 2 12 2 32 0 45 -2 12 -4 2 -4 -23z"/>
<path d="M2218 1103 c7 -3 16 -2 19 1 4 3 -2 6 -13 5 -11 0 -14 -3 -6 -6z"/>
<path d="M2482 1025 c-11 -12 -10 -15 3 -15 8 0 15 7 15 15 0 18 -2 18 -18 0z"/>
<path d="M1070 986 c0 -4 6 -14 14 -21 12 -12 15 -12 20 2 4 9 4 18 1 21 -3 3
-5 0 -5 -8 0 -10 -3 -10 -15 0 -8 7 -15 9 -15 6z"/>
<path d="M1171 964 c0 -11 3 -14 6 -6 3 7 2 16 -1 19 -3 4 -6 -2 -5 -13z"/>
<path d="M1195 970 c-3 -5 -1 -10 4 -10 6 0 11 5 11 10 0 6 -2 10 -4 10 -3 0
-8 -4 -11 -10z"/>
<path d="M975 951 c-3 -5 -2 -12 3 -15 5 -3 9 1 9 9 0 17 -3 19 -12 6z"/>
<path d="M1905 880 c3 -5 8 -10 11 -10 2 0 4 5 4 10 0 6 -5 10 -11 10 -5 0 -7
-4 -4 -10z"/>
<path d="M2902 866 l-384 -9 6 -21 c3 -11 6 -32 6 -45 l0 -24 93 7 c50 4 98 8
104 8 10 1 10 5 1 15 -8 11 -7 12 6 7 12 -5 16 0 17 17 1 17 3 19 6 7 2 -10 9
-18 14 -18 6 0 7 5 4 10 -3 6 -1 10 4 10 6 0 11 -7 11 -15 0 -8 -5 -15 -11
-15 -5 0 -8 -4 -4 -9 3 -5 40 -8 83 -6 42 1 103 3 134 4 56 1 57 1 61 34 l4
32 1 -32 2 -33 128 1 c70 0 136 4 147 9 11 5 14 9 8 9 -15 1 -18 31 -4 31 5 0
13 -9 16 -20 5 -15 15 -20 41 -20 33 0 34 1 34 41 l0 40 -72 -3 c-40 -2 -245
-7 -456 -12z m138 -40 c0 -3 -4 -8 -10 -11 -5 -3 -10 -1 -10 4 0 6 5 11 10 11
6 0 10 -2 10 -4z m-83 -12 c-3 -3 -12 -4 -19 -1 -8 3 -5 6 6 6 11 1 17 -2 13
-5z"/>
<path d="M3033 772 c-61 -2 -73 -6 -73 -20 1 -41 12 -44 151 -43 73 1 134 3
135 4 1 1 -1 16 -3 33 l-5 32 -66 -2 c-37 0 -100 -2 -139 -4z"/>
<path d="M3256 753 c4 -16 9 -30 13 -33 3 -3 41 -4 84 -2 l77 4 0 29 0 29 -90
0 -90 0 6 -27z"/>
<path d="M2840 763 c-63 -10 -74 -14 -59 -24 8 -5 9 -9 2 -9 -21 0 -43 12 -37
21 3 5 -16 9 -41 9 -46 0 -46 0 -43 -32 3 -30 6 -33 33 -31 17 1 83 2 149 2
105 0 118 2 112 16 -3 9 -6 25 -6 36 0 16 -7 19 -42 18 -24 -1 -54 -3 -68 -6z
m-90 -43 c0 -5 -2 -10 -4 -10 -3 0 -8 5 -11 10 -3 6 -1 10 4 10 6 0 11 -4 11
-10z"/>
<path d="M2540 726 l0 -36 56 0 55 0 -3 33 c-3 31 -4 32 -55 35 l-53 3 0 -35z"/>
<path d="M3383 703 c-7 -2 -13 -18 -13 -34 0 -26 4 -29 30 -29 28 0 30 3 30
35 0 35 -12 43 -47 28z"/>
<path d="M3080 663 l0 -36 98 6 c53 4 116 7 140 7 40 0 42 1 42 30 l0 30 -140
0 -140 0 0 -37z"/>
<path d="M2805 682 c-5 -4 -11 -20 -11 -36 l-1 -28 106 6 c58 3 120 6 138 6
29 0 32 3 31 30 l-1 30 -126 0 c-69 0 -130 -4 -136 -8z"/>
<path d="M2540 668 c0 -7 3 -24 7 -37 6 -24 7 -24 102 -17 53 4 101 8 107 8 7
1 6 11 -3 30 -14 28 -15 28 -114 28 -73 0 -99 -3 -99 -12z"/>
<path d="M3285 612 c3 -7 5 -22 5 -33 0 -17 8 -19 70 -19 l70 0 0 35 0 35 -75
-2 c-60 -2 -74 -5 -70 -16z"/>
<path d="M2995 610 c-3 -5 -1 -10 4 -10 6 0 11 5 11 10 0 6 -2 10 -4 10 -3 0
-8 -4 -11 -10z"/>
<path d="M3032 601 c-12 -10 -22 -26 -22 -36 0 -15 11 -16 133 -10 72 4 133 8
135 10 1 1 -2 14 -7 29 -10 26 -11 26 -114 26 -87 0 -107 -3 -125 -19z m10
-33 c-7 -7 -12 -8 -12 -2 0 14 12 26 19 19 2 -3 -1 -11 -7 -17z"/>
<path d="M2687 604 c-3 -4 -2 -15 3 -25 6 -9 7 -25 3 -35 -5 -14 -2 -16 18
-11 13 4 30 7 37 7 12 0 10 45 -3 58 -9 9 -51 13 -58 6z"/>
<path d="M2790 600 c-22 -5 -27 -8 -13 -9 14 -1 20 -7 19 -18 -2 -10 2 -21 8
-25 15 -10 96 -10 96 0 0 4 19 6 41 4 29 -3 40 -1 35 7 -4 6 -11 9 -16 6 -12
-7 -60 5 -60 15 0 4 7 10 15 14 8 3 14 1 12 -3 -1 -5 3 -9 8 -9 6 0 9 5 7 10
-2 6 4 8 13 4 9 -3 13 -2 10 4 -7 11 -122 11 -175 0z"/>
<path d="M2550 588 c1 -50 11 -58 71 -58 62 0 65 3 53 48 -6 20 -13 22 -65 22
-41 0 -59 -4 -59 -12z"/>
<path d="M3193 542 c-83 -2 -93 -5 -93 -22 0 -43 5 -45 120 -42 76 2 110 7
110 15 0 9 3 8 8 -1 14 -22 42 -2 42 29 0 28 -1 29 -47 27 -27 -2 -90 -4 -140
-6z"/>
<path d="M3394 534 c3 -9 6 -22 6 -30 0 -8 7 -14 15 -14 10 0 15 10 15 30 0
24 -4 30 -21 30 -15 0 -19 -4 -15 -16z"/>
<path d="M2907 532 l-108 -3 3 -32 c3 -30 5 -32 43 -31 22 1 86 2 143 4 l103
2 -3 32 c-3 35 10 33 -181 28z"/>
<path d="M3107 463 l-98 -4 6 -32 c4 -18 9 -34 11 -36 1 -2 64 0 138 4 l136 7
0 34 0 34 -47 -2 c-27 -1 -92 -4 -146 -5z"/>
<path d="M3310 441 c0 -38 7 -42 69 -34 48 5 51 7 51 34 0 29 -1 29 -60 29
-60 0 -60 0 -60 -29z"/>
<path d="M3195 383 l-61 -4 4 -35 4 -34 127 6 c69 3 132 7 139 10 6 2 12 16
12 32 l0 29 -82 0 c-46 -1 -110 -2 -143 -4z"/>
<path d="M2923 372 l-93 -3 0 -38 c0 -38 0 -38 38 -35 120 10 182 13 217 14
41 0 41 0 37 35 l-4 36 -52 -3 c-28 -2 -93 -4 -143 -6z"/>
</g>
</svg>
