<?xml version="1.0" standalone="no"?>
<!DOCTYPE svg PUBLIC "-//W3C//DTD SVG 1.1//EN" "http://www.w3.org/Graphics/SVG/1.1/DTD/svg11.dtd" >
<svg xmlns="http://www.w3.org/2000/svg">
<metadata></metadata>
<defs>
<font id="pencilpete_fontregular" horiz-adv-x="684" >
<font-face units-per-em="2048" ascent="1638" descent="-410" />
<missing-glyph horiz-adv-x="500" />
<glyph horiz-adv-x="2048" />
<glyph horiz-adv-x="2048" />
<glyph unicode="&#xd;" />
<glyph unicode=" " />
<glyph unicode="," horiz-adv-x="452" d="M367 102q0 -20 -17 -75q-25 -78 -24 -82q-4 0 -17 8q-23 -31 -61 -86q-2 0 -19 14q-27 -25 -36 -47q-4 0 -16.5 11.5t-20.5 15.5q82 195 82 219q0 4 -2.5 29.5t-2.5 52.5v43h62q18 -27 53 -49q19 -11 19 -54z" />
<glyph unicode="." horiz-adv-x="405" d="M289 -37h-15v25h15v-25zM283 94q0 -23 -9 -94q-23 -14 -53 -47q-16 18 -36.5 18t-38 31t-17.5 39q0 43 15.5 57.5t15.5 24.5t-4 29q16 31 51 30q20 0 41.5 -21.5t30.5 -37.5q-6 -8 -19 -27q0 -14 12 -28q11 8 11 26z" />
<glyph unicode="A" horiz-adv-x="1175" d="M141 135h-14v23h14v-23zM1122 43q6 -20 6 -35q0 -27 -57 -49q-53 16 -76 72q-14 43 -30 88q-10 -14 -35 -15q12 20 2 66q-8 6 -25 23q-6 121 23 131q-4 4 -6 9t-6 9q-4 -4 -12.5 -8t-12.5 -8q-43 63 -59 63q-10 0 -8.5 -3t-8.5 -3t-10 4q2 8 0 10q-2 0 -23 -32 q-16 -23 -26 -23t-14.5 8t-14.5 8q-12 0 0 -14q2 0 -27 31l-32 -58q-8 8 -21 9q-10 0 -10 -8.5t-8 -8.5q-10 0 -14.5 12.5t-14.5 12.5q-12 0 -16 -7.5t-6 -7.5q0 27 -5 31q-10 -23 -22 -71q-2 0 -7 8t-16 8q-10 0 -10 -16q-20 6 -57 24q-2 -4 -2 -18.5t-10 -14.5t-8.5 4.5 t-8.5 4.5q-25 0 -4 -21q-4 4 -12 14.5t-12 14.5q-8 -10 4 -23q2 0 -29 31q0 -2 -47 -74q0 16 -10 49q-10 0 -11 -30h-30q-6 2 -7.5 7t-5.5 7q-23 -27 -59 -86q-2 -8 0 -27q4 -23 4 -28q0 -23 -20 -39q4 -4 22 -4q0 -16 -16 -52q-23 -45 -51 -45q-12 0 -25 19l-23 31l-20 81 q0 12 29.5 65.5t35.5 59.5q-16 27 -16 78q0 23 39 58l2 75q-14 0 -20 6q8 29 18 76l10 96q25 8 25 21q0 4 -10 20v33q8 6 45 23q10 27 6 78q-6 61 -4 84q29 6 20 14l17 -12q12 12 12 20q0 6 -41 47q8 8 20 -4q31 4 31 45q0 25 -10 49q33 0 31 0q0 -4 -23 39q4 0 10 -8 t17 -12q20 41 -13 75q8 2 23 13q0 -10 14 -25q4 8 -4 22.5t-8 20.5q0 18 33 33q-8 16 -33 41q16 8 49 25l-8 26q-6 -8 -31 -22v28q33 0 35 4t6 13q6 12 0 49q-12 -16 -39 -55q-6 20 21 55q33 47 37 53q2 133 73 131q55 -2 84 -43t21 -41q10 0 12 2h2q0 -29 -14 -35 q2 -2 1 -10t11 -8t10 4q-4 14 -4 10q41 -57 72 -141q51 -131 63 -160q0 -35 -2 -100q4 -6 11 -6q2 12 12 33l4 -74q4 -55 31 -55q10 0 22 -13q-23 0 -31 -8v-23q6 -6 21 -20l16 16q20 -47 43 -94q31 -70 31 -90q0 -8 -15.5 -24.5t-15.5 -26.5q0 -41 21 -62q4 4 0 21 q-4 25 -4 43q27 0 26 16q8 -72 -12 -98l12 -12l19 14q10 -23 18 -74q16 -18 35 -6q-4 -12 0 -53t-4 -62q33 -41 49 -116q23 -102 27 -115q22 -29 69 -88zM678 1087v54h-14v-54h14zM725 954l-12 4l-11 -20l13 -4zM813 672v53h-14v-53h14zM850 479v29q-18 16 -19 47q0 53 3 49 q-20 0 -27 -6q-6 4 -2 16q4 14 4 15q-2 0 -5 -3t-13 -3q-12 0 -16.5 9t-4.5 11q14 12 14 59q-25 -27 -30 -26q4 12 4 22q0 16 -13 39q-18 29 -22 41q0 8 8 17q-4 16 -22.5 59t-18.5 51q0 16 8 23q0 4 -16 10t-16 15.5t-8.5 49t-8.5 56.5q-35 49 -35 61q0 6 2 13 q-14 -10 -22 -3q16 25 16 64q0 37 -14 43q-41 10 -41 70q-16 47 -35 82q-43 12 -84 -113q-10 -35 -20 -111q-10 -82 -17 -106q-43 -197 -104 -471q0 -6 -10.5 -26.5t-10.5 -29t-7 -69t-7 -92.5q8 4 35 4q8 0 15 -4t18 -4q8 0 14 8t16 8q8 0 23 -16l18 16q20 -8 47 -25 q-2 39 27 39q10 0 14.5 -7t14.5 -7t34.5 19.5t32.5 19.5q16 0 41 -13.5t27 -25.5q6 16 18 47q8 0 27.5 4t28.5 4h22q8 0 55.5 19.5t61.5 21.5zM1001 293q-18 0 -18 16q-14 -14 8 -39q0 9 10 23zM989 172h-14l-8 -37h12zM420 295l-10 24l-11 -6l11 -18h10z" />
<glyph unicode="B" horiz-adv-x="1239" d="M817 18h-14v25h14v-25zM588 -18q0 -4 -12.5 -19.5t-16.5 -21.5q-6 6 -6 20q-2 14 4 21h31zM522 -33h-14v33h14v-33zM748 903h-15v41h15v-41zM545 967q-2 -4 -27 -37q0 39 6 67q0 -2 10.5 -12t10.5 -18zM1030 1362q-8 -25 -29 -74q-18 -6 -39.5 -13t-27.5 -34l-27 27 q-29 -43 -67 -121q-20 -4 -99 -54.5t-77 -50.5q-14 0 -15 -16q-6 0 -22 -10q0 18 -6 26q-16 -16 -50 -51q0 -29 27 -28q10 0 10 5t13 5q12 0 25 -12.5t18 -14.5h20q12 0 17.5 4t7.5 4q0 -2 -21 -43q0 4 -10 19q-23 2 -23 -31q0 12 -18 12q-12 0 -16 -4q4 6 -11 23 q-12 0 -14 -35h-39h-37q-12 0 -12 -18q-8 12 -35 34q-2 -2 -6 -18t-16 -16t-11.5 7t-3.5 11q-12 -14 -43 -35l-16 17q-4 -2 -2 -14.5t-10 -12.5q4 0 -43 4q-31 4 -56 -2q-8 -53 -8 -193q-2 -117 -22 -178l2 -20q2 -16 0 -27q-2 -14 -13 -16v3t0 -1v-12t11 -19q20 -16 24 -20 q-8 -20 -31 -68q6 10 7 31h-21q0 -12 -17.5 -30.5t-17.5 -29.5q0 -10 10 -22q-4 6 -14 0q-6 -8 -6 -14q4 12 -5 36.5t-9 30.5q0 12 14 33q20 31 20 33q6 4 -12 4q-12 0 -12 -8.5t-10 -6.5h-27q39 25 39 64q0 18 -10.5 46t-10.5 32q0 14 10.5 58t10.5 65q0 25 -10 39 q-2 10 24 36q-4 4 -7 15.5t-7 15.5q-4 -4 -9 -17.5t-9 -17.5q2 18 22 70q18 45 18 57q0 10 -17 23.5t-17 15.5l4 25q0 -18 22 -19q8 37 -43 56v32q10 -8 19 -8q6 8 6 17q0 6 -5 18t-5 18q0 18 36 31q-12 100 -18 203l-22 -16q0 6 7 30.5t7 34.5v100q-16 16 -31 2 q14 12 14 31q0 12 -20.5 45t-22.5 45q2 6 15 23v-29q8 -4 24 -14q20 10 21 49q18 23 33 -16q20 0 20 26q4 0 21 -16q8 8 8 35q23 -4 61 -27q23 27 39 25q0 -45 12 -60q6 10 7 51q18 4 43 -2l24 -6q20 0 25 8l6 -16t16 -27q0 4 5 19.5t3 23.5q57 -18 91 -8q12 -25 47 -61 q-37 -8 -66 18q-6 -8 -6 -16q-25 0 -75 -5t-58 -5q-10 0 -21 16q-16 25 -20 29q0 -37 -49 -52q-72 -18 -80 -24q29 -113 29 -273q0 -123 -19 -184q4 -6 7 -13t7 -11q2 0 11.5 13t21.5 13q10 0 8 -4t11 -4q10 0 10 8t10 8q12 0 18.5 -9t10.5 -9q6 31 -2 51l22 21 q-12 -18 8 -19q12 0 13 4q-4 14 -4 11q0 -25 18 -58q20 20 29 47q-4 6 -17 2l-18 -4q16 20 41 33q10 -14 10 -25q0 -4 -2 -8v-8q0 -18 27 -45q23 8 20 41q0 47 4 53q4 -12 23 -43q12 8 12 31q0 -14 8 -21q4 8 2 31q-6 33 -6 45q25 8 33 8q0 -20 -6 -28q6 -10 22 -29h29v37 q-12 10 -35 33q16 6 47 -11q-2 12 29 52q0 -27 23 -27q6 14 18 45q0 -10 8 -18q10 18 8 61l19 -18q4 16 16 51l49 47q43 41 43 80q0 31 -37 35q-47 8 -63 30q-16 -16 -33 -16q-10 0 -25.5 12.5t-27.5 12.5t-23.5 -3.5t-13.5 -3.5v41q6 2 16 2q27 0 86.5 -13t65.5 -13 t25.5 -22.5t29.5 -22.5q12 0 13 18l12 -24q10 -18 24 -19q10 0 8.5 4t8.5 4q31 0 34 -19.5t5 -38.5t26 -19q17 0 33 16zM1022 348q-18 0 -33 31q16 10 25 10q0 -4 4 -20.5t4 -20.5zM852 123h-12l-11 20l13 7zM225 473q-6 -6 -14 0q-10 6 -14 6q0 -23 10 -37q-6 -4 -24.5 6.5 t-18.5 24.5q0 12 41 74q2 -20 -15 -55q12 -3 35 -19zM193 393h-13l-10 21l12 4zM250 254q-6 0 -21 16q-8 -6 -8 -14q0 29 21 29q0 -21 8 -31zM150 227h-13l-10 29l12 6zM827 1245l-10 29h-14l10 -33zM1077 723l-8 8l-31 -29l9 -10zM1034 653v31h-14v-31h14zM1053 485h-15 l-14 -39l12 -4zM227 1245l-12 6l-10 -22l12 -6zM887 236v24h-15v-24h15zM905 207h-14l-10 -41h14zM1143 584q-10 12 -33 47q-2 20 10 35q-2 14 -22 98q-23 -23 -23 -2q-8 6 -31 53q0 -27 -14 -27q-10 16 -8 54q-23 -14 -61 -35q4 12 -17 59q-4 14 -180 70q6 -8 18 -37 q8 -20 29 -31q27 27 23 27q14 -18 57 -49q90 -63 102.5 -120.5t12.5 -174.5q0 -18 -28 -100t-42 -101q31 -12 31 -43q0 -4 -9 -47q-6 20 -20 53q-37 -25 -123 -110l12 2q10 2 15 0q8 -4 8 -15q0 -6 -23 -24l-20 16q-20 -14 -115 -86q-70 -53 -82 -53q-10 0 -8 5t-8 5 q-2 0 -63.5 -34.5t-63.5 -34.5q-10 0 -23.5 8t-23.5 8q-51 0 -96 -23q-8 -20 -15 -20q-27 25 -35 25q-2 8 -10 79q-4 47 -41 50q0 23 17 55q2 -4 24 -62q-16 47 -45 132q0 -8 -14.5 -27t-14.5 -31q0 -16 17 -51l-17 -14q-6 -8 -22 -43q-31 72 -62 104q18 -94 19 -86 q0 8 18 8t13 -6q-4 -12 -4 -38.5t-5 -41.5q6 0 12.5 11.5t8.5 13.5q12 -25 -4 -39q31 -23 45 -64h240q0 35 12 35v-43q2 0 13 8.5t24 8.5q12 0 7 -9.5t7 -9.5q10 0 8 4t8 4t10.5 -8t12.5 -8t27.5 10t19.5 10q-8 8 14 31q2 0 3 -8t14 -8q10 0 14 8t15.5 8t15.5 16.5t6 18.5 l14 -14q0 -4 -4 -14.5t-4 -14.5q18 12 31 0q-2 43 33 78q4 -2 9 -13.5t11 -11.5q4 12 16.5 34t16.5 34q16 -16 28 -17q0 20 15 35l20 -18q31 6 46.5 42t19.5 36l18 -9q27 0 43 43q14 -8 31 7q-10 4 -19.5 23.5t-15.5 27.5q6 10 21 31q4 -4 9 -13.5t9 -13.5v35q27 0 31 4 q-18 16 -12 22h45q2 39 6 76t28 47q10 23 7 45q-6 35 -7 31q-4 0 -6 -4t-14 -4q-20 0 -4 12q16 16 16 21q-20 18 -18 22t-7.5 16.5t-9.5 16.5l21 24q2 -18 10 -43q11 11 29 11zM653 18l-12 27l-12 -6l12 -21h12zM227 340v33h-14v-33h14zM150 410l-11 34l-12 -6l10 -28h13z M209 227l-8 11l-39 -39l8 -11zM150 184l-11 25l-12 -4l10 -21h13zM238 53v33h-17v-33h17z" />
<glyph unicode="C" horiz-adv-x="1110" d="M213 371q-2 0 -5 8t-15 8t-15.5 -4t-5.5 -4q0 2 -4 18.5t-4 32.5q37 -18 49 -59zM328 240q0 -8 -7.5 -24.5t-3.5 -25.5q-4 0 -20 -5t-21 -5q0 12 33 47q-12 12 -20 4q-8 6 -8 23q0 18 8 12q6 6 22.5 -3t16.5 -23zM1038 252q0 4 -26.5 -64.5t-26.5 -93.5q-16 -4 -33 -8 q-20 -10 -18 -43q-4 -2 -23.5 -15.5t-31.5 -13.5q-10 0 -27 17q-6 -4 -23 -60q-6 0 -17 -4t-15 -4q2 10 -15 43q-23 -27 -53 -78q2 14 -33 52q-6 -6 -2 -19l4 -16l-39 35q-12 -12 -43 -35q0 10 -16 26q-39 -20 -39 -12q10 6 10 23q2 0 -14 14q-10 -23 -35 -51q-18 12 -43 43 q-6 -8 -6 -17h-29q-14 0 -59 45t-74 43q0 31 6 37q-4 6 -16 2q-14 -6 -16 -6l2 19q0 12 -6 12t-13 -4q-2 8 6 47l-14 14q-20 2 -31 -18q14 27 -10 51q-16 -16 -20 -16q-4 31 -4 90q-18 31 -36 64.5t-18 58.5q0 20 13 34v33q-12 4 -35 17v100q2 0 15 -4t30 -4v65q-8 6 -41 33 q-16 10 -10 33q16 -6 29.5 -21.5t23.5 -29.5q14 8 14 39v65q-6 0 -22 16q-25 -25 -29 -24q0 4 4 10t6 10q-2 29 14.5 69t16.5 48t-8 14q10 0 53 27q0 31 -35 31q20 23 39 92q0 -18 17 -35q6 14 36 51q14 72 68 162q33 12 86 49l18 -18q2 6 9 31q4 18 10 12q121 51 135 121 q37 -2 74 10l16 -19l14 19q59 4 80 -4q10 -4 28.5 -21.5t29.5 -17.5q10 0 10 16q23 -23 59 -73q-4 -4 -4 -11q0 -12 15 -32q25 -35 24 -37q2 -12 13.5 -58.5t11.5 -60.5v-64q-20 0 -21 -8q0 -10 13 -33q-12 -14 -13 -22q-2 6 -12 18q-6 0 -51 -43q0 2 -37 21q27 18 26 43 q2 6 -6 14q-6 -8 -16 -8l-4 4q0 16 -4 21q-16 -14 -21 -15q4 10 51 45q-18 8 -51 27q0 31 -8 94q-14 31 -31 92q-16 0 -56 8.5t-50 8.5q-8 0 -42 -35t-44 -35q-12 0 -14.5 8t-4.5 10q-35 -25 -34 -57q0 14 -9 23q-6 -6 -6 -43q-8 10 -16 10q10 -41 -46 -59.5t-56 -43.5 q0 -12 6 -28q-4 4 -10.5 12t-10.5 12q-6 -2 -24 -43q0 10 -9 19q-4 -43 -4 -45q-4 -18 -27.5 -56t-29.5 -38q-12 0 -12 9t-2 9q-2 -14 -4 -27q0 -12 14 -22q-16 -14 -43 -37q0 -39 -14.5 -51.5t-30.5 -24.5q27 -27 43 -22q0 -49 -8 -64q16 -16 26 -16q-27 -25 -26 -39 q-10 -10 -7 -35q6 -35 7 -37q-6 0 -23 17q-4 4 -12 -5q10 -25 35 -67q0 -16 16 -17q0 -96 27 -145q-14 4 -39 27q-4 -4 -10.5 -15.5t-10.5 -15.5q14 -14 39 -66q25 27 25 52q43 -98 43 -150q23 -23 54 -71l30 -48q12 0 17 4.5t7 4.5q0 -4 -4 -13.5t-4 -13.5q8 -2 19 -6 q12 0 22 16q0 -2 -2 -18q0 -12 2 -18.5t12 -6.5q12 0 17.5 3t7.5 3q0 -18 22 -41l19 17q29 -16 86 -17q39 0 126 60.5t83 60.5q8 0 16 -8q35 41 76 102q20 0 31 11q0 -18 6 -27q14 23 53 61q12 -2 12 -22zM182 801l-10 -8l-29 30l9 8zM434 1178v41h-14v-41h14zM270 1055h-16 l-8 -60h14zM250 909l-39 19l-6 -13l41 -18zM113 623v41h-15v-41h15z" />
<glyph unicode="D" horiz-adv-x="1177" d="M309 387h-10l-12 21l12 4zM283 371q-4 0 -14.5 -5.5t-22.5 -5.5t-12.5 9.5t-2.5 9.5l15 -10q25 12 37 2zM236 266l-21 -30l-10 8l18 30zM451 6h-13l-10 21l10 4zM201 143l-6 -12l-23 10l4 13zM182 25q-4 -4 -15 -18.5t-15 -18.5q0 4 -5.5 19.5t-5.5 19.5q6 6 21 6 q14 0 20 -8zM1020 1102q-18 6 -41 -4l12 35q15 -31 29 -31zM932 1180l-12 -6l-11 34h15zM1030 1028h-12l-8 21l10 6zM995 565q-23 -6 -45 -6q-12 0 -20 2h-8l36 60q10 -25 37 -56zM195 1389l-13 -23l-12 4l10 23zM106 1393q-6 8 -22 10q-12 4 -12 -2q4 18 -4 37 q-16 6 -17 14q35 0 35 10q4 -23 -4 -39q16 -7 24 -30zM956 500h-14v22h14v-22zM356 1475q-12 -18 -41 -45q8 -6 25 -15q-10 -31 -57 -82l6 -80q12 12 12 25q12 -8 21 -8q0 -8 -11.5 -26.5t-11.5 -26.5q6 -8 23 2v-113q-27 0 -31 -4q8 -8 33 -25q0 -49 -25 -49q-18 0 -18 -12 q20 -10 51 -8l-23 -23q-18 20 -37 4q18 -16 19 -24q6 4 -43 4q0 -12 16 -29q2 -4 -5 -28.5t-1 -39.5q-4 0 -20.5 16.5t-24.5 16.5q-12 0 -15 -2t-8 -2q8 8 16.5 19.5t20.5 11.5q6 0 17 -8q0 20 -6.5 24t-4.5 15q6 2 11 30q6 31 -2 51q18 -6 41 7q-12 12 -27 12h-20 q-8 2 -13 2q18 51 19 82q8 4 24.5 0t24.5 0q-41 96 -41 131q0 31 14 51q0 2 -7 10.5t-11 18.5q-14 -29 -43 -43q-33 18 -53 71q-8 31 -19 62q0 18 21 39q6 0 11 -11.5t7 -13.5q-2 8 16 8q31 0 74 35q4 -14 19 -43q4 8 15 25.5t15 25.5q8 -4 23.5 -19t23.5 -19zM1077 807 q0 -12 -8 -26.5t-12 -22.5q0 16 -21 45q-8 6 -8 -15q0 -10 16.5 -38.5t16.5 -38.5t-14 -27q-25 -23 -27 -27q0 -8 16 -16q-20 -43 -8 -80q-16 -12 -57 -33q8 -6 16 -6q-10 -20 -39 -53q2 -10 -2 -39q-2 -2 -24 -33q-18 -20 -31 -20q-10 0 -14.5 5t-6.5 5q-6 -51 -41 -94 q-57 -68 -63 -78q-8 0 -28.5 -10t-35.5 -12q2 -8 3 -17q0 -29 -18.5 -52.5t-41.5 -14.5q-8 -8 6 -23q-2 2 -4 2q-10 0 -10 -22q0 8 -21 8q-12 0 -12 -27l-20 19l-23 -27l-43 43q-25 -10 -24 -37q0 -10 5 -30.5t5 -26.5q0 8 -19 8q-10 0 -6 -9.5t-6 -9.5q-12 0 -51 19 q-45 23 -60 24q-10 -20 -16 -40q-20 -37 -43 -37q-10 0 -6 9t-6 9q-12 0 -29 -18q-37 14 -37 59q0 12 6 23q-2 4 -14 10t-16 10q6 0 19 7t24 3q2 25 20 49q-14 16 -28 5q-14 14 -11 47q-4 8 -24 45q-18 29 -19 41q0 23 17.5 56.5t27.5 35.5q8 0 27 -19q2 2 3 18.5t11 16.5 q12 0 17.5 -4t7.5 -4q4 4 4 13.5t4 13.5q-4 -2 5 -13.5t9 -21.5q0 -27 -30 -62q6 31 0 43q-16 -16 -23 -51q-4 -31 2 -51q2 0 -20 25q-4 0 -11.5 -8.5t-11.5 -8.5l-12 -12q20 -12 29 -33q12 2 59 53q2 14 2 -41q-8 0 -16 -8q51 -115 65 -114q12 0 51 15t52 17l26 27 q10 0 25 -35q39 59 39 86q12 0 28 -16q47 94 105 149q47 63 168 187q0 37 32 120q29 76 54 113q0 6 -10.5 9t-14.5 7q33 31 33 74q0 213 -186 512q-2 -4 -6.5 -17.5t-8.5 -17.5q-66 29 -127 80v33q-12 -27 -12 -33h-25q-4 2 -10 4q2 8 0 13q-6 -6 -6 -25q16 -2 -66 -2 q-10 0 -14 13.5t-14 13.5q-12 0 -17.5 -9.5t-15.5 -9.5t-13 13.5t-14 13.5q2 0 -45 -25q20 20 31 82q6 47 37 47q12 0 41 -30q-4 -4 -13.5 -9.5t-13.5 -9.5q0 -12 31 -12q10 0 18 -4q6 -2 11 2q0 20 -25 33q27 0 27 12q-4 -10 12 -43q16 16 59 51q0 -2 -10 -15.5t-14 -21.5 q12 -6 47 -6q16 0 16 23q0 -4 41 -48q12 14 4 27q8 -18 25.5 -26.5t30.5 -14.5q27 -35 41 -74q31 0 30 35h29q0 -23 17.5 -46t29.5 -23q10 0 10 5t13 5q10 0 12 -10v-9l27 17q0 -14 -17 -29q16 -16 45 -76q25 -51 35 -51l14 -10l-14 10q-8 -8 -8 -16q-12 33 -33 43 q-4 -4 -7 -10.5t-7 -12.5q4 -2 17 -12t18 -14q-25 0 -31 6q-4 -4 -4 -35q0 -53 43 -45l-17 -21q53 -37 70 -73l12 14v31q-27 18 -49 18q18 35 19 55h38q-18 -20 -14 -34q18 -27 21 -97q4 -63 -7 -77q33 -29 33 -70zM242 913l-25 -10v12l21 11zM231 702h-22v17h22v-17z M758 1376v23h-15v-23h15zM889 1225l-21 22l-8 -10l21 -20zM825 1300l-14 7l-10 -23l12 -6zM834 1255v23h-17v-23h17zM973 969v22h-15v-22h15zM1016 881v32h-15v-32h15zM1040 829l-12 35l-12 -6l10 -29h14zM1008 856l-13 33l-12 -4l10 -29h15zM989 778l-10 25l-10 -4l8 -21 h12zM995 756q-12 0 -30 20q0 -43 12 -61q4 16 18 41zM258 1378q0 8 -2 27v20q-35 -33 -33 -49q17 -16 35 2zM336 1300l-14 7l-11 -23l13 -6zM285 1272v22h-15v-22h15zM231 1051q-16 0 -38 -25v-33q12 0 28 -16q-16 39 -6 59q6 1 16 15zM203 885l-13 4l-12 -23l12 -4z M332 938q-10 0 -17.5 12.5t-13.5 16.5q0 -12 -4 -34t-4 -36q-16 0 -27 8q6 -14 6 -24q0 -16 -16 -21h-33q6 -14 25 -29q23 -20 26 -22q-14 -2 -28.5 -14.5t-22.5 -12.5q4 -4 17.5 -14t17.5 -14q-10 -10 -14 -29q-8 -25 -11 -29h-43q29 -20 68 -61q-23 -8 -22 -45 q0 -12 4 -44t2 -46q18 -8 23 -29.5t18 -28.5q-18 0 -41 -8q0 -23 20 -22q6 25 33 73q20 39 20 78q0 12 -16 41q-25 37 -27 37q16 14 17 23l-21 -19q-10 14 -10 29q20 25 21 59q8 -6 34 -6q-8 16 -8 31q0 8 7 20.5t7 18.5q0 -12 -14 -13q-6 0 -8 13q-2 8 0 26q2 27 2 29 q-8 0 -16 6q16 0 22 27q7 35 27 53zM221 414q0 39 -6 49q-6 0 -13 -14.5t-12 -16.5q4 0 15.5 -9t15.5 -9z" />
<glyph unicode="E" horiz-adv-x="1089" d="M1022 1427q0 -2 -31 -63q0 18 -16 35q-4 -8 -12.5 -29.5t-12.5 -30.5q-6 4 -18 18.5t-25 14.5q-12 0 -10 -4q4 -14 4 -12l-20 18q-6 0 -15 8q-4 -4 -9 -16t-9 -18q2 10 6 20q4 14 -10 14q-10 0 -6 -9t-7 -9q-10 0 -3.5 9t-4.5 9q-2 0 -24.5 -17t-24.5 -17q-12 0 -14 12 t-4 14q-12 0 -13 -24q-8 0 -25.5 -5.5t-27.5 -5.5t-13 8.5t-13 8.5q-6 0 -50.5 -12.5t-66.5 -12.5q-135 0 -170 -16.5t-41 -85.5q-10 -111 -21 -221q0 -41 9 -240q35 -8 118 -8q10 0 8.5 9t8.5 9t16 4t16.5 4t23.5 4.5t24 4.5q8 0 23.5 -8.5t25.5 -8.5q8 0 22.5 12.5 t24.5 12.5q12 0 37 -25q31 41 159 41q18 0 50 -15.5t39 -35.5q31 0 49 16v-39q-35 -35 -45 -34q-16 0 -33 16q-10 -10 4 -22q-27 0 -37 22q-6 -8 -6 -16q-20 0 -37 32q-18 -29 -43 -41q0 18 -8 25q-4 -2 -20.5 -19.5t-34.5 -17.5q-8 0 -19 4l-28 -24q4 16 -7 41 q-31 -16 -59 -33q-51 -27 -82 -27q-12 0 -14 8.5t-13 8.5q-10 0 -16 -12.5t-16 -12.5t-11 8v0q0 8 -10 8t-36.5 -16t-35.5 -16q-10 0 -10 12v0q0 12 -10 12q-12 0 -7 -8t-7 -8q-10 0 -9 4q4 8 0 12q-25 -27 -22 -53q6 -88 0 -195q-6 -86 -12 -170q0 -18 -9.5 -74.5 t-9.5 -64.5q0 -27 29 -55q8 25 108 24q10 0 29 -12t27 -12q12 0 12 4v8q18 4 109 4q8 0 75.5 -4t92.5 -4q6 0 71 14q-12 -12 -8 -41q4 -18 8 -38q-23 -6 -41 -7q-16 0 -29.5 6.5t-17.5 6.5q-8 0 -29.5 -8.5t-33.5 -8.5q-10 0 -8 8.5t-9 8.5h-53q-12 0 -56 -16.5t-55 -16.5 q-25 0 -108 41q-8 -6 -8 -25q0 4 -9 17q-6 -6 -6 -17h-41q-4 4 -10 6q2 8 0 11q-8 -12 -24 -41q-23 8 -67 34.5t-64 34.5q16 59 16 74q0 20 -10 37q6 4 18 13.5t16 13.5q2 6 -32 22q4 10 10 143q6 -8 20 -12q14 -2 15 4q0 -29 2 -28q14 0 26 12q-16 29 -22 74q-2 14 -16 18 q0 8 20 150q-35 74 -47 73q-12 0 -12 -16q-49 43 -123 121q4 4 37 4q12 0 18 8t14 8l21 17q0 -8 24 -33q25 8 43 49q33 68 35 74q2 20 -24 22q2 6 12 23l16 -17q0 -2 2 -2q0 -2 2 2v13q0 10 -9 16t-13 12q-10 0 12 25q-6 -10 -6 -18q2 -6 10 -7q12 20 -8 45v97q2 0 19 -15 q8 27 30 78q-8 4 -20.5 -3t-20.5 -7q-10 0 -10 20q0 8 35 60v47l-14 14q-12 -6 -21 -6q35 33 35 66q0 20 -39 55q-31 29 -53 37l-19 22q10 8 19 19q18 16 37 16q10 0 12 -8t12 -8t12 8t13 8q12 0 14 -8q2 -14 4 -16q23 0 23 24q4 -4 14 -12t14 -12q-2 0 25 24l10 -15t19 -9 q10 0 64 12t65 12q12 0 18 -8t16 -8q8 0 21.5 8t24 8t120 5t119.5 5q8 0 27 -18q49 35 73 35q10 0 6.5 -8.5t6.5 -8.5q12 0 12 8.5t10 8.5t32 -9.5t30 -9.5q0 -2 5 -13.5t5 -23.5zM227 694l-10 33l-12 -4l8 -29h14z" />
<glyph unicode="F" horiz-adv-x="948" d="M926 1436q-4 -2 -10.5 -17.5t-8.5 -19.5q-18 25 -47 24q-8 -10 -22 -30h-27q-4 8 -14 22q-33 -31 -56 -31q-10 0 -4 7.5t-4 7.5t-17 -3t-9 -3q0 25 -5 30q-10 -8 -22 -30q-102 0 -260 14l-17 -14q-35 -2 -102 0q-8 -12 -8 -37q0 -16 5 -48t3 -42q-10 10 -20 2 q18 -35 38 -43q-10 -20 -38 -35q4 -4 22 -4v-37q-16 -2 -23.5 -36t-23.5 -42q8 -10 33 -29q-18 -12 -21 -67q-2 -61 -4 -66q-18 -14 -6 -57q-6 -29 -2 -33h-23l5 -57q12 12 12 22q14 -10 22 -10q-4 -4 -8 -11t-8 -11q23 -6 123 -7q8 0 21.5 7.5t21.5 7.5q0 -18 12 -45l4 43 q0 10 2 20q4 -4 9.5 -12t9.5 -12q23 0 22 20q0 -6 -3 -28.5t-3 -38.5q4 2 29 77q4 -10 20 -30q8 4 4 10l-4 10q18 18 35 19q20 0 33 -23l14 14q4 0 17.5 -4t17.5 -4q0 -16 10 -26q-27 -27 -26 -27q-4 4 2 10q-4 4 -10.5 6t-8.5 6q-14 -14 -14 -30l-19 16q-2 -20 -14 -55h-29 q0 12 17 26q-6 10 -27 29q0 -20 -8 -63q-2 4 -10 14q-14 -6 -47 -23q-16 16 -17 31q-18 -12 -12 -45q-20 10 -53 -8q4 4 16 9t15 9q-2 4 -44 4q-8 0 -7 4.5t-7 4.5q-14 0 -14 -31q-12 0 -40 3t-38 3q-27 0 -27 -49q0 -43 11 -59q-8 8 -17 8q-4 -29 0 -76q6 -61 6 -80 q0 12 -10 10q-4 -2 -10 -4q0 -18 22 -18q0 -37 -30 -37l6 -25q12 6 31 31q0 -12 5 -27.5t5 -21.5q0 -14 -23 -27v-114l13 -15q8 4 8 13q0 -2 5 -10.5t5 -20.5v-43q-16 0 -31 -15l6 -34q8 12 33 30v-34q2 -39 -26 -82q0 4 -9 16l-34 -31q8 10 8 17q-4 4 -13 2q-12 -4 -20 -4 q-12 0 -53 61l18 -14q20 20 21 24h-39q0 12 14 27q-4 8 -12 24.5t-13 24.5q8 4 16.5 12.5t16.5 12.5q0 8 -8 6q-18 -4 -14 -4q4 12 8 22q8 18 0 33q-18 0 -19 154q14 14 50 41q0 10 -31 26v37q16 -2 29 12q-25 25 -39 56q-2 12 24 24q-4 8 -20.5 12.5t-18.5 10.5q0 2 5.5 15 t17.5 13t14 -4t4 -4l13 13q-31 31 -39 47l16 14q-14 0 -17 3t-5 3q10 20 30 64q-18 -4 -26.5 -17.5t-12.5 -15.5q16 47 17 69q12 0 26 -14l11 10q-27 25 -39 50q4 4 16 11t16 11q-6 4 -24 4v101q18 18 18 24q-6 -119 -22 -483q2 12 2 26q16 236 31 443q4 0 7 7t7 7q2 0 8 -2 t8 0q4 2 4 10q0 43 -47 84q12 4 39 17q-4 6 -17.5 14t-13.5 16q0 2 33 2l6 138q-35 20 -36 106q-4 94 -35 125q10 0 51 43q2 -2 12 -16.5t19 -24.5q16 31 16 47l4 -16q6 -14 18.5 -14.5t20.5 -8.5t10 -8q0 16 -5 26l-5 11q0 10 29 10q10 0 8 -4q-4 -8 0 -10q2 2 7 16.5 t9 14.5q8 -8 39 -9q8 0 22.5 4.5t24.5 4.5t19.5 -4.5t19.5 -4.5t83 -4t82 -4t8 -7t7 -7q10 0 6 7t7 7q12 0 15 -10t5 -12q20 23 39 22q29 0 55 -39q4 4 19 27q10 12 20 12q41 0 66 -39q14 0 31 17q0 -25 8 -33q8 0 23.5 -5t17.5 -5zM752 1442q-20 18 -60 45q-14 -31 -14 -43 q0 4 16 18q14 -31 33 -39q0 25 4 25q9 -8 21 -6zM662 1425v21h-15v-21h15zM500 1458q0 8 -29 35v-25q-20 0 -20 15q0 -10 2 -25.5t2 -17.5q20 6 45 18zM299 1444l-12 4l-8 -21l10 -4zM252 1260v20h-14v-20h14zM252 928v22h-14v-22h14zM205 817v31h-15v-31h15zM158 868l-13 4 l-10 -20l12 -4zM289 707l-4 10l-19 -8v-13zM180 39v29h-12v-29h12z" />
<glyph unicode="G" horiz-adv-x="1132" d="M877 160h-15v84h15v-84zM829 174l-10 -31l-10 4l8 27h12zM1032 596q-4 -4 -16 -12.5t-17 -10.5q6 -8 23 2l10 -98q-4 -4 -12 -8t-12 -8q6 -16 6 -19q0 -4 -19 -22l-18 20q23 10 24 19v30q-25 -18 -40 -67v-45q6 -6 30 -6l-10 -47q2 8 -10 32q-8 -6 -8 -2q2 -35 6 -67 q-29 -12 -43 -76q-14 -72 -41 -98q0 25 -6 30q-6 -25 -13 -49q-12 -45 -24.5 -45t-28.5 -16q0 16 14 28q0 14 -12 27q-16 -14 -31 -76q-98 -74 -122 -73q-10 0 -6.5 8t-6.5 8t-13 -7t-5 -7q2 8 -15 36q-6 -14 -34 -38l-19 16l-33 -16q-8 10 -26 10q6 16 -4 37 q-14 -12 -15 -31q-14 6 -41 6q-49 0 -146 79t-89 79q-10 0 -19 -6q0 20 -53 82q-33 35 -33 94q-12 25 -32 73q10 0 30 21q-6 6 -6 12t6 13q-23 23 -22 18q2 0 10 -3t21 -3q14 0 30 35l-12 12q-4 -4 -16.5 -8t-16.5 -8q10 29 54 59q-25 12 -52 12q-12 0 -16 -8l-8 -16 q4 33 20 88q16 49 17 69q0 27 -33 43q27 35 22 88q4 16 23 39q-2 25 -6 47q0 35 16 35l19 -8q2 37 -7 43q6 8 7 51q2 -2 5 -20.5t13 -18.5h14h6q23 37 -8 109q23 0 25 27q8 51 8 53q4 0 16 -8q14 18 20.5 39.5t12.5 31.5q0 -18 6 -24q2 12 -3 32.5t-5 22.5q8 -4 31 -14 q6 12 6 20q0 10 -8 24.5t-8 20.5q0 12 45 56.5t45 58.5q-2 -8 16 -8q12 0 48 27.5t44 52.5q14 0 26.5 -4.5t14.5 -4.5q10 23 33 56q23 -16 35 -17q12 0 16 6.5t10 10.5q80 0 154 -25q0 -35 2 -35q66 -41 129 -82q57 -49 60 -163q-74 0 -122 105t-120 105h-21 q-147 0 -268 -151q-96 -123 -156 -309q-51 -162 -41 -244q4 -33 -28 -96v-248q27 -8 39 -74q14 -86 18 -92q18 -20 49 -59q6 -20 17 -66q16 -4 40.5 -21.5t28.5 -17.5q16 0 25 8q4 -4 8 -16t8 -16q14 4 45 -23q25 23 45 23q8 0 8.5 -4.5t10.5 -4.5q88 0 198 158 q104 143 105 221q0 14 -8 21q18 10 25 63t32 66l14 12q-14 8 -14 29v18q2 12 2 19q0 12 -8 16q-33 10 -43 55q-12 57 -27 72q-6 -8 -6 -16q-10 4 -30.5 21t-30.5 17t-11 -4v0q0 -4 -10 -4q-4 0 -51 25q0 -14 -16 -47q-12 4 -32 12t-32 12q-20 -33 10 -34q-20 -25 -51 -72 q8 -12 -10 -43q6 8 6 16q-2 6 -10 6q0 -18 -12 -59q18 -29 18 -47q0 -14 -13.5 -24.5t-13.5 -14.5q0 -6 13 -37l16 16q-4 -8 -10 -16q-6 -14 0 -53q-10 14 8 14q12 0 20 31q14 6 43 8q25 -23 29 -22v36q39 14 31 23q-2 0 18 -21q10 12 35 31v-59q-4 -12 -26 -33 q-31 -29 -39 -41q0 4 -9 16q-6 -2 -20 -17t-27 -15q-10 0 -8 7t-2 9h-27q-12 -2 -26 -16q10 16 -8 16q-8 0 -43 29q-49 39 -60 47q-4 57 -35 117v26h31l-14 -49l12 -12q18 23 12 67q16 14 13 52l-4 57q10 12 24 41q-6 23 -18 22q2 0 30 23v-2q0 -2 -8 -12q0 -12 29 -35 q23 41 39 108q33 12 61 41q2 0 9.5 -15t15.5 -15t8 14q12 -18 33 -64q12 10 22.5 32t16.5 24l16 -15l16 15q0 -25 7 -31q10 12 34 31q0 -29 29 -70q6 6 6 31q4 -4 16.5 -11.5t16.5 -11.5l18 15q-2 -55 18.5 -55.5t35.5 -47.5l14 17q41 -14 57 -58q33 -92 35 -96zM932 604 l-10 4l-11 -20l11 -4zM676 420q-2 2 -2 39q-2 -4 -9.5 -14.5t-11.5 -14.5q9 -8 23 -10zM104 369l-10 4l-10 -21l10 -4zM160 248v37h-15v-37h15z" />
<glyph unicode="H" horiz-adv-x="1138" d="M172 1227h-12v30h12v-30zM1036 1444q0 -16 -22 -144q-25 -141 -43 -206q-2 -80 -4 -158q-4 -96 -25 -156q0 -2 5 -7t5 -17v-37q-14 0 -45 -14q2 -2 6.5 -15.5t12.5 -23.5q16 16 16 18q0 -53 -22 -170q0 4 -9 16q-14 -6 -34 -36q12 -8 53 -9q-16 -10 -17 -65q0 -18 5 -88 q4 -59 2 -94q0 -8 -9.5 -40t-9.5 -48q0 -39 29 -123q-12 -6 -33 -29l-23 25q-8 -18 -30 -41q-8 12 -31 41l-22 -25q-33 18 -33 47q0 2 9 25.5t15 83.5q6 0 21 10v291l-21 -9q-2 8 2 24.5t4 25.5q0 25 -26 43q-10 0 -29 -17q-10 0 -26 35q-23 -25 -19 -41q-4 0 -16.5 -5 t-14.5 -5l-18 16q-33 -25 -104 -67q-8 14 -29 43q-6 -23 -41 -60q0 16 -8 17q-10 0 -30.5 -12.5t-31.5 -12.5q-8 0 -12 8t-14 8q-6 0 -14.5 -13t-18.5 -13t-16.5 5t-8.5 5q-29 -63 -28 -63q0 -8 10 -58.5t10 -68.5q0 -12 -6 -60.5t-4 -75.5q0 -14 10 -55t10 -51 q0 -16 -18.5 -44t-32.5 -32q-2 4 -16 60q-10 0 -10 -27q-35 57 -35 86q0 10 14 50t14 50q0 6 -20 37q6 43 -10 119q-14 10 -41 31q0 25 -2 49q-2 43 -17 43q-8 0 -8 -4t-10 -4q-8 0 -21.5 25.5t-23.5 25.5l-33 -6q4 4 8 15t8 15q23 -8 80 -8q20 0 35 45q10 33 10 49 q0 23 -20 39q0 45 8 133q-4 27 -14 78q20 37 20 58q0 12 -22 18q0 -2 22 76q-8 8 -22 -4q23 70 6 90q16 0 22 8q0 16 -2 21q-4 -2 -10 -13v29q14 -16 23 -16q6 6 6 20q0 18 -15.5 32.5t-15.5 22.5q0 -4 27 99q-6 25 -11 67v78q39 16 80 0q14 -109 15 -336v-309 q0 -8 -6.5 -31.5t-6.5 -36.5v-168q4 -6 27 -6h18q8 0 8.5 -4t10.5 -4l34 26q33 25 64 25q8 0 23.5 -4t25.5 -4t18.5 11.5t10.5 11.5q0 -25 12 -50q4 20 15 60q4 -8 14 -25q6 12 11 26.5t15 14.5t8.5 -4t8.5 -4t10 23q0 -14 23 -15q8 0 16 4t18 4t13.5 -5t7.5 -11q4 0 18 33 q2 0 14.5 -3t22.5 -3t16.5 4t8.5 4l14 16q47 18 47 56q0 14 -8 39.5t-8 33.5q0 25 35 29q-20 55 -21 53q16 -4 47 -24q8 14 7 42.5t2.5 32.5t9.5 7q-4 4 -21 4q2 20 7.5 40.5t21.5 22.5q-10 16 -6 57t-4 58q-14 18 -35 53q14 10 33.5 47t19.5 53q0 10 -31 78q8 10 31 35v47 q-10 6 -27 41q0 -10 21 -10q10 23 0 43q-2 -4 -10 -8t-13 -9v109l17 -16q2 4 1 10t12 6t42 16q0 -16 6 -24q2 0 10.5 9t18.5 9q57 0 57 -145zM195 143h-11l-10 21l12 4zM954 1522l-8 24l-10 -4l8 -20h10zM969 1460l-4 13l-19 -11v-12zM1001 1434h-12l-8 -27l10 -6zM985 1364 l-10 4l-10 -20l10 -7zM926 1260v30h-15v-30h15zM883 725v66q-6 4 -14.5 15t-12.5 11q-10 -53 2 -92q15 12 25 0zM844 418l-19 31l-10 -9l19 -30zM707 586l-11 4l-10 -21l10 -6zM201 1030l-4 10l-19 -10v-12zM211 946l-10 25l-11 -4l9 -21h12zM836 227v31h-15v-31h15z M211 913l-10 25l-11 -4l9 -21h12zM467 516v23h-14v-23h14zM217 362v23h-12v-23h12zM240 283l-19 22l-8 -10l18 -21zM203 311v23h-13v-23h13z" />
<glyph unicode="I" horiz-adv-x="446" d="M250 209l-8 -21l-13 5l11 20zM176 123h-14l-8 43h14zM205 1362l-8 -29l-13 4l11 25h10zM289 1483l-19 -662q0 -23 -14 -34t-31 -21q4 -4 6 -10t7 -8q23 23 22 22q2 -88 -10 -117q6 -12 8 -30q0 -12 -3 -35t-3 -27l9 -13t9 -24q0 -119 -30 -174q0 -14 20 -26 q0 -102 8 -168t8 -82v-94q-4 4 -11 -2.5t-17 -6.5t-8 7.5t-7 7.5q-10 0 -12 -7.5t-10 -7.5q-12 0 -11 6.5t-1 8.5q-4 -4 -7.5 -11.5t-7.5 -11.5q-18 23 -71 39v43q27 -6 37 0q-4 18 -37 35q16 33 57 102q10 18 10 64q0 14 -6 21t-12 1q4 6 4 27q8 0 16 2q0 2 -13 13.5 t-15 15.5q-12 -14 -19 -15q18 27 33 88q0 -2 8 -14q18 18 41 66v20q-10 10 -16 6q-12 -20 -49 -47l-9 29q16 6 17 26q0 12 -10 23q0 2 22 24q-10 12 -29 41q4 -4 9.5 -11t7.5 -11q12 25 12 49q0 8 -8 26.5t-8 26.5q-8 55 0 88q-16 20 -17 41q0 23 19 23q-16 -16 -17 -29 q6 0 21 -14q4 4 7 15t7 16q-2 -10 12 -11q0 8 -10 39t-10 62l16 -17q4 4 9.5 6t9.5 7q-6 25 -25 71q-8 0 10 19q-18 20 -34 30q-4 2 -4 23q0 8 8 25.5t10 27.5q14 4 43 17q0 2 -7 8t-7 14q10 -8 20 -2q-29 31 -29 59q0 10 5.5 19.5t5.5 11.5q0 -12 8 -18q18 18 18 78 q0 6 -8 13t-8 13q0 10 14 27q-2 18 -8 51q-4 6 -27 6q0 10 15 25q-6 6 -15 6v88q23 0 23 8q23 0 22 -18q1 2 56 2zM266 1450l-12 4l-8 -18l10 -4zM242 1049l-9 8l-18 -19l8 -8zM195 1032q-4 0 -14.5 3t-14.5 3q4 -4 -2 -18t-6 -16q10 0 26 -17zM236 967l-9 8l-26 -27l8 -8z M213 623l-10 4l-10 -19l10 -6zM217 543v51h-29q0 -2 -4 -6t-4 -15q0 -12 12.5 -18t24.5 -12zM240 299v12l-35 11v-15zM205 236v28h-12v-28h12z" />
<glyph unicode="J" horiz-adv-x="1085" d="M842 287l-13 -25l-10 4l12 25zM809 285q-4 2 -9 11t-9 13q10 10 18 10q18 1 0 -34zM719 129h-12l-5 47h13zM575 14q-6 0 -23 4.5t-24 4.5q0 20 39 40q0 -27 -12 -32q20 -21 20 -17zM150 268q-16 -18 -17 -26q-10 10 -10 26h27zM891 852l-10 -61h-11l11 61h10zM842 688 l-8 -29l-11 5l8 24h11zM969 1454q0 -8 -12.5 -35.5t-14.5 -44.5q-6 -47 -2 -131q4 -100 5 -131t1 -65q0 -84 -13 -247t-13 -208q0 -41 4 -60q-8 0 -15 9q-2 -61 -21.5 -137t-19.5 -99q-2 0 -16 14q0 -8 -4 -22q-2 -8 2 -16q-23 -59 -62 -117q-8 0 -22 14q-14 -37 -35 -106 q-12 6 -18 6q0 4 3 12t3 10l-10 13q-4 -4 -9.5 -12.5t-9.5 -12.5q14 -14 15 -22q-12 -10 -9 -31q-8 0 -16 6q-14 -25 -6 -39q-2 2 -8 12q-12 0 -29 -26q-12 18 -19 18v-43l-16 14q-25 -35 -47 -34q-6 0 -26.5 10t-28.5 10q-10 0 -31 -6v16q-14 0 -68 13l-12 14 q-4 -4 -14 -11t-15 -12q-12 14 -34 43q-6 -8 -7 -14q-16 18 -45 49q-6 -4 -6 -35q-25 49 -51 86q-4 0 -11 -7t-11 -7q-2 8 12 39q-4 4 -10 0t-7 -10q-25 47 -24 106q12 -12 20 -2v19q6 4 -10 4q-10 0 -8 -3t-6 -3q-10 0 -8 4q4 6 0 10q-8 -18 -25 -51q-2 10 -20 69 q-16 47 -17 78q0 25 10 47q-27 -8 -28 -32q2 -20 2 -41q-4 8 -25 24q0 2 7.5 7t9.5 10q6 18 4 77q2 6 13 22.5t11 37.5q23 -12 35 -41q12 -35 19 -41q-16 -4 -27 -55l12 -13q18 0 19 23q6 -72 51 -105q74 -193 143 -198q12 -39 27 -39q8 0 3 7t3 7q10 0 44 -10t42 -10 q6 0 22.5 18.5t22.5 22.5q-10 -12 -2 -21q4 4 20 35q4 -2 11.5 -9t11.5 -12q4 4 4 27q31 0 31 6v-33q12 14 22 52q16 57 19 61q4 0 8 -9t6 -11q12 31 23 71q4 -8 11 -18t11 -19q4 8 4 15q4 -4 8.5 -10.5t8.5 -10.5q27 39 -4 66l12 -17q12 12 12 31q0 14 -8 37t-8 25 q0 27 32 77l-6 -17t-6 -28q0 10 10 11q10 0 9 -4q-4 -6 0 -11q6 18 14 38t25 24q-6 4 -13 4v41q4 -10 23 -35q27 27 26 35q-6 -6 9 -21q12 10 14 6q12 20 0 43q-10 -4 -16 -4q12 12 18 33t25 47q-12 12 -29 13q16 27 35 92q-16 2 -21 -21q8 35 2 47q-25 -6 -24 -47 q-14 -25 0 -59q-16 18 -49 53q16 12 26 43q0 6 -10 33q20 35 20 47q4 0 14.5 -7t14.5 -7q0 92 -2 90l-10 10l-31 -27q33 57 33 95q0 14 -4 26q6 31 20 82l29 27q-6 6 -17 4q-8 -2 -8 -6q-8 6 2 16q-4 10 -24 25q2 2 2 -35q-4 4 -10.5 12t-10.5 12q57 98 58 131q0 20 -13 43 q-23 -8 -20 -24q2 -35 2 -39q-23 49 -25 125q4 29 4 70q-16 12 -38 47q-6 -10 -30 -22.5t-34 -12.5q-8 0 -17.5 7t-17.5 7t-8 -12v0q0 -10 -10 -10q-18 0 -23.5 10t-9.5 18q-10 -4 -39 -26.5t-45 -22.5q-8 0 -12 3t-12 3q-6 0 -41 -10t-48 -10q-29 0 -40 14t-21 31 q20 25 68 67q4 -14 22 -43q10 0 10 29q2 0 8.5 -7t16.5 -7q6 0 6 14l14 -14q14 18 52 57q20 -20 30 -20t11 10q0 -16 8 -25l22 21q0 -43 9 -43l26 8q8 0 6 -4q-4 -8 0 -10q14 20 4 47q10 10 29 10q8 0 19.5 -11.5t19.5 -11.5q2 0 45 21q-4 -20 4 -35q18 20 19 31 q0 2 -7.5 17.5t-5.5 37.5q55 -29 72 -29q14 0 22 9q2 -6 31 -37q23 -23 23 -31zM780 1436q0 25 -8 34q0 -6 -10 -18zM885 1323v18h-13v-18h13zM739 1450q0 35 -2 35q-6 0 -18 -8q0 -27 20 -27zM672 1419l-19 19l-6 -8l17 -17zM879 1096v32h-13v-32h13zM827 504h-10l-8 -25 l10 -4zM807 469v20h-12v-20h12zM801 389h-13l-8 -24l11 -5zM150 324q0 8 -41 8v-33q25 0 32 -8q0 2 4.5 12.5t4.5 20.5z" />
<glyph unicode="K" horiz-adv-x="1105" d="M152 113l-11 -19l-10 4l10 19zM172 1399l-8 -19l-10 4l8 19zM1108 20q0 -43 -21 -43q-10 0 -18 9l-8 8l-21 -14q0 6 -6 14l-22 -23q-184 100 -299 262q-16 0 -4 -14q-25 14 -68 62.5t-33 62.5q-27 16 -37 25.5t-18 29.5q-4 -4 -7 -14t-7 -14q-16 35 -66 102 q-16 18 -39 31q2 4 19 33q12 20 12 30q0 8 -6 15q-23 -20 -19 -35q-6 0 -23.5 -4t-23.5 -4q-23 25 -69 96q8 12 -9 12q-6 0 -6 -14q-14 16 -41 39q14 27 15 47q37 -4 43 15.5t12 35.5q6 -20 6 -59q10 23 16 22q0 10 5 51q-6 0 -7 -6q2 2 33 43l19 -14q12 12 -4 27 q18 2 18 -7q6 6 0 13q-4 6 -10 6q23 16 49 67q20 41 39 82q4 -10 14 -28q4 14 27 65q18 41 16 64q27 8 47 30q-2 -33 6 -45q2 8 33 35v27q-8 8 -29 8q18 6 35 49q20 55 33 72q2 0 9 -8.5t12 -8.5v66q4 0 15 -3t13 -3q10 14 -8 49q4 0 16.5 -3t16.5 -3q20 6 22 31q2 43 6 57 q0 -27 15 -74q6 10 12 45q4 29 14 35q0 -29 17 -80q12 16 6 33q-6 27 -8 33q10 0 18 -6q2 4 0 18q-4 25 -4 45q39 0 76 8q18 0 18 -33q0 -4 -35 -53q0 14 -12 15q0 -2 4 -27q-18 -29 -49 -82q0 14 -12 14q-6 -20 -25 -59q0 14 -6 22h-20q-4 -29 -9 -55q-14 -53 -38 -53 q-10 0 -8.5 3t-8.5 3q-14 0 -24 -37q-2 -20 -7 -41q-18 -41 -51 -73q-4 6 -16 20q-4 2 -10 -4q0 -2 11 -9t11 -18v-26q-14 0 -43 -29q-10 0 -13 4t-5 4q-10 -10 2 -37h-23q-10 -10 8 -10q-4 -6 -22 -47q-4 0 -11.5 3t-9.5 3q-8 -33 -51 -94q-63 -90 -71 -107 q55 -74 108 -114q33 -23 33 -49q0 -14 -4 -43q10 0 10 14q2 -2 137 -119q10 -14 24.5 -31.5t12.5 -31.5q59 -53 199 -162q6 -4 16 -29.5t19 -25.5q6 0 6 14q10 -18 20 -37.5t20.5 -19.5t32 -21.5t43.5 -21.5q12 0 17 -3h8zM516 483l-8 -18l-10 4l8 18zM231 1362 q0 -6 11.5 -23.5t9.5 -27.5q-16 -129 -23 -312q6 -51 9 -145q-8 -84 -25 -283q8 -8 0 -231q18 -16 18 -72q0 -47 -8 -75q20 -80 21 -156q0 -18 -41 -60q-31 16 -84 48l16 16q2 18 -22 18q8 23 8 78q12 0 37 -14v96q-29 12 -29 35q8 -6 23 -21q6 4 18 19q-6 20 -12 41 q-14 33 -31 37q37 68 37 78q0 20 -4 20q-10 0 -13.5 -2t-5.5 -2q14 20 15 72l-11 12l-16 -12q4 16 8 77q2 31 27 62q-12 8 -36 69.5t-24 83.5q0 4 20.5 38t25.5 65q-6 45 -7 110q2 41 21 134l-14 4q4 61 14 168q8 6 14 6q0 8 -4 18t-4 21q0 8 14.5 27.5t16.5 29.5 q30 -10 30 -47zM147 385q-6 6 -12 4q-4 -2 -4 -8v59q0 -24 16 -55zM698 1253l-10 4l-10 -18l10 -4zM582 1018l-9 35h-12l8 -35h13zM502 942l-10 2l-9 -18l11 -4zM186 1247l-10 2l-8 -18l10 -4zM369 621q0 6 -11 18q-10 -8 -10 -35zM416 563l-10 4l-11 -18l11 -4zM129 162 l-16 49l-11 -4l17 -45h10z" />
<glyph unicode="L" horiz-adv-x="942" d="M889 94q0 -18 -5 -36l-5 -17l-17 14q-8 -8 -50 -10t-52 -20q2 16 -29 30q-23 -23 -22 -47q-20 6 -68 6q-18 0 -18 -22q-2 0 -23 18q-14 12 -25 13q-8 0 -36 -15l-19 -16q10 14 -8 14q-10 0 -10 -8v0q0 -8 -8 -8q-10 0 -14.5 4t-12.5 4q-10 0 -27.5 -16.5t-27.5 -16.5 q-12 0 -13.5 11.5t-3.5 13.5q-2 -4 -6 -12.5t-8 -12.5q-25 10 -39 41q-2 -2 -3 -13t-13 -11q-8 0 -7.5 4t-7.5 4q-10 0 -8 -8.5t-8 -8.5t-8 4.5t-6 4.5q-10 0 -11 -9v0q0 -8 -10 -8t-11 8.5t-11.5 8.5t-10.5 8v0q0 8 -10 8t-12 -3t-6 -3q0 4 4 14t4 19q-55 0 -68 -11 q0 2 -13 12.5t-13 20.5q0 20 15 81.5t15 86.5q0 8 -11 36t-11 44t8 29q-2 4 -14.5 21t-12.5 26q0 -12 13 -13q16 35 16 48q0 20 -25 20q4 27 25 78t21 59q0 23 -27 33q-6 -6 -6 -33q10 -10 10 8v93q-25 -4 -31 2q18 20 31 20l18 -16l21 22l-6 78h-19q-4 -18 7 -74 q-18 14 -60 84q6 14 35 51q0 29 6 110t8 81q12 0 12.5 -4t2.5 -4q6 -6 6 12q0 16 -47 66q31 29 61 73q-2 4 -14.5 8.5t-16.5 8.5l11 323q39 -8 94 -28q2 -2 12 -13q-16 -168 -16 -432q0 -360 -2 -434q-10 -16 -35 -39q4 -6 16 -4q10 2 10 8q2 -104 -6 -125q18 -29 19 -57 q0 -39 -33 -57q12 -12 39 -33v-37q-18 16 -31 8v-43q27 -8 33 -63q8 -66 35 -93q51 8 178 9q8 0 12 8t15 8q8 0 20 -4t23 -4q8 0 134 20.5t136 20.5q47 0 82 -27zM170 975v31h-14v-31h14zM223 590v22h-12v-22h12zM186 385v23h-14v-23h14zM236 279q0 6 -9 22q-6 0 -20 -12 q19 0 29 -10zM147 98v39h-14v-39h14z" />
<glyph unicode="M" horiz-adv-x="1388" d="M1229 209l-17 -29l-10 8l17 27zM1151 1380h-10l-11 17l11 4zM1317 -12q-51 -33 -68 -33q-6 0 -6 -14l-16 14q-12 -12 -13 -23q-20 14 -30 86q-31 205 -88 412q4 33 -6 100q-12 78 -13 86q0 10 29 27q-31 20 -31 68q2 41 2 80h29q0 8 -12 16q-18 12 -23 18q-2 84 -10 381 q-8 14 -23 43q-14 -61 -14 -84q2 14 -20 15q-4 -4 0 -11q4 -6 8 -6q-27 -31 -27 -47q-6 -43 -2 -53q-23 12 -27 12q12 25 2 45q-25 -27 -24 -43q0 -10 18.5 -26.5t18.5 -26.5t-8.5 -16.5t-10.5 -8.5q-16 -102 -63 -200q-12 -51 -39 -119q4 -12 4 -39q-23 -18 -16 -43 q-8 -25 -37 -70q6 -70 -45 -249q-55 -195 -99 -195q-8 0 -12 11t-12 11q-10 0 -15.5 -7t-7.5 -7q-29 55 -45 137q-12 70 -26 138q-23 23 -23 55q-10 31 -90 209q-68 152 -74 225q-14 29 -26.5 99.5t-30.5 101.5q14 0 20 10q-10 16 -24 0q-14 61 -64 143q-27 -104 -32 -276 q-4 -203 -13 -252q0 -6 6 -373q2 -113 11 -155q-2 -37 -6 -113q-4 -4 -31 -29q-18 -20 -27 -20q-25 0 -39 10q-14 63 -14 104q0 31 9 70t9 55q0 25 4.5 32t6.5 3v576q14 27 14 59q0 12 -4 51q-4 31 -2 49q12 115 43 281q-2 12 0 107q20 10 61 34q0 -12 -6 -18q4 -10 39 -12 t37 -37q4 8 4 14q29 -61 74 -184q43 -156 100 -387q49 -109 59 -133q33 -86 35 -136q6 -6 19 2q20 -51 78 -159q27 10 35 51t14 41q10 0 8 -4q-4 -8 0 -12q12 12 12 28q0 4 -6 37q-6 27 -2 49q4 0 8 -10t6 -12q16 80 31 121q-4 -8 -4 -23q4 0 18 -14q2 12 17 41q-6 8 -21 -2 q8 10 29 26q-12 12 -21 12q4 33 37 105q4 -8 15 -23l12 13q0 8 -11.5 20t-11.5 21q0 4 19.5 48t19.5 97q0 -4 8 -16q18 20 18.5 21t33.5 136q4 18 4 56l6 -12q6 -11 14 -11v37q2 29 27 43q-14 16 -14 23q0 18 19 70t36 63q0 29 4 90q18 12 53 47q0 -8 12 -23l17 15 q0 -14 14 -29q10 0 10 20q18 0 19 -20q-12 -4 -37 0q-10 -37 6 -53q16 8 29 37q-2 -18 -4 -37t-23 -29v-20q4 -14 9.5 -28.5t13.5 -14.5q10 0 14 3t6 3q-12 -72 -12 -117q0 -6 9 -22.5t9 -24.5t-16 -8q2 -10 18 -29q-18 -10 -10 -49q6 4 6 12q0 -45 17 -63q-6 6 -21 -6v-175 q27 -29 29 -90q2 -74 14 -108q-2 -2 -22 -2q-10 -23 -2 -39q14 14 16 14q0 -51 -6 -67l14 -23q2 -2 -6 -41q6 -8 21 -8q-4 -4 -10.5 -8t-10.5 -8q10 -12 12 -11q14 -49 17 -133q2 -59 24 -84q0 -18 9.5 -64t56.5 -212zM1010 1280v37l-19 -19zM1012 1239l-35 -8l10 -51 q9 22 25 59zM1143 885v35h-13v-35h13zM1151 702v21h-12v-21h12zM1139 725q-18 39 -19 29h-35v-31q23 25 37 25q5 -9 17 -23zM1157 616h-10l-8 -26l10 -4zM1143 504v20h-13v-20h13zM1206 358l-24 19l-6 -10l24 -19zM1157 383l-8 29l-10 -4l8 -25h10zM731 512v20h-12v-20h12z M582 399l-9 27h-10l8 -31z" />
<glyph unicode="N" horiz-adv-x="1185" d="M1024 152l-23 -9v11l19 10zM186 266q-14 10 -20 10q18 18 20 19v-29zM1061 74q0 -16 -14.5 -48t-26.5 -32q-10 0 -8 4t-8 4q-6 0 -22.5 -15.5t-27.5 -15.5q-18 0 -61 84q-35 70 -68 140q-6 25 -12 47q-12 37 -35 39q-61 117 -190 335q-41 61 -303 486q-10 0 -14.5 -3 t-6.5 -3q-18 25 -51 73q-16 -12 -16 -30q0 -6 4 -26.5t2 -31.5q0 -100 2 -311q-8 -72 0 -102q-18 -68 -19 -127q0 -10 9.5 -17.5t11.5 -13.5q-6 -10 -6 -27q0 -16 9 -53t9 -53q0 -20 -10 -35l-14 -12q14 -16 22 -62q4 -27 8 -53q-8 2 -16 -6q25 -23 24 -37q0 -8 -4 -37 q-6 -35 -8 -55q-12 -14 -53 -33q-10 8 -16 8q0 39 20 72q-33 33 -33 68q0 23 19 59q-14 14 -31 14q6 6 -2 31q8 14 16 47v465q-6 2 -20 14q-20 387 -8 492q0 6 -11.5 24.5t-11.5 26.5q0 14 25.5 31.5t46.5 17.5q6 0 123 -172q133 -195 147 -213q90 -117 180 -293 q25 -23 76 -63q2 -4 14 -45q10 -29 27 -35q0 -4 -14 -18q-4 -4 4 -11q10 6 16 6q4 -12 33 -45.5t29 -50.5q0 -10 -6 -18q4 -6 28 -6q2 -20 22.5 -50t20.5 -49q0 -12 -8 -24q0 -6 8 -19l23 23q16 -27 16 -74q2 -16 21 -16q31 0 41 6v18q-37 33 -37 47q0 27 14 79t16 77 l-12 12q-6 -6 -26 -6q18 78 0 94q23 -6 22 11l-16 102q-15 102 -15 109q0 14 39 43v20l-12 12q-10 -6 -16 -6q-2 8 2 37t4 41q0 29 -15 35v63q10 8 29 23q0 12 -20 12q-2 29 -3.5 59.5t-13.5 47.5l4 186l19 10q-14 16 -15 39q0 78 95 62q25 -23 24 -123q0 -186 -31 -228 l9 -464q6 -25 18 -80q0 8 -6 16q-4 -4 -6 -14.5t-6 -14.5l4 -182q10 0 13 2t5 2l-16 -20q-4 -12 6 -29q6 6 6 23q10 -100 10 -166q-23 0 -20 2q12 -14 24 -43q0 -6 -5 -20.5t-5 -24.5v-31l12 -12q6 6 7 22q12 0 12 -18zM981 1317l-12 4l-8 -21l10 -4zM1010 1167l-27 27 l-6 -8l24 -27zM326 1122h-13l-8 -24l10 -4zM1004 319l-11 23l-10 -4l8 -19h13zM770 418l-10 28l-10 -4l8 -24h12zM195 307v15h-21v-15h21z" />
<glyph unicode="O" horiz-adv-x="1124" d="M221 182l-8 -28l-12 4l10 24h10zM948 498h-14v45h14v-45zM1053 821q-2 -2 -47 -24q0 -12 4 -17q8 0 8 8l10 -112q-12 -14 -27 -182q-16 -4 -24 -45q-2 -4 0 -68q0 -53 -37 -76q-18 -16 -28.5 -56t-4.5 -63q-4 -4 -13 -9t-13 -9q-8 6 -25 39q-6 -10 2 -57q-47 -41 -47 -62 q0 4 -14 21q-47 -47 -54 -48q-10 0 -8 4.5t-8 4.5t-4 -8.5t-4 -8.5t-10 4t-2 4q-2 -2 -5 -28q-2 -16 -14 -17q-10 0 -8 4q4 8 2 11q-37 -35 -37 -45q-2 4 -10 14q-4 -2 -19.5 -16.5t-25.5 -14.5t-10 8v0q0 8 -9 9q-10 0 -12 -4.5t-12 -4.5t-27 31q-2 -8 -10 -26.5t-12 -26.5 q0 16 -6 22q-23 -23 -43 -22q-12 0 -15 7l-4 7q-16 -14 -16 -18q0 31 -8 57q-20 -10 -78 2q0 10 -13 37q-6 -8 -6 -16l-18 16q-23 0 -10 25q-18 -2 -31 6l-21 -17q-4 12 -20 33q0 2 11 16.5t11 24.5q0 -12 11 -10l8 4q0 12 -12 25q-18 -20 -19 -23q-16 0 -26 23 q-8 -6 -9 -39v108q-6 55 -49 76q12 -2 31 4l-6 57q-4 -4 -9.5 -17t-15.5 -13t-17 5t-12 3v29q2 -4 11 -15q33 0 33 27t-27 80q-10 -20 -23 -35q12 12 13 22q-14 14 -31 -2q6 6 61 43v21q0 10 -9 20.5t-13 14.5q-20 0 -29 -6q0 27 17 30q2 27 34 109q-6 2 -12 2 q-23 0 -22 -43q-2 10 -6.5 28.5t-4.5 30.5q0 16 8 13q-14 47 -14 104q0 -4 8 -16q4 4 6.5 13t6.5 13q-6 6 -21 -2q0 6 -5 25.5t-5 29.5q0 8 12 48.5t12 58.5q39 -18 31 -18q-6 20 -2 65l-10 12q-8 -4 -8 -12q0 6 6 23.5t6 25.5q8 -10 33 -30q-2 10 26 51q-16 16 -28 4 q4 23 12 59q2 -10 16 -31q14 18 0 82q33 20 35 66q0 37 23 37q10 0 11 -4t9 -4q0 20 -8 28q16 0 16 17l19 -15q12 2 39.5 42t36.5 65q0 -16 14 -31q12 33 12 68q4 0 8.5 -6.5t14.5 -8.5h33q8 14 8 62l24 -23q35 39 54 39q10 0 10 -8t8 -8h27q16 18 4 31q55 -27 76 -41 q33 -23 59 -58q6 6 6 31q8 -20 33 -61q14 4 37 14q0 -31 39 -37l14 -16q14 14 18 14q-4 -51 37 -90q27 -25 51 -49q2 -18 7 -60q27 -27 26 -20q0 -4 -14 -6q4 -4 31 -4q8 -66 34 -201q4 -8 -7 -40t-11 -40q0 -12 12 -35q15 -31 19 -39zM940 1237h-12l-8 -59h12zM690 1413v31 q-8 0 -19.5 7t-15.5 7q0 -16 21 -37q0 8 6 17q4 -7 8 -25zM928 1130q-6 0 -19 9q-8 -16 11 -54q0 8 4 24.5t4 20.5zM948 1108h-12l-8 -27l10 -4zM1036 838v14h-28v-14h28zM989 788v29h-35v-29h35zM367 1362v29h-13v-29h13zM291 1270v43h-15v-43h15zM909 565h-10l-10 -26 l10 -4zM264 1198q-6 0 -18 10q-12 -12 -8 -47q6 14 26 37zM930 1014q0 10 -35 95t-37 101q-90 82 -98 158q-2 0 -8.5 -7t-16.5 -7q-8 0 -23.5 22.5t-33.5 22.5q-10 0 -8 -4t-8 -4t-45 30.5t-39 30.5q-8 0 -9 -4v0q0 -4 -10 -4t-8 8t-6 8q-35 0 -107 -53q2 27 -8 53l-12 -22 q0 -80 -6 -86q-43 -33 -76 -80q-57 -86 -68 -107q-35 -68 -69 -221q-18 -74 -19 -70q0 -4 5 -12t5 -47q0 -29 3 -78v-67q2 -63 16 -164q18 -133 20 -150q20 -29 27 -77q0 -35 2 -70q23 0 31 -4q33 -49 114 -133q47 -33 121 -33q14 0 37 7t29 7q96 0 170 140q53 98 94 264 q16 86 35 170q4 -16 18 -45q12 37 13 77q0 23 -5.5 66t-5.5 66q0 106 10.5 145t10.5 78zM172 1038q-23 0 -22 -18q0 -16 20 -57q0 69 2 75zM172 938q-23 0 -20 -18v-25q6 14 20 43zM176 836v34h-14v-34h14zM123 780v21h-14v-21h14zM131 696v21h-14v-21h14zM96 483 q-4 18 -16 45q-20 0 -21 -20q0 -10 4.5 -16.5t4.5 -8.5h28zM213 397h-10l-13 -51h11zM199 209v20h-13v-20h13z" />
<glyph unicode="P" horiz-adv-x="976" d="M109 1446l-19 -37l-12 4l18 37zM893 1026q-25 -109 -25 -127q-6 -2 -18 6q-8 -74 -64 -151l-102 -140q0 16 -10 23q-31 -55 -148 -197q-4 4 -7 12.5t-7 12.5q-14 -25 -27 -49q-25 -39 -36 -39q-10 0 -8.5 4t-8.5 4q-16 0 -72 -55q0 4 -8 16q-2 0 -11 -11t-19 -11t-11 2v0 q0 4 -8 4q-12 0 -26.5 -28t-14.5 -34q0 -12 14.5 -37.5t18.5 -35.5q2 -8 -2 -122t-10 -120l-17 14q-37 -37 -43 -37q23 23 0 23q-10 0 -22.5 -8t-14.5 -8q-10 14 -16 47l20 -17q12 0 17 6q-47 70 -47 86q0 4 9 33t9 43q0 18 -10 27q12 12 39 31l-19 20q-8 -2 -8 -8 q2 6 17.5 32.5t15.5 43.5q0 14 -8 26q-4 -8 -13.5 -29.5t-15.5 -33.5q-14 18 -10 75q6 94 8 87q0 33 -14.5 93t-14.5 56q0 14 17 51h24q4 2 4 4q0 6 -14 6q8 12 16.5 36t14.5 36l-12 12q-6 -12 -29 -47q-16 10 -21 35q-4 23 0 35q4 4 7.5 14.5t7.5 14.5q-6 6 -21 -4 q-4 10 -2 32q2 23 6 23q6 -2 9 -19l6 -12q6 10 26 37v43q-25 -8 -30 -8q23 47 22 53q0 12 -10 40t-27 34v28q0 -4 8 -14q2 4 19 14q10 8 10 21q0 27 -29 47q6 18 3 43q-4 29 -21 35q14 6 16 29q2 20 -8 28q2 0 11.5 9.5t19.5 9.5q12 0 14 -8.5t4 -8.5l15 15q0 8 -17 20 q-27 18 -28 21q-8 2 -23 -31l-20 20q18 0 18 41q16 -8 31 0v25q-14 -2 -37 -12q20 20 20 43q0 27 -32 73v35q12 6 55 35q33 23 43 22q12 0 12 -8l-2 -8l21 16h51q-4 -25 45 -55l12 12q-16 16 -22 13q0 23 16 39q8 -4 13 -17.5t16 -13.5q12 0 19 7t9 7q4 -2 7.5 -18.5 t7.5 -20.5q18 16 45 39q4 4 26 -22q8 8 17 16q-2 0 26 0q10 0 8.5 -8t8.5 -8q12 0 12 12q0 -20 19 -20q10 0 10 16q10 -23 37 -64q10 14 10 48q12 -12 20 -46q12 -43 15 -49q12 12 12 23q12 -10 41 -23q12 10 -2 39l20 -20q-2 -6 -6 -8l15 -11q2 0 10 6.5t12 1.5 q10 0 10 -40q2 0 5.5 -3.5t15.5 -3.5q18 0 4 15q16 -12 21.5 -41t16.5 -29t23 -14h-12q-8 -2 -12 -2q-6 -6 -6 -17q0 -14 20.5 -41.5t34.5 -29.5v-154zM791 1307l-5 10l-18 -8v-13zM647 1399v14h-20v-14h20zM539 1479h-29v-45q11 14 29 45zM862 1130q-20 20 -20 23 q0 -10 -19 -49q18 0 19 -21q0 8 20 47zM825 909l-12 4l-10 -20l12 -4zM246 1470q-4 0 -14.5 -3t-14.5 -3q0 -23 21 -22q8 8 8 28zM750 717q0 18 -21 39q0 -8 6 -19l-16 -16q4 -4 31 -4zM791 1114q0 174 -265 293q-37 14 -127 18q-137 6 -139 7v24q-4 -6 -29 -31 q-16 -18 -16 -28q0 -8 14.5 -62.5t10.5 -87.5l8 -6q0 -35 -33 -49q16 0 25 -6q-8 -8 -19.5 -15.5t-11.5 -11.5q8 -8 21.5 -13t17.5 -7q-25 -27 -23 -47q12 -45 31 -113v-217q2 2 -20 2q-25 0 -25 -25q12 14 12 -4q0 -14 21 4l12 -12q0 -23 3 -72t3 -57q0 -84 -14 -106 q25 -76 24 -105q37 12 97 45l16 -14q59 53 174 168q43 66 131 174l62 164q39 110 39 190zM225 1024v23h-12v-23h12zM203 891v29h-15v-29h15zM211 825h-12l-11 -26l13 -4zM221 535q0 10 -7 23t-7 15q-23 0 -23 -26q0 -10 9.5 -21.5t9.5 -13.5q0 16 8 39q8 -8 10 -16zM242 340 v20h-15v-20h15zM250 150l-8 10l-39 -27l6 -10z" />
<glyph unicode="Q" horiz-adv-x="1257" d="M1090 76v0v0zM1016 1241l-10 -33l-11 4l9 29h12zM1221 10q-2 -10 -7 -18q-6 -14 -18 -15q-20 0 -33 -18q-4 2 -53 59q-35 4 -47 43q-6 29 -14 60q-6 -6 -7 -33q-63 55 -98 109q0 4 3 12t3 12q0 12 -14 12q-10 0 -15.5 -5t-15.5 -5q-12 0 -14 25q-2 35 -6 41 q-14 -23 -12.5 -78t-6.5 -76q-2 12 -26 49q-10 -12 -17 -41q-8 -31 6 -43q-4 0 -18 3t-23 3q-6 -57 -47 -81q-41 -14 -82 -33q-4 25 -16 71q61 57 121 117q66 74 65 131q0 37 -14 74l-14 -14q-35 27 -92 71q-4 6 2 27q4 20 0 27l-25 -23q-12 20 4 66l-18 22q-14 -14 -27 -14 v53q6 0 13.5 8t17.5 8q33 0 45 -32q12 0 12 24q72 -47 82 -73q6 -27 27 -86l16 16q0 -20 23 -33q4 0 4 -18.5t4 -28.5q23 41 76 131q-14 14 -15 33q0 10 27 57q-4 10 -2 35q4 0 16.5 -3t16.5 -3q4 2 10 12t12 15q-6 4 -16 0q-14 -4 -15 -5q0 27 -18 27v268q12 8 29 43 q0 -6 6 -18q16 2 37 22q0 2 2 7.5t2 7.5q-2 4 -13 4q-8 0 -20 -8.5t-23 -8.5q-10 0 -19 8.5t-15 8.5q0 4 8 29q6 18 0 26q-2 -4 -11.5 -4t-9.5 -4q0 39 -39 123q-43 57 -86 115q-61 80 -110 110q-12 8 -33 45q-4 -4 -11 -16t-9 -17q-4 2 -27 21.5t-37 19.5q-51 0 -164 -118 q-90 -92 -137 -205q-29 -68 -59.5 -191t-57.5 -178q0 -23 25 -22v-62q-4 0 -21 15q-4 4 -10 -5q25 -37 26 -147.5t21 -138.5q-4 -14 -16 -41q0 -20 12 -21q8 0 8 19q6 -37 15 -60q12 -41 28 -41q-4 -10 -4 -22q0 -20 19.5 -53t19.5 -48q0 -14 -8 -22q10 -12 35 -12 q12 0 18 7t8 7q0 -53 15 -53q10 0 8 3t6 3q10 0 29 -33q20 0 20 14q0 -37 39 -36q12 0 40 4t38 4t17.5 -11.5t9.5 -11.5q8 8 -2 19q18 18 41 18q8 0 14 -2q-10 -12 -8 -43q-49 -20 -52 -57q0 25 -10 32q-43 -25 -61 -24q-10 0 -17.5 8t-15.5 8t-27.5 7.5t-28.5 7.5 t-23.5 20.5t-24.5 20.5l-17 -9q-10 0 -10 13v0q0 12 -10 12q-12 0 -13 -16q-20 18 -63 79q-4 -2 -8 -11t-10 -13q-10 20 -22.5 31.5t-12.5 15.5t6 12q-23 4 -27 41q-4 47 -43 80q25 43 25 55q0 6 -21 45q-8 -8 -8 -16q0 14 6 28.5t6 16.5q0 6 -14 12q0 35 23 45 q-2 27 -31 21q6 0 6 18l-10 9q2 4 2 12q0 12 -15.5 42t-15.5 50q0 41 47 64q-2 6 -17.5 18t-14.5 22.5t-7 38.5v43q6 0 8 9q4 8 -2 14q4 0 13.5 -7t13.5 -7q20 45 21 45q0 8 -15.5 26.5t-15.5 28.5q0 14 10 22q4 4 10 11q-2 25 7.5 79t9.5 80q0 -12 22 -12q23 0 23 43 q0 51 2 58q18 12 96 147q0 -2 8 -14q10 16 62 98q37 61 45 61q10 0 14 -4t6 -4q10 14 6 53q10 0 36 9.5t36 9.5q12 0 11 -7t1 -10q23 16 23 39q37 -23 49 -22q10 0 18 8q6 4 15 0l26 23q29 -41 82 -50q0 -2 -16 -16q14 -6 45 -53q16 29 16 59q0 -10 8.5 -37.5t8.5 -38.5 q12 10 12 31q-4 0 12 -31q23 23 23 43q0 -55 -4 -67q10 -6 26 -2q23 4 25 4q14 0 29.5 -16.5t15.5 -28.5q0 -10 -14.5 -26.5t-16.5 -20.5q4 -4 19 -4q29 0 24 30q8 -8 27 -8q0 -168 14 -168q45 0 43 -2q-4 -8 -4 -16q0 -20 35 -60.5t35 -60.5q0 -8 -6 -46t-6 -54q0 4 -9 14 q-4 4 -10 -2q0 -2 3 -11.5t16 -9.5q10 0 17 3.5t9 3.5v-29q-2 0 -7 6t-17 10q2 -29 2 -78q-20 -29 -13.5 -64.5t-3.5 -49.5q-2 -4 7.5 -5t9.5 -14q0 4 -11.5 -3t-7.5 -36q10 4 19 5q-31 -8 -35 -56v-76q-14 0 -31 -16q-4 0 -6 11.5t-12 11.5q-12 0 -13 -2q4 -4 4 -7 q2 2 -22 33q-14 -10 -14 -24q0 -27 41 -39q29 -8 55 -17q-10 -16 -27 0q-18 -14 -30 -63q-12 -61 -31 -86q0 -27 16 -27h23q12 -2 16 -2q6 -16 16 -82q6 -45 37 -86q4 4 10.5 7t10.5 8q-18 27 4 51q0 -10 9 -33t9 -35q0 -10 -6 -18l-18 -15q0 -6 24 -43q20 0 21 23 q0 -4 10 -14q8 6 25 32q-6 -25 -6 -100l12 -14q19 8 35 26zM911 1389l-12 6l-10 -21l10 -6zM977 1106v47l-19 -20q17 0 19 -27zM1032 1018v45h-14v-45h14zM999 1061l-10 4l-12 -18l14 -5zM1063 948v21h-12v-21h12zM1016 893l-12 4l-9 -20l11 -5zM881 432h-15l-10 -39h14z M752 528h-13l-12 -39h16zM188 1026v37h-14v-37h14zM831 387v29h-12v-29h12zM807 432h-12l-9 -29l11 -4zM928 287l-13 4l-8 -23l11 -4zM227 993h-12l-8 -45h12zM856 305v55l-18 -20q16 -17 18 -35zM999 154v39h-12v-39h12zM211 905l-21 19l-8 -9l23 -20zM180 242v53h-14v-53 h14z" />
<glyph unicode="R" horiz-adv-x="1003" d="M688 295h-10l-10 16l10 4zM659 315h-16v23h16v-23zM715 156q-6 0 -19 -11q-6 12 -6 29q0 14 6 25q7 -12 19 -43zM784 70h-12v28h12v-28zM186 260h-18v12h18v-12zM688 819h-12l-8 35h12zM940 -70q-20 -12 -47 -47q-25 14 -55 54q-4 -4 -4 -23q-33 33 -46 104 q-70 80 -69 183q-14 12 -47 45q-18 23 -31 16q-2 37 8 49q-14 10 -16 11q-29 0 -35 -7q0 10 -4 80q-2 0 -35 25v84q-2 35 -22 59q-12 0 -13 -16q-12 25 -30 24q-23 -4 -33 -18t-12 -14q-10 0 -13.5 8t-7.5 8q-23 -27 -59 -78q-4 0 -9.5 10.5t-7.5 14.5q-12 -10 -27.5 -34 t-27.5 -36q-2 16 -14 45l-27 -28q-20 -20 -23 -74q8 -6 29 -6q4 -37 -10 -37l-4 -105q0 2 31 2q8 -68 38 -211q-23 -27 -41 -26q-12 0 -19 7t-9 7q-12 -20 0 -45q-41 8 -68 59q-20 41 -20 80q0 20 16 21l12 16q0 16 -20 17q0 -2 6 36q4 20 -10 41q0 -2 6 -8q4 4 6 9.5t4 9.5 q-29 14 -28 24q14 41 14 70q0 86 -18.5 116.5t-18.5 32.5q0 8 13.5 44t17.5 40q0 14 -13 2q-2 6 3 52q2 27 -27 28q43 8 43 70q0 10 -21.5 84t-21.5 82q0 20 29 49q-10 14 -19 14q-10 0 -10 -2q4 -4 4 -8q2 25 6 51.5t19 32.5q-8 10 -29 10q-16 113 -17 131q0 18 19 56 q10 -4 22 -11q12 -4 13 11q0 10 -13 53q-14 51 -16 67q6 0 37 15q2 14 -3 27.5t-5 15.5q0 12 22 20v19q2 -2 -20 -2q-14 0 -31 37h31q4 6 -10 20q8 8 28 33q-6 10 -6 16q2 0 8 -11t19 -11q10 0 4 8t4 8q29 -6 37 -6t10 7t10 7q12 0 25.5 -12t21.5 -12q10 0 22.5 4t14.5 4 q14 12 25 -31q2 4 6 13.5t8 9.5q14 -14 21 -15q10 0 10 7.5t10 7.5t53 -19.5t52.5 -19.5t16.5 -7.5t15 -7.5q16 0 17 15q27 -20 80 -49q-14 0 -25 -9q12 -16 43 -49l12 15q12 2 17 -9q8 -23 16 -30q12 2 31 16q0 -31 30 -31q0 -16 -20 -26l12 -13q6 0 8.5 -8t14.5 -8 q8 0 8 14q0 -31 -4 -39q8 -6 22.5 -38.5t14.5 -45.5q-37 -61 -37 -63q0 -39 29 -55q-6 -6 -31 -11v-98q-2 0 -19 27q-16 -14 -4 -27q-8 6 -16 6q-4 -23 -10 -45q-6 -27 0 -53q-18 -23 -38 -49.5t-20 -54.5l-18 16q-2 0 -6 -4t-12.5 -4t-8.5 -17l-16 19q-4 -29 -23 -78 l-14 14q-12 -10 -12 -24q0 -6 39 -82t35 -113q10 -14 16 -49q6 -41 12 -55q12 0 12 22q14 -35 70 -143q35 -68 35 -98q12 -10 39 -25q0 -2 4 -15.5t8 -13.5q-12 -14 -29 -14q0 4 3.5 13t3.5 14l-11 12l-12 -14v-35l12 -13q12 14 21 15q-4 -25 -17 -49q2 -4 8.5 -14.5 t8.5 -14.5q31 45 31 78q8 -6 4 -47q6 -6 12 -2t6 10q43 -31 43 -90q0 -11 -2 -17zM229 403h-12v27h12v-27zM711 1350h-13l-8 -27l10 -4zM817 1219h-12l-10 -27l12 -4zM766 1268q0 16 -25 43q2 -10 -14 -37q-14 4 -14 37q-10 0 -27 -17q2 -6 10.5 -18t12.5 -14q0 4 18 4 q10 0 25 -17q0 19 14 19zM727 899l-12 6l-10 -22l10 -4zM688 809h-12l-8 -37h12zM745 1139v24q-2 0 -5 -3t-13 -3q-6 0 -6 82q-109 92 -127 158l-25 -23q0 66 4 62q-8 -16 -24 -39q-6 4 -6 20l-13 -14q-2 6 -4 16.5t-6 14.5q0 14 -18 -7l-17 15q0 -18 -8 -29q-12 0 -24 12 q6 12 14 33q-59 -31 -78 -31q-12 0 -17 15.5t-7 15.5q0 -16 -7 -22q-2 2 2 12q2 4 -8 4q-14 0 -110 -25q-2 -45 -15 -57q29 -31 29 -55q0 -92 -29 -113q-4 -25 -14 -33q29 -29 29 -53q0 -25 -11 -37q-4 4 -8 16.5t-8 16.5q0 -8 -5 -25.5t-5 -19.5q31 -16 37 -37 q0 -141 -4 -229q-4 -61 -10.5 -91t-6.5 -24q0 10 29 -49q-12 -2 -29 -14v-68q8 0 29 -18q-14 -14 -14 -21h32q63 49 189 139q12 -14 10 -14q0 25 4 29q12 -12 25 -13q-10 16 -11 27q0 10 14.5 26.5t16.5 22.5q16 -33 14 -69q2 2 7 38q4 31 20 39q-2 18 11.5 51t31.5 33 q8 0 6 -4t8 -4q45 88 91 193q20 -18 26 -17q-4 29 5 81.5t9 64.5zM227 1229q-18 25 -18 51q-10 -14 -10 -35q-1 -16 28 -16zM180 1305q-6 0 -18 8l-10 -19q0 -12 9 -26.5t9 -18.5q10 25 10 56zM627 778h-13l-4 -26h13zM604 578l-4 10l-18 -8v-11zM186 889v43q-6 0 -20 -8 q16 -35 20 -35zM174 885q-12 27 -27 26q-2 -2 -2 -30q29 0 29 4zM229 805l-10 6l-16 -27l10 -8zM651 356l-12 9l-16 -27l10 -8zM133 664v22h-16v-22h16zM258 504l-10 6l-17 -27l11 -8z" />
<glyph unicode="S" horiz-adv-x="1118" d="M410 1470l-9 -22l-14 4l12 21zM868 1376q2 -10 -3 -28.5t-5 -24.5l-20 14q-6 -8 -4 -22l-27 20q-8 -2 -23 -8q14 33 -38 113q-57 84 -127 82q-4 -4 -31 -9q-10 0 -24.5 12.5t-20.5 14.5q-4 -4 -2 -16q2 -4 4 -13q-12 0 -19 7q-12 -25 -41 -25q-12 0 -14 6t-12 6 t-24.5 -12t-26.5 -12q-10 -2 -15.5 10t-7.5 12q-16 -59 -53 -125q-27 -51 -27 -67q0 -2 17.5 -34t17.5 -56q0 -10 -6 -21l2 -20q29 2 29 24q20 -20 82 -92q51 -59 57 -57q8 0 6 3t10 3q12 2 43 -72q4 0 12.5 7.5t12.5 7.5q82 -82 125 -107l4 -68q-4 4 -29 9q-16 -4 -16 -23 q0 18 -8 27l-17 -17q-16 18 -41 74q-31 -8 -51 35q-14 31 -29 61q-6 -16 -30 -41q-35 20 -35 41q4 29 -4 41q-2 -12 -21 -22q-4 0 -10 2l8 8q-4 2 -10 2q-29 0 -45 14v56q-2 33 -19 65q10 -16 -10 -16l-8 4q4 8 0 10q0 -8 -20 -16q-6 2 -11 4q0 6 -2 12q-4 -14 -16 -35 q-43 74 -90 164q0 12 5 17.5t5 13.5l27 -8q4 29 -6 31l-9 1l17 28q18 28 18 48q0 8 -2 15q0 -2 12 -15q25 25 41 47q4 23 19 64q0 -14 20 -51q16 18 29 59q27 -18 37 -18q23 23 20 61q6 -6 13 -14q6 -18 8 -25q16 10 51 66q-2 -12 6 -39q25 6 53 55q18 -6 56 -35 q14 16 12 23q14 -10 28.5 -26.5t26.5 -14.5q8 0 8 16q23 -16 56 -51l12 16q23 -16 59 -36q0 -10 -16 -27q14 -4 45 -45q-6 0 -22 14q-4 -12 -21 -28q26 -19 55 -54zM977 602q-18 -16 -19 -24q-27 12 -53 -3q0 6 -10 21q-12 0 -12 -31q-16 25 -49 76q-2 23 -15 66 q-20 -2 -18 -21q2 20 -4 49q-10 -10 -25 -22q-29 27 -59 75q0 8 15 44t20 53q16 -41 6 -86q39 12 26 49q6 -27 29 -82v4v35q20 -16 44 -34.5t24 -39.5q0 -12 -7 -26q12 -10 21 -11q10 2 27 19q8 -18 16 -58q12 -12 43 -53zM981 539q10 -90 -25 -281q0 53 -22 74 q-14 -6 -14 -33q0 -45 24 -78h-33q0 2 -24 -74l-17 17q-31 -18 -30 -68q-27 -31 -73 -59.5t-91 -59.5q-2 12 -4 23.5t-31 22.5q-4 -47 10 -62q0 2 -8 8q-2 -10 -22 -24q-6 0 -17 8l-4 -8q0 -4 25 -11q-18 -18 -45 -8q-12 -10 -23.5 -24.5t-34.5 -14.5q-14 -2 -16 22.5 t-4 29.5q-8 -18 -13 -23q-16 -25 -36 -27q-12 0 -18.5 -7t-8.5 -7q0 10 -6 29q-2 -6 -14 -23q-10 0 -29 15l-15 -17q-10 2 -38.5 14.5t-40.5 12.5q-8 0 -27 -8q0 33 -119 114l13 37q6 -6 24 -4l14 10q-14 6 -36 23q18 16 18 20q-16 12 -31 13q0 2 4 -31h-30q-10 4 -21 29 q0 6 15.5 30.5t15.5 34.5q-2 35 -43 33l-2 47l8 6q8 31 25 90q0 -8 16 -22q8 16 15.5 53t39.5 65q-18 -86 -12 -202q2 -51 66 -158q74 -127 139 -123l61 2q72 4 113 25q68 31 104 57q53 35 115 133q29 43 53 86q6 -2 13 -4q0 -2 2 -4q2 39 28.5 119t26.5 123q0 31 -10 57 q0 -4 10 -14q4 4 4 22q0 -6 23 -6q12 0 36.5 -8t26.5 -12zM856 1343l-10 46h-17l11 -46h16zM631 1548q-23 18 -23 29q0 -6 -39 -8q13 -15 62 -21zM268 1307l-4 36h-12v-36h16zM319 1231l-8 2l-12 -21l14 -2zM526 1032h-12l-8 -28l10 -5zM817 766h-8l-10 -29l10 -2zM934 510 l-12 4l-11 -18l13 -4zM911 301l-10 51h-16l10 -51h16zM877 193l-3 53q-18 -35 -26 -43q2 0 12.5 -5t16.5 -5zM559 -98l-2 14l-25 -2l3 -14z" />
<glyph unicode="T" horiz-adv-x="1089" d="M559 389h-12v21h12v-21zM551 297l-8 -29l-11 4l9 25h10zM524 242h-12v18h12v-18zM524 78h-12v26h12v-26zM1049 1460l-9 -20l-10 6l10 18zM1024 1430q0 4 -14 18l-4 -43h-25q-20 10 -35 29q-37 -6 -112 -21q8 10 8 29q0 -4 8 -15q4 10 9 18.5t18 2.5v29q2 14 24 22 q0 -23 4 -29q4 4 7 15.5t8 15.5q6 -8 -5 -18q18 -8 37 -23q-4 -14 13 -26q6 4 4 14l-4 20q6 4 12 5q12 0 39 -25q8 0 8 12v-30zM862 1491l-8 -21l-10 5l8 18zM836 1473h-13v20h13v-20zM711 1442h-11l-8 26l10 5zM819 1430q-8 0 -22 -3h-23q-8 0 -7 -8t-7 -8q-10 0 -10 7 t-2 9q-12 -31 -35 -30q-10 0 -36 7t-34 7q-12 0 -39 -27q25 -53 -6 -73q2 -27 16 -90q10 -55 11 -66q0 -35 -41 -53q0 -10 4 -17q39 -4 37 -34q-14 -4 -41 -21q6 -8 -6 -22q14 -16 32 2q-8 -10 -10 -31q0 -25 18 -31q-16 0 -16 -18l-14 14l-10 -12q6 -37 32 -115 q-4 -2 -14 8q-4 -20 6 -33.5t10 -29.5q0 -8 -7 -18.5t-5 -16.5q10 -39 4 -100q-4 -57 -14 -74q-16 -25 -8 -47q0 2 14 2l-6 -78q16 -8 18 -37q2 -35 10 -45q-20 -23 -20 -49q0 -49 27 -70q-4 -14 -27 -86q0 -49 17.5 -84.5t17.5 -40.5q0 -29 -51 -81q-14 0 2 16 q-20 2 -37 -23v0q0 2 2 9l-17 20q-14 -14 -22 -14q-16 25 -16 75q0 119 34 136q-18 18 -26 10q14 43 -8 72q16 6 16 38l12 -14q-4 14 0 21q6 8 6 12q0 45 -26 76l6 3t6 15q0 8 -12.5 43t-14.5 49v70q4 0 11.5 4t11.5 4l12 10q-10 12 -14 13q-16 0 -16 82q0 25 6 186 q6 143 4 240q-6 51 -13 141v82q0 55 -14 59q-37 10 -53 10q-33 0 -161 -36.5t-134 -36.5q6 0 -61 22q0 2 -4.5 12.5t-4.5 20.5q0 4 25 55l14 -14q6 10 19 29h18q4 -4 8 -7q-2 -8 6 -8q39 6 111 21q-6 -35 -2 -43q8 10 12 30q2 14 11 15q10 0 10 -4q-2 -8 0 -11l14 15 q14 0 29 -15q8 16 33 29q4 0 8 -9t6 -13q8 8 8 14q2 -2 2 -13.5t4 -15.5q10 14 21.5 29.5t27.5 15.5q8 0 9 -6q-4 -6 -2 -10q20 10 20 37q10 -20 10 -45q8 0 23 30q-4 0 16 -22q6 8 27 8q8 0 8 10q0 -18 6 -24q14 10 35 37q14 -14 31 -43q10 -2 16 -2q16 0 16 18q0 53 -2 47 q10 0 31 -20q6 0 27 22q0 -23 14 -37q6 0 6 6q2 8 -4 13q6 0 23.5 9t25.5 9q14 0 24.5 -32.5t16.5 -38.5zM670 1460v0v0v0zM618 1143q-12 27 -20 98q-8 -8 -15.5 -32.5t-13.5 -30.5q12 -4 27.5 -19.5t21.5 -15.5zM594 1149l-10 4l-11 -18l11 -7zM559 1153v21h-12v-21h12z M618 1051q-8 6 -24 20l-10 -20h17h17zM594 979l-25 35l-8 -8l23 -33zM59 1380l-16 19l-8 -8l16 -19zM561 737v29q-10 0 -24 14q8 -12 24 -43zM565 713h-10l-8 -25l10 -4zM530 512h-10l-14 -39l10 -4z" />
<glyph unicode="U" horiz-adv-x="1095" d="M838 963h-13v45h13v-45zM979 1108q4 -29 -33 -59q-2 -43 15 -107q-2 -16 -19 -53q31 -131 31 -182q0 -23 -11.5 -69t-13.5 -108q-4 14 -18 45q-8 -4 -8 -18q0 -33 28 -45q-6 -47 -26 -150q-2 -8 -19 -12q-12 -27 -12 -41q0 -12 7 -19t7 -9v-43l-30 8q-8 -41 -37 -121 q-29 -23 -70 -64q-20 -29 -55 -61.5t-48.5 -32.5t-27.5 -16q0 16 -8 16q-12 0 -13 -12q0 10 -8 20q-18 2 -18 -30q-2 0 -15.5 11t-23.5 11q-4 0 -21 -6q-10 -4 -18 0q2 37 -4 51q-8 -10 -25 -28q8 37 -20 36q-8 0 -6 -4t-8 -4q-14 0 -46 24.5t-32 49.5q0 8 2 14q-2 0 -9.5 3 t-17.5 3q-12 0 -12 -22q-61 63 -64 66q-29 39 -34 88q-10 0 -11 -23q-23 14 -26 64q-4 41 -6 81q-20 -23 -21 -18q0 8 2 41t2 43q0 23 -8 55q-10 41 -23 41q-10 0 -14 -3t-6 -3q14 16 43 57q-2 10 -37 29q16 47 -14 62q6 25 13 38t24 27v205q-2 6 -6 6l-23 -16q0 6 7 25.5 t7 27.5q0 10 -15 27.5t-15 27.5q0 20 9 20.5t21 14.5q-16 16 -20 12q10 18 2 66.5t10 60.5q-10 2 -29 13v28q10 8 17 8l12 13q-4 4 -20 4q-4 29 5 45l9 16q0 29 -37 64q37 59 70 59q8 0 43 -16q20 23 16 22q20 -776 17 -973q12 -14 28 -14q0 -23 7.5 -52.5t7.5 -46 t57 -116.5t63 -100q10 0 8.5 4t6.5 4t40.5 -34t41.5 -52q4 8 4 16h26q20 -23 66 -86q96 41 153 191q39 115 80 231q-8 47 -4 115q-4 109 4 325q0 12 19.5 35t19.5 29q0 16 -22.5 95t-22.5 106q0 12 10.5 21t14.5 15.5t8 18.5t4 23q0 31 -10 53q-6 -6 -19 -4q-14 0 -14 12 t37 51q-23 23 -23 45q0 25 31 58h49q0 -2 -3 -14.5t-3 -24.5q12 -14 27 2q10 -51 22 -310q6 0 29 23zM909 1333v37h-12v-37h12zM866 1100h-12l-4 -37h12zM494 6v21h-13v-21h13zM217 311l-12 4l-8 -20l10 -4z" />
<glyph unicode="V" horiz-adv-x="1052" d="M291 598l-10 -20l10 -5l10 21zM367 428h-13v-29h13v29zM389 354h-12v-20h12v20zM367 246h-13v20h13v-20zM788 846l-10 -19l10 -4l11 19zM819 651l-8 -18l-10 4l8 18zM942 1186l-27 12l-4 -10l27 -12zM920 1151q-4 0 -14.5 -8t-14.5 -8q6 -6 18 -13q4 4 5.5 14.5t5.5 14.5 zM829 1124v27h13v-27h-13zM993 1405q0 -8 -9 -31.5t-11 -38.5q6 27 6 39l-10 12q-14 -25 -19 -55q-6 -35 6 -45q-20 20 -26 35q-16 0 -4 -14q-8 8 -15 8q-10 -20 0 -62q2 0 4.5 -3t12.5 -3q12 0 35 23q-23 -156 -37 -234q-16 14 -27 2q2 -2 9 -5t12 -7q0 -27 -19 -27 q-6 0 -12 7q-4 -12 3 -41l7 -29q0 2 -20 -51q-4 -10 -9.5 -55.5t-13.5 -55.5q0 -2 4 -10t4 -10q-2 -4 -12 -2q-18 -53 -31 -82q0 14 -8 22q-39 -41 -39 -51l14 -21q15 -20 15 -34q0 -27 -39 -107q-4 4 -8 11.5t-8 11.5q-8 -8 -9 -23q0 -12 10.5 -37.5t10.5 -31.5 q0 -23 -64 -142q2 23 -12 29q-8 -39 2 -66q-10 2 -51 -8q37 -31 37 -55q0 -4 -15.5 -44t-15.5 -61q-23 0 -35 -12q0 -2 10.5 -12t10.5 -21q0 -8 -6 -20q-4 -10 0 -14q-27 0 -33 6l-5 -10q-5 -11 -3 -19q0 8 -25 8q-2 8 14 25l-24 24q-23 -41 -39 -57q-14 43 -14 66 q-4 -4 -11.5 -8.5t-11.5 -6.5q-10 25 -16 64q-2 10 -23 10l14 16q-27 35 -43 43q16 31 -20 64q-12 0 -12 -10q0 6 9 10t9 14q0 39 -16 72l8 8q0 16 -8 16t-9 -14q-45 31 -48 73t-15 52q0 2 10 11.5t10 19.5t-10 33q-20 -35 -22 -52q-8 29 -5 70t-3 55q-12 -14 -31 -14 q0 14 -6 37q-2 16 0 39q-31 35 -35 110q-6 70 -19 78q0 2 15 17q-4 4 -5 13t-5 13q-6 -6 -25 -6q-12 51 -23 70q20 25 29 41q-4 4 -6 10t-6 10q-20 -8 -21 -37q-29 121 -51 182q0 -8 6 -14q4 4 6 9t7 10q-20 14 -37 20v37q-23 43 -23 63q0 33 17 64q20 12 22 27 q23 -16 62 -5q10 -31 24 -75q-18 -18 -22 -19q-10 -4 -11 -12q0 -2 23 -45q12 10 33 10q-31 -12 -31 -29q10 -8 27 11q37 -152 73 -303q35 -143 31 -197q4 -6 10 -6q8 10 8 31q20 -94 50 -138q-23 0 -23 -12q0 -20 29 -35q41 -100 51 -135q-6 0 -14 -8q10 -18 20 -39 q14 -33 14 -53q2 -8 15 -19q33 14 51 21v-66q12 12 12 23q6 -23 -2 -39q4 -4 13.5 -12.5t17.5 -8.5q31 94 61 148q0 -16 6 -23q16 16 -10 47q18 16 31 80q10 55 22 56q12 0 15.5 -4.5t5.5 -4.5q10 127 61 258q0 -23 9 -30q16 0 2 14q10 -6 16 -6q4 10 0 33q-6 27 -6 34 q0 25 11 69t13 63q-14 2 -10 12q6 18 6 22q25 0 33 9q0 -16 6 -23q10 10 10 33q0 41 -14 41q-10 0 -14 -2t-6 -2q27 8 22 61q4 -4 8 -11t9 -9q20 37 20 106q2 53 16 53q10 0 9 -4q-4 -6 0 -10q2 4 4 9t6 9q-4 4 -16.5 11.5t-12.5 15.5q-10 0 -10 -12q2 12 2 90l20 14 q-12 -12 5 -12q6 43 12 88q16 72 61 72q41 0 41 -76zM180 1063q-6 0 -20 -8q6 -8 10 -19q10 11 10 27zM266 707q10 16 0 28q-12 -10 -22 -10q4 0 22 -18z" />
<glyph unicode="W" horiz-adv-x="1415" d="M918 80h-15v20h15v-20zM938 45l-23 -12v12l19 10zM408 195h-13l-10 38h14zM305 195h-12v22h12v-22zM336 88h-10l-11 18l13 5zM1286 1315l-10 -23l-12 6l10 21zM1153 926l-10 -23l-13 6l11 21zM1159 864h-12v23h12v-23zM571 1425l-10 -32l-10 4l10 28h10zM1290 1397 q0 4 -45 -131q12 -14 12 -47q0 -23 -8 -71t-8 -61l-16 17q-12 -74 -2 -141q0 10 -9 16q-4 -18 0 -33q6 -20 7 -24q0 -16 -33 -45q12 -8 33 -25q-20 -47 -41 -125t-39 -125q0 -2 12 -8t12 -16q0 -8 -15 -31t-20 -37q-14 -57 -8 -113q-35 -53 -35 -78q0 -12 5 -18h20 q-2 16 12 33q-8 -39 -34 -107q2 4 -7 17q-4 -4 -10 -7.5t-10 -7.5q2 -4 9 -60t7 -63q0 -2 -13 -63t-13 -74q-12 35 -37 35q-10 0 -8 -8t-7 -8q-10 0 -8 4t-8 4q-8 0 -12 -8q0 -4 2 -14l2 -11h-27q-10 0 -32 33q-6 10 -13 76q-18 2 -37.5 44t-36.5 56q-14 37 -36 115 q-10 8 -29 24q0 4 11 5t20 6q-53 37 -54 73q0 20 15 41q-6 6 -31 6l-8 70q-2 25 -25 51q23 12 20 40t13 42q-6 4 -16 0q-14 -4 -15 -4q0 6 15 21q-4 14 -37 86q8 -10 20 -3q-14 12 -39 33q12 2 21 -6q23 29 14.5 72t3.5 65q-4 4 -5 14.5t-5 14.5q-12 -37 -33 -74q0 14 13 29 q-4 2 -25 41q8 8 33 10v37q2 20 22 16v-2q0 20 -30 21l16 18v29q-18 -4 -27.5 -33t-17.5 -59q0 27 20 110q4 6 -4 15q-20 -25 -35 -25q-12 0 -20 8l-10 -14q8 -8 8 -18t-11.5 -34t-11.5 -36q0 -16 15 -29l-20 -5q-21 -5 -50 -5l-8 55q25 14 24 60q-2 76 -2 71q16 49 17 54 q0 12 -4 26q31 23 30 74q0 14 -2 34.5t-2 24.5q2 -2 11 -18q0 4 7 23.5t7 31.5q0 20 -16 33q2 0 13 5t21 5q57 0 56 0q2 -4 8 -49q2 -33 26 -29q-6 0 -16 -10q0 -12 23 -12q0 -25 -3.5 -64t-3.5 -43q0 -23 17 -32q0 -59 0 -41q2 -39 31 -39q6 0 14 4q-6 -8 -10 -33t-13 -37 q0 -10 31 -24q-23 0 -31 -9q4 -4 11.5 -6t11.5 -6q2 -2 -6 -37t-8 -45q0 -39 26 -53q-8 -4 -14 4q-4 -4 -6 -11t-6 -11q16 -20 47 -68q-27 0 -27 -6q0 29 -2 28q-4 -4 -18 -36q14 -10 43 -37q6 0 6 8q-14 -27 -4 -57q10 6 16 6q2 -39 -4 -58q31 -18 6 -127q8 -6 27 -20 q8 12 26 33q-16 -51 -16 -99q-10 0 -16 9q-6 -4 -7 -13q6 -2 23 -14q14 0 29 35q14 -29 4 -103q20 -12 45 2q2 -37 -6 -53q6 -6 30 -6q0 -20 15 -47q4 4 9 10t9 10q0 20 -22 21v39q35 23 34 31q0 6 -12 14q0 12 16 29q0 12 -24 12q33 94 27 149q6 18 18 28.5t12 12.5 q0 6 -18 21q23 -2 28 10q16 27 19 31q-4 4 -13.5 5t-9.5 3q0 16 13 37q18 35 22 45q2 27 4 51q-2 31 -20 31q4 8 10 14q6 8 -6 29q27 27 32 63.5t31 59.5l-14 12q-4 0 3 11t20 20q-12 12 -19 12q-4 18 14.5 52t18.5 46q0 10 -6 19q0 -4 31 28q0 14 -13 27q-18 -18 -35 -2 q12 2 19 -6q4 8 3 21.5t17 31.5l-22 25q0 2 22 26q0 16 -5 52t-5 57q0 43 23 67q14 -16 26 -16t20.5 12.5t14.5 20.5q2 0 7 -12.5t18 -12.5q10 0 13 4t5 4q0 -4 -14 -20l14 -21q8 -14 8 -28zM760 510h-12v20h12v-20zM219 1063h-14v22h14v-22zM561 907q-31 -37 -36 -76.5 t-9 -78.5q0 -4 -12 -39q-8 -27 -8 -43q0 -18 10 -35q-47 -8 -47 -68q-2 -68 -23 -80q23 -25 23 -32v-62h-25q-2 -29 19 -45q-27 -53 -25 -61q-12 0 -27 14l-8 -18q0 -12 33 -25v-123l-23 27q4 -12 15 -41q2 -4 2 -27q0 -8 -12.5 -33.5t-12.5 -40.5h-43q-14 14 -30 66 q-8 -6 -43 12q8 20 24 58q-6 6 -12 2q-8 -2 -8 -11q0 14 -9.5 50t-9.5 63q0 20 19 98l16 -16q10 8 18 8l-4 -12q-2 -6 4 -12q8 6 9 16q0 37 -43 68q-8 -23 -33 -52q4 18 -6 60q-14 -16 -27 -4q31 4 31 49q0 10 -3 19.5t-3 13.5q-10 25 -39 49q-18 16 -17 51v51q12 8 31 47 q0 -2 -31 31v47q16 -2 23 -2v102q-2 0 -12.5 4.5t-14.5 4.5l-12 -15q6 -6 6 -16t-6 -10q0 14 3 33.5t3 23.5q0 16 -22 18q16 14 16 60q0 10 -14 63q-14 63 -19 82q6 14 6 29q0 20 -10 44t-10 26q0 27 39 55v22q-12 4 -39 35q10 23 35 53q63 -29 71 -161q-6 -12 -20 -33 q16 -29 47 -84q-12 -8 -12 -29q-2 -23 6 -22l4 4q-6 -39 8 -80q-12 14 -22 4q35 -35 43 -135q6 -84 12 -170q0 -2 11 -22.5t11 -30.5q0 -43 -18 -43q-10 0 -12 6q-2 2 -8 -2q23 -12 53 -54q20 6 22 29q4 33 6 37q8 -4 25 -16l12 12q-8 6 -14 6q4 41 18 123q0 -16 9 -25 l18 15q-10 -6 -20.5 -14.5t-10.5 -20.5q0 -33 15 -55q33 115 32 116q0 16 -10 44t-10 38q-10 -16 8 -16q12 0 10 2l-4 6q4 -4 -2 -12q4 -4 21 -4q2 -2 2 -35q2 -6 18 -6q0 2 3 14t3 23q0 12 -22.5 38.5t-24.5 30.5q20 4 58 0q0 51 -17 84q-8 0 -15 -7t-9 -7q10 10 10 31 q2 -4 15.5 -5.5t13.5 -5.5q10 -16 26 -47q10 18 31 19q14 -1 12 -17zM383 510h-12v20h12v-20zM1221 1391q-10 10 -31 10l-8 -31q10 0 26 -18zM1208 1350h-14l-4 -31h12zM1247 1298l-12 5l-10 -21l12 -6zM1219 1274v14l-45 8v-14zM1239 1159h-12l-10 -26l12 -5zM1184 758v30 h-15v-30h15zM563 1249l-10 4l-10 -22l10 -4zM1116 608l-12 47h-12l12 -47h12zM1042 518v31h-14v-31h14zM500 1030l-8 8l-19 -18l8 -10zM475 899q0 -2 -20 23v-33q2 8 20 10zM766 602q-4 4 -21 -12q-6 8 -18 8v-31q6 2 39 35zM889 422v14h-21v-14h21zM885 389l-11 4l-10 -22 l10 -4zM270 768q-23 20 -8 53q-2 -4 -16.5 -20.5t-14.5 -28.5t17 -10q12 2 22 6zM180 791v30h-14v-30h14zM283 670l-13 4l-10 -21l12 -6zM391 465h-12l-8 -105h12zM236 455l-13 4l-10 -21l12 -6zM406 532q0 -12 -24 -41.5t-24 -50.5q0 -10 7 -20h-31q4 12 16 35l-12 12 q-6 -6 -27 -6q27 43 84 121q0 -8 5.5 -24t5.5 -26z" />
<glyph unicode="X" horiz-adv-x="1157" d="M946 139l-4 -59h-12l4 59h12zM281 174h-15v43h15v-43zM1038 1421q0 -10 -24.5 -34.5t-26.5 -30.5q0 2 4 12t2 14q-4 4 -22 -2l-15 15q-2 0 -14 -5.5t-22 -13.5q2 -2 4 -7t12 -5t14 -8t15 -8q10 0 10 4q-4 12 -4 8q0 -18 12 -31q-2 -4 -33 12q-4 -16 -9 -47.5t-9 -46.5 q0 16 -6 23q0 -23 5 -37l5 -14q0 -25 -37 -58q-6 27 14 35l-14 12q-16 -8 -25 -8q0 4 5.5 15.5t5.5 15.5q14 -16 28 -4q-4 10 -14 37q-4 0 -4 -25q-10 0 -18 8q-8 -12 -29 -30q4 20 57 65q-20 49 -20 57q8 -8 20 0q4 14 -24 27q2 4 47 68q2 0 20 -39q29 49 21 94h37 q4 -14 32 -41v-27zM881 1110q0 -12 -15 -12q-10 0 -26 4l-74 -74q14 33 29 94q18 80 26 109q20 -29 60 -90v-31zM774 1110l-10 -20l-10 4l10 20zM739 1036h-37v33q-2 8 21 29q0 -27 16 -62zM481 856h-53q-2 4 -18 47q-10 27 -7 72q-2 6 -12 20q-18 -18 -8 -26q-4 2 -4 28 q-8 12 -37 -2q0 10 -4 19.5t-29 13.5q0 4 17 21q0 18 -13 18q-8 0 -8 -16q-2 10 -15.5 34.5t-17.5 34.5q-6 -8 -6 -14q-6 12 -14 61q-6 39 -19 39q-10 0 -10 -2q4 -14 4 -8q0 10 -8 18q-16 -14 -24 -14q-4 0 -6.5 35t-12.5 35q-12 0 -12 -17q-2 6 -26.5 47t-24.5 56 q0 12 9 24.5t9 14.5q18 -53 19 -86q31 35 30 59q0 10 -6 21q-2 -2 6 -9l19 15q0 -10 -9 -19q18 -10 68 -61q18 -18 0 -41q4 -12 12 -12q10 0 11 8q-2 -23 47 -51q10 -29 18 -56q14 -39 37 -55q8 -20 43 -72q29 -43 29 -67q0 -33 26 -45v-68zM537 883q-4 -4 -16.5 -8.5 t-12.5 -8.5q0 -2 -4 17.5t-4 48.5q10 -20 37 -49zM535 829q0 -4 -11.5 -9t-15.5 -9q12 12 -6 12q-10 0 -19 -8q0 4 27 31q0 -17 25 -17zM1061 63q-41 -12 -115 -32q-12 18 -21.5 67t-17.5 68q-14 0 -35 -25q-2 10 -4 76q-2 45 -22 66q-16 -31 4 -54q-68 20 -66 103 q-23 10 -32 45q-14 -14 -15 -41q-41 117 -67 113q10 14 10 30q0 23 -21 49q-29 39 -28 39q8 8 8 15q-14 14 -31 -2q0 4 9.5 11t11.5 11q-4 10 10 37l-8 37q-10 0 -10 -25l-19 15q-18 -12 -51 -37q0 2 -4 -13q-2 -6 8 -6h18q6 -2 11 -2q-35 -61 -107 -170q-4 14 -16 43 q0 -2 8 -12q2 10 29 29l-21 18q-14 -12 -14 -14q4 4 4 57q-4 6 -10 6q-2 -6 -11 -53q-4 -16 -28 -16q12 -18 39 -43q0 -4 -21 -64q-12 -35 -33 -49q14 -14 15 -33q-10 0 -25 15q0 -41 -35 -125q2 14 -28 30q-4 -8 3 -29.5t7 -29.5q0 -18 -23.5 -48t-40.5 -32q0 -61 -32 -174 q-29 2 -47 -16q-12 16 -41 47l-33 -31q-12 37 2 78q0 -8 16 -39q20 18 25 55q4 45 14 62q0 -18 6 -23q20 45 50 129q0 -2 22 -43l12 12q-4 14 -24 45v58q33 37 76 80q0 2 -5 -11q-2 -8 7 -12q14 57 55 146q-6 6 -23 6q59 39 60 82q0 10 -4 22q18 16 73 90l15 -16 q0 10 6 33.5t6 31.5q0 10 -14.5 42t-16.5 38q10 12 11 19q12 -10 34 -56q16 10 22.5 25.5t18.5 28.5q0 16 -12 2q0 20 -4 49l-4 29q6 -2 26 -39q6 0 23 32q0 -10 14 -24q6 8 43 37q0 12 -22 12q8 14 26 70l33 -33q8 6 27 29q-14 12 -15 34q4 -4 9.5 -15t9.5 -15q12 12 12 45 q27 0 27 8q14 -31 43 -49q-23 -31 -58 -90q-4 6 -16 22v-47q-14 16 -39 55q-20 -39 -20 -43q0 -16 30 -63q-14 -16 -30.5 -34.5t-16.5 -43.5t99 -182q-2 -16 6 -58q-8 -8 10 -8q8 0 16 8q4 -27 17 -77q6 6 4 38q12 -23 53 -49q-14 -45 -39 -82q0 -18 17 -18q8 25 30 72 q-10 -33 -4 -47q14 14 33 14q10 -29 10 -57q0 10 13 10q4 0 24 -39q25 -45 25 -72l12 -14q16 16 27 16q55 -86 55 -90v-27zM860 1122v21h-12v-21h12zM342 1153v23h-12v-23h12zM324 1196q0 18 -29 18q-25 -49 -25 -45l45 -8q0 2 4.5 12.5t4.5 22.5zM678 801q-8 18 -16.5 35.5 t-30.5 17.5v-29l22 -22q0 -2 25 -2zM362 1059v37q-4 0 -14 4t-14 4q0 -35 -8 -43h18q14 -2 18 -2zM637 762q-18 57 -19 65l-5 -17t-5 -40q4 0 14.5 -4t14.5 -4zM389 1024l-20 20l-7 -8l19 -18zM444 911v21h-12v-21h12zM645 688v12l-37 -8v-14zM711 518v29h-13v-29h13z M522 680h-10l-10 -27l12 -4zM868 301l-12 4l-8 -18l10 -6zM891 279l-10 4l-11 -21l11 -4zM547 590v20h-15v-20h15zM813 315v35h-12v-35h12zM524 582v43h-14v-43h14zM483 596v29h-12v-29h12zM813 295l-10 4l-10 -20l10 -7zM410 467v14h-21v-14h21z" />
<glyph unicode="Y" horiz-adv-x="964" d="M938 1473q-27 -6 -39 -74q-12 -12 -39 -37l14 -14q-10 -8 -10 -15q0 10 -14 10q-6 -33 -90 -258q0 6 -6 13q-4 -10 -11.5 -32t-11.5 -34q0 16 -6 23q-6 -25 -18 -80q-33 -76 -123 -234q-45 -61 -49 -153q2 2 18 -10q-6 -4 -15.5 -8.5t-9.5 -12.5q0 -6 9 -10q-27 0 -27 4 q-4 -4 0 -10q6 -6 12 -6q-20 -23 -20 -48v-337q27 -18 27.5 -80t15.5 -78q-14 -4 -23.5 -25.5t-7.5 -36.5q-4 0 -20 13q-10 0 -11 -21q-57 51 -86 96v72q10 0 33 -20v-2q2 0 3 2t1 10q0 25 -37 35q-20 94 -20 217q0 25 37 45q-2 31 6 51q-27 14 -43 14q16 8 51 27 q0 10 -14 10q25 43 20 60q-12 10 -41 28q-4 10 -2 39q4 37 4 47q0 41 -20 58q-4 20 -8 41q-8 27 -31 26q-10 37 -62.5 121t-62.5 129q-18 94 -74 213q-55 129 -112 201q63 -2 102 -60q53 -76 63 -79q4 -8 0 -23q37 -63 115 -256q70 -170 146 -283q16 0 -2 -16l20 -20 q4 0 18 30l17 -14q8 8 13 21.5t11 21.5l-6 33q-14 2 -20 -13.5t-4 -38.5q-18 0 -27 9v24q20 4 39.5 28.5t38.5 49.5q0 -6 8 -16q2 0 9 8t14 12q-12 12 -13 31q0 14 49 86q-20 51 -20 47q0 31 31 37q0 -14 10 -43l12 14q8 -4 10 -4l-4 4t-14 10v54q14 18 14 24q4 0 15.5 -3 t15.5 -3q8 10 -2 21q12 0 18 -7q4 0 9.5 9.5t9.5 11.5q-4 14 -4 31q0 20 14 53q16 41 21 59q0 -4 8 -16q6 16 24 70q10 35 29 47q0 23 12 69q4 -4 8.5 -11t6.5 -11q6 23 14 45q16 43 31 43q8 0 20.5 -4t18.5 -4q0 -27 14 -47zM406 315l-9 21l-10 -4l8 -17h11zM436 39h-10 l-8 -27l10 -2z" />
<glyph unicode="Z" horiz-adv-x="1054" d="M264 240l-8 -39h-12l8 39h12zM242 252l-15 -33l-10 4l14 33zM563 911l-2 -32h-12l4 32h10zM537 852l-11 -18l-8 4l8 18zM985 1407q4 -4 4 -10q0 -12 -13 -43t-13 -41q0 10 -13 24q-4 -2 -23.5 -53t-43.5 -61q8 -6 14 -6q-23 -20 -25 -39q0 14 -12 14q-2 -20 -19.5 -53 t-15.5 -56l-26 52q-4 -14 -4 -25l8 -12q-16 -63 -105 -170q-18 -23 -51 -76q-2 -14 -4 -43l-35 -43q0 2 -8 12q-6 -6 -20 -6q0 -2 -2 -2q-2 -6 12 -6q-14 -33 -27 -66q-18 -45 -51 -55l14 -14q-10 -25 -47 -74q2 12 -14 35q-2 -8 -8 -36t-6 -42q-18 -35 -54 -117q0 14 -8 21 q0 -14 -5 -23.5t-6 -17.5t-50 -92q-10 27 -27 43q-8 -51 -18.5 -102.5t-36.5 -69.5q0 -59 -25 -88q0 14 -6 22q-12 0 -16 -6v-25l18 -18q-16 0 96 0q6 0 23.5 10t25.5 10t20.5 -3t20.5 -3t18.5 10.5t18.5 10.5q39 0 58 -23q2 0 8 9.5t8 9.5q358 31 342 30q6 0 59 -34 q2 0 0 -11q-2 -14 3 -20q-4 -2 -17 -10q-4 2 -4 22q-23 6 -39 -8q0 14 -6 20q-2 -2 -12.5 -14t-16.5 -20v20q-4 0 -12 -6t-12 -6q12 12 4 20q-12 -14 -12 -28q-2 4 -9 14q-6 -6 -6 -14q-2 0 -9 7t-17 7q-2 0 -17 14q-23 -20 -37 -49q2 14 -26 27q-12 -12 -13 -21q-6 6 -28 6 q-20 0 -25 -6q-10 -14 -18 -26q0 29 0 26q-14 -14 -17 -14q-10 0 -28.5 10t-28.5 10q-8 0 -24.5 -18t-22.5 -23q0 2 -19 21q-8 -8 3 -19q-2 0 -11.5 -4t-19.5 -4t-19.5 12.5t-15.5 14.5q-2 -2 -18 -35q-6 0 -23.5 14.5t-28.5 14.5q-8 0 -3 -7.5t-3 -7.5q-10 0 -4 7.5t-4 7.5 q-16 0 -45 -35l-16 14q-4 -8 -8.5 -15t-14.5 -7q-8 0 -8 8v0q0 6 -8 6t-12.5 -7t-12.5 -7t-34.5 17.5t-35.5 17.5q-10 0 -16 -2.5t-8 -2.5l-21 46q8 6 15.5 28.5t19.5 22.5q10 0 11 -7.5t4 -7.5q4 4 7 9.5t5 7.5q-12 14 -21 14q10 23 21 45q18 37 37 41q0 6 20 92 q14 0 37 -6q6 10 -10 39q14 29 51 94q10 0 23 -14q8 8 30 31q2 -2 -26 -2q-6 20 10 20q8 0 27.5 48t19.5 71q4 -4 11 -11.5t11 -9.5q4 20 13 62q43 20 57 57q33 88 33 90q20 0 41 17q-8 0 -43 16h37q20 37 0 37q-12 0 -13 -10q0 -2 21 39q18 -18 33 -17q0 -8 -6 -16 q10 -10 14 -10v45q0 6 13 27.5t13 33.5q0 14 -14 25q14 0 29 14q0 16 -8 8q33 18 77 76l17 16l14 -8q4 20 0 29l-14 -15q-2 6 -2 62q16 16 31.5 16t29.5 35q6 20 13 41q0 -18 6 -20l10 12q0 4 -21 24q25 43 70 119q-10 0 -33.5 9.5t-31.5 9.5t-25.5 -9.5t-24.5 -9.5 q-41 0 -135 -8t-98 -8t-22.5 -7t-26.5 -7q-10 0 -17.5 7t-15.5 7t-69.5 -7t-69.5 -7q-35 0 -92 90q12 -12 28 -13q10 0 4 7.5t4 7.5q8 0 7 -4q-2 -8 0 -11q2 0 5 10.5t13 10.5q6 0 31.5 -10.5t34.5 -10.5q8 0 2.5 7.5t3 7.5t36 3t41.5 3q6 0 17.5 -10.5t21.5 -10.5 q8 0 6.5 7.5t8.5 7.5q8 0 11 -7.5t13 -7.5q8 0 9.5 7.5t11.5 7.5q6 0 26 -23q2 2 3.5 12.5t11.5 10.5q20 0 28 -9l15 15q0 -14 10 -15q8 0 40 17.5t40 17.5t7 -7t7 -7q-4 0 37 20q0 -20 8 -20q27 0 39 14q0 -23 6 -26q14 14 4 32q8 -10 31 -26v29q8 -20 27 -50q10 18 28 50 q-6 -6 2 -15l17 12q-18 -16 -10 -32q10 16 43 41q2 -2 6 -16.5t8 -18.5q16 0 16 20q2 0 6.5 -10t14.5 -10t10 14l7 -14t7 -15q6 4 14.5 12.5t14.5 8.5zM850 1356l-10 4l-15 -33l9 -4zM760 1368v18h-12v-18h12zM711 1354v18h-13v-18h13zM788 1073l-10 21l-10 -4l10 -17h10z M766 1042l-10 2l-8 -16l10 -6zM453 1331v21h-13v-21h13zM403 1333v25h-12v-25h12zM299 1339l-8 39h-12l8 -39h12zM535 793l-19 10l-4 -10l18 -9zM487 709h-10l-8 -25l10 -4zM436 596l-4 10l-16 -8v-10zM410 571l-9 21l-10 -4l8 -17h11zM403 465v20h-12v-20h12zM360 463h-10 l-8 -23l10 -4zM268 344l-18 16q0 -2 -4 -15t-4 -26q26 0 26 25z" />
<glyph unicode="a" horiz-adv-x="917" d="M633 80q-4 0 -21.5 -5t-21.5 -5q0 8 10 16t16 8q0 55 5 68zM647 27q0 6 -14.5 16t-16.5 12q14 12 25 13q6 -6 6 -41zM791 2q0 6 -33 -53q-2 23 -29 65q0 -6 6 -55q-12 0 -30 -20q-20 12 -41 47q-14 0 -15 -27q-12 8 -41 53q-39 57 -45 66q-35 -12 -96 -43q0 -8 7 -16.5 t13 -2.5q-25 -4 -49 -6q-31 -10 -28 -33l-23 19q-8 0 -16 8q-16 -16 -17 -27q-4 4 -14 5.5t-10 7.5q16 14 -1.5 14t-20.5 9.5t-5 9.5q-12 4 -33 -37q-6 10 -15 23.5t-24 13.5q-10 0 -2.5 -9.5t-5.5 -9.5q-12 0 -21 9.5t-18 9.5q-6 31 -10 59q-10 47 -39 63q29 49 29 66 q0 12 -4 23.5t-4 19.5q-16 0 -35 18l-12 -14q14 -14 26 -47q-12 -12 -33 -59q6 25 -30 79q14 12 28 50q16 0 30.5 -4.5t16.5 -4.5q20 23 23 76q6 74 8 80q0 -18 17 -18q14 16 14 28q0 23 -14 37q-16 -18 -21 -18q-4 31 16 51q-6 6 -26 6q14 8 47 23q0 14 -18 14q0 18 26 33 q0 2 4 8q0 4 -15 4t-20 12q-4 12 2 21q0 10 15 -25q4 4 8 15.5t8 11.5l17 14l-29 31q4 0 9 -3t20 -3q16 0 0 14q-2 0 22 -25q6 10 70 70q-18 18 -19 21l23 20q2 -18 18 -8l27 -29q4 6 0 21q-4 16 -4 18q0 8 10 8q12 0 12 -6q-2 -10 0 -12q29 63 58 63q10 0 42.5 -4t43.5 -4 q12 0 21 13.5t22 13.5q8 0 8 -4l-2 -4q-2 -5 -2 -7q2 -4 10 -4q10 0 8 9.5t10 9.5q14 0 15 -19v-2q2 0 3 3t1 14q0 10 -21.5 42.5t-33.5 37.5l-9 43q14 0 31 -17q16 12 16 53q8 -2 41 -14t50 -20q-2 -2 -47 -25q23 -18 34 -25v0v0q-6 4 -8 -10v-90q10 -16 39 -39 q-29 -20 -29 -45q0 -18 19 -29q-4 -6 -18.5 -10t-18.5 -10l14 -12q14 6 23 6q-4 -6 -13.5 -15.5l-13.5 -13.5q8 -8 17 -8q-4 -25 6 -53q10 -35 12 -45q-33 4 -53 -6q6 -6 26 -7q-16 -25 -16 -36t-20 -31q8 -8 24 4q0 -10 -33 -41q27 -31 29 -74q-2 -41 -2 -82q10 -8 41 -12 h-25q-6 -8 -6 -27q0 -12 15 -45q18 -39 22 -51l-27 -27q18 20 2 37q-14 -6 -32 -57h82q10 -33 39 -84zM215 373q8 -27 -10 -82q-23 25 -23 37t33 45zM666 688v25h-17v-25h17zM629 721l-15 4l-12 -25l14 -4zM592 707v43h-17v-43h17zM680 635q-25 23 -53 22q0 -8 10 -24 q4 2 43 2zM711 393l-11 37l-14 -6l10 -31h15zM573 539h-16l-10 -117h16zM625 354l-4 13l-31 -11v-14zM309 588q0 14 -20 35q-6 0 -6 -21q-2 -18 6 -27q8 11 20 13zM260 657h-16l-11 -51h17zM651 612h-43q-12 -10 -41 -37q0 31 -16 62q12 23 39 25h35q0 8 -33 8 q-10 0 -24.5 36.5t-26.5 36.5t-22.5 -12t-16.5 -16q-8 8 -8 26q-16 -18 -33 -39q-23 -25 -35 -24q-20 0 -8 18l-29 -26q-8 8 -20 8q-2 -39 -39 -47v-60q4 -8 4 -12q0 -2 -31 -2q0 -29 -8 -45q-14 -25 -21 -45q29 0 29 -12q-18 -8 -43 -27q-2 4 -9 15.5t-13 11.5 q4 -12 20 -35t16 -33q0 -14 -22 -108q0 -2 -12.5 -9.5t-12.5 -21.5q0 -10 8.5 -38t8.5 -40q0 -10 -2 -18q-6 10 -21 28v-47q12 8 35 -14q-8 -8 -8 -21q2 0 10 4t21 4q12 0 17 -19t9 -36q16 4 49 20.5t45 16.5q20 0 21 -10q4 20 18 35q8 6 17 12q14 -33 39 -29q4 6 9 24.5 t9 22.5q4 0 18.5 -4t20.5 -4q-6 8 -6 19q0 14 12 32q6 10 12 19q-10 0 -18 8q6 4 8 0q2 -6 14 -6q16 0 19 33q2 29 -6 41q-18 -6 -45 -5q39 23 39 48q0 10 -13.5 30.5t-9.5 38.5q10 -6 33 -4q29 4 33 4v86q-2 -8 -21 -14l-14 16q10 43 41 115q4 -31 10 -66q0 16 6 45t6 37z M231 596v25h-16v-25h16zM121 340l-12 8l-23 -33l12 -8zM692 616l-22 -32l-13 8l23 33zM553 680h-12l-13 31l15 4z" />
<glyph unicode="b" horiz-adv-x="876" d="M223 94l-10 -31l-10 5l8 26h12zM176 -10h-12v20h12v-20zM766 614q-2 -27 -19.5 -85t-17.5 -83q0 -31 16 -45q-10 -4 -38 -16q6 -18 6 -41q0 -20 -8 -63q-8 -35 -5 -52q-18 -27 -34 -79q-4 0 -17 8q-18 -20 -12 -52q-14 -35 -53 -34q-10 0 -9.5 7t-3.5 9q-6 -6 -14 -29.5 t-16 -23.5t-7 3t-8 3q-12 0 -12 -14q2 0 -18 22q-23 -20 -23 -31q-25 8 -41 0t-10 -8q-10 0 -8 8.5t-8 8.5q-8 0 -7.5 -4.5t-7.5 -4.5q-12 0 -10 10.5t-2 12.5q-4 -6 -4 -14q-6 0 -22.5 -4.5t-26.5 -4.5q-12 0 -18.5 10.5t-12.5 12.5q-16 -23 -25 -92q-6 -39 -57 -39 q-10 0 -33.5 18.5t-34.5 22.5q-4 25 -18 72q10 12 10 18l17 -14q-4 10 0 22q2 8 -7 8q-12 0 -14 -3t-4 -3v51q18 8 18 35q0 6 -2 21v20q0 27 23 33q0 12 -6 16q-6 -6 -25 -6q0 6 -8 22.5t-8 26.5q0 33 26.5 69t26.5 50q0 43 -20 86l-23 -24q0 23 11.5 62.5t11.5 57.5 q0 27 -19 45q10 14 20.5 28.5t10.5 27.5q0 8 -12.5 28.5t-16.5 34.5q-2 14 15 60q-25 55 -25 139q0 12 13 17l12 5q-18 4 -19 33q0 14 7 51t7 54q0 -8 17 -47l10 12v59q-12 12 -22 12q0 -31 8 402q12 0 33 -23q4 4 16 12.5t16 10.5q0 -23 27 -23q14 0 20 9q-2 -8 -2 -19 q0 -16 10.5 -40.5t10.5 -28.5q0 -6 -11.5 -41t-11.5 -54q0 -51 -12 -244.5t-12 -230.5q0 -41 26 -92q20 20 25 14q8 0 22 -14q12 10 13 37q29 10 80 10q12 0 13 -11t3 -13q4 0 4 22q12 0 27 -14q39 16 75 16q33 0 64 -33q4 0 8 -12q4 -18 8 -25l13 15q47 -16 67 -8 q0 -14 4 -23l17 16q33 -53 32 -94q0 -12 -6 -20q-2 -10 13 -25q14 0 14 8zM184 1372v21h-12v-21h12zM729 653l-12 43h-12l12 -43h12zM664 662v20h-13v-20h13zM680 623v28h-14v-28h14zM647 614l-16 76h-10l16 -76h10zM475 780v15h-22v-15h22zM686 506v20h-12v-20h12z M184 1012l-10 4l-14 -27l10 -6zM170 1030h-12l-17 -41l11 -6zM186 885q0 -2 0 57q0 -2 -10 -3t-10 -13q0 -25 20 -41zM317 766h-14l-8 -35h12zM698 274v66q0 10 -9 24.5t-9 20.5q0 -47 -49 -84q6 -8 18 4l13 -14v-41q2 27 18 78q0 -38 18 -54zM672 205v20h-15v-20h15z M662 485q-8 8 -48 25v29q14 14 19 14q10 -20 8 -39q6 23 6 43q0 29 -24.5 84t-24.5 102q-2 0 -8 -11t-19 -11q-10 0 -33.5 16.5t-31.5 16.5q-6 0 -16.5 -7.5t-14.5 -3.5q0 16 -29 17q0 -18 -14 -31q-14 14 -24 14q-10 -20 -21 -28l-16 14q-66 -66 -78 -61q-2 -2 -12 -86 q-6 -57 -37 -80q25 -25 24 -103q0 -16 -2 -55v-59q0 -94 27 -140q14 -6 82 -36q55 -29 65 -29q35 0 66 39q16 23 35 47q14 -14 34 -14q-14 20 -14 104q0 100 31 104q0 -18 -2 -47.5t-2 -38.5q4 14 23.5 48t19.5 45q0 10 -21 30q0 -25 -14 -24q-4 6 -4 18q23 23 33 62 q8 28 37 32zM594 213v20h-12v-20h12zM193 336v20h-15v-20h15zM184 139l-10 4l-10 -20l10 -4z" />
<glyph unicode="c" horiz-adv-x="759" d="M240 819l-13 -24l-12 6l12 22zM188 651h-16l-8 49h14zM664 129q-20 -41 -41 -82q-27 -49 -39 -49q-10 0 -8 4t-11 4l-67 -67q-14 12 -83 21t-116 63q-14 -14 -14 -25q-106 45 -107 108q0 18 6 39q-4 0 -18 -11t-23 -15q-4 12 0 47q6 37 2 55q-18 -16 -34 -69q4 20 2 58 t4 56q-4 8 -21 8q4 -20 -14 -36v49q6 2 20 12q-2 -10 19 -10q10 0 8 -4q-4 -8 -2 -13q20 31 49 99q-4 4 -6 11t-8 11q-6 -8 -21 -24q0 -14 9 -23q-12 -16 -50 -39q0 14 15 29q-6 6 -15 6q0 16 5.5 55t5.5 56q8 -12 34 -35l5 10q2 8 0 12t-7.5 1t-7.5 -5q0 6 15 23 q-8 23 -5 61q6 55 7 62q6 -8 20 -27q31 33 31 109q0 59 -27 84v30q66 2 82 -59q12 14 6 43q-4 31 0 41q10 25 41 46t39 34q0 -10 16 -27q27 29 54 29q41 2 51 6q4 -23 16 -60q8 20 27 60q-2 -35 8 -53q6 0 23 34q33 -10 59 -32q20 -18 41 -37q0 -12 -16 -29q4 -12 24 -43 q-2 0 -16.5 2t-26.5 2q-20 0 -20 -12q0 37 -4 39l-25 -17q4 10 16 29l-22 23q-16 -14 -32.5 -15.5t-29.5 -11.5q0 18 -8 27q-98 12 -178 -156q-66 -141 -65 -240q0 -111 26 -206q39 -137 115 -138q23 0 53 35q0 -27 16 -43q8 8 21.5 38t24.5 40q-6 -45 6 -70q2 4 30 95 q4 0 29 -25q6 6 6 33h25l12 -4q-2 -8 0 -13q14 12 14 43q14 0 31 -5t19 -5v-47zM324 838h-13l-10 -29l12 -4zM299 807v22h-14v-22h14zM229 197v22h-14v-22h14zM143 260l-12 4l-10 -22l12 -4zM240 121l-13 8l-20 -31l12 -8z" />
<glyph unicode="d" horiz-adv-x="843" d="M573 295l-36 -45l-11 8l35 43zM614 -20q-8 0 -18 4t-14 4q16 12 22 12q2 -6 10 -20zM246 119l-10 -23l-13 6l10 21zM487 1507h-14v23h14v-23zM545 1165l-4 -94h-15l4 94h15zM727 -55q0 -39 -61 -82q0 18 -7 24q-6 -8 -6 -16q-33 25 -39 25q-10 0 -10 -17q-18 16 -45 55 q8 -6 27 -6q12 0 15 13.5t5 15.5l-12 12q-6 -8 -27 -8q0 4 15 19q-12 14 -29 -3l6 66q-10 16 -37 39q-20 -27 -41 -51q-33 -39 -49 -39q-10 0 -12 4t-12 4t-8.5 -8t-8.5 -8q-8 0 -26 14q-25 16 -29 18q-4 -4 -12.5 -12t-12.5 -12q-4 12 -18 41q-18 -12 -4 -39q-33 49 -43 80 l-17 -17q-18 53 -12 76q-8 12 -37 -2q-6 20 6 43q-4 4 -10 6t-10 6q-16 -14 -16 -24q-2 16 -3 28q0 25 23 29q0 8 -7 18.5t-16 38.5l-16 -16q0 31 6 90q-16 14 -49 37q12 -4 18 -4q27 0 31 51q4 59 33 82q-8 8 -8 21q0 12 7 28.5t9 22.5q-12 12 -31 43q16 -16 31 -17 q2 27 -14 35v31l16 -16q31 37 25 65q4 -4 8 -12t8 -12q14 27 51 81l-4 -18t-2 -33l13 -14q0 8 10 40t10 52q0 18 -6 37l18 -16q4 8 4 16q4 0 18.5 -4t26 -4t16.5 -8.5t7 -8.5q18 16 -2 41q4 -4 18.5 -5t18.5 -19q4 6 4 32q8 -8 39 -8q37 0 98 150q-6 25 -6 53q0 61 29 117 l-13 12q-12 -6 -18 -6q-8 23 10 22l14 -8q0 2 3.5 11.5t3.5 23.5q-4 6 -13 6q-6 -2 -6 -8q2 20 -5 51t-7 37q0 16 16 23v28q-33 -2 -47 -35q0 20 -3 41t-15 27v37q8 -2 28 -39q2 10 13 59q-8 8 -33 7q0 14 2 41.5t2 33.5l25 -45q10 18 24 58q-4 -16 8 -41q6 8 23 41 q4 -4 8 -12.5t8 -12.5q14 4 43 16q0 -33 -14 -75q6 -6 23 -6q0 -12 -15 -27q25 -37 25 -70q0 -49 -16 -148l-17 -98q16 -51 16 -165q0 -23 -12 -39q-4 -45 0 -164q2 -104 -10 -166q0 -2 2 -84q0 -41 -21 -72q0 -18 25 -30q6 -2 -8 -11q0 -16 20 -26l-7 -9q-7 -8 -7 -10 q0 -6 12 -4q6 -14 0 -55q-6 -51 -6 -59q0 -16 8 -17q12 0 14.5 3t4.5 3q0 -12 -15 -26l15 -13q2 0 -6.5 -12t-8.5 -24q0 -4 31 -50q-12 2 -39 -24v-29q20 10 29 2q4 12 26 31q-4 -18 10.5 -69.5t14.5 -65.5zM205 578h-15v28h15v-28zM594 1305v30h-14v-30h14zM608 1106l-10 4 l-18 -37l10 -4zM586 1114l-13 4l-10 -20l10 -6zM633 868l-8 70h-15l11 -70h12zM553 756v37h-14v-37h14zM479 569v37h-14v-37h14zM608 412h-10l-10 -27l12 -4zM561 354l-12 4l-10 -22l12 -4zM582 614q-18 -12 -52 -30q-4 4 -6 14t-6 14l4 101q6 -4 10 -4q12 0 -4 34 q-33 27 -47 66q0 -12 -10 -39q-6 0 -22 16l-33 -32q-14 16 -27 16q-90 -150 -110 -195q-53 -111 -54 -202q0 -76 47 -168q10 -20 80 -139q0 8 17 24q4 -4 8 -12t8 -12q0 33 0 32q35 0 29 -32q8 8 22 18q23 23 62 66q-6 23 8 53q4 -4 12 -16.5t12 -16.5q0 4 5.5 19.5 t5.5 19.5q-2 2 -14.5 10t-12.5 12q0 -8 -8 -12q-2 8 -2 17q0 8 3 19t3 13q0 8 -10 15l-6 67l14 15q27 2 53 65q0 -8 -6 -8q-12 43 -6 53h-39q14 -6 14 -24q0 -10 -6 -35t-6 -35q-27 23 -27 37q0 25 25 49q-16 14 -12 20h26v37q-8 4 -10 11q-2 4 -1 19t1 21q6 -4 6 -32 q10 10 27 -8q0 44 35 79zM147 569v29h-14v-29h14zM180 537v20h-14v-20h14zM156 399v21h-15v-21h15zM610 592h-14v31h14v-31z" />
<glyph unicode="e" horiz-adv-x="790" d="M668 453q-18 0 -27 6l-6 -29q-4 -18 -14 -18t-17.5 4t-17.5 4t-16.5 -8.5t-16.5 -8.5t-4 8.5t-4 8.5t-22.5 -12.5t-20.5 -12.5q-10 0 -18.5 8.5t-18.5 8.5t-22.5 -12.5t-22.5 -12.5q-8 0 -24.5 8t-26.5 8t-16.5 -8t-16.5 -8q-8 0 -3 8t-5 8t-41 -20q-39 -29 -51 -33 q10 -49 28 -47q0 -6 5 -31.5t5 -40.5q70 -92 140 -188q2 -16 10 -16q10 0 46 8t47 8t9 8q-6 16 -6 17q10 -12 27 -2q-2 -20 8 -39q6 0 18 12q-4 2 -10 1t-6 11q0 10 21 31v-80q27 18 26 41q0 8 -14 55q10 0 47 -32v-29q-43 -14 -57 -57q-12 0 -27 16q-8 -8 -31 -33h-28 q4 20 -7 41q-12 -16 -47 -41l-16 17q4 -8 -14 -9q-10 0 -8.5 8.5t-8.5 8.5q-12 0 -10 -6q4 -10 4 -11q-2 0 -8 12.5t-19 12.5q-10 0 -8 -4t-8 -4q-6 0 -39 55l-16 -16l-7 16q-6 16 -18 16q-14 0 -14 -16q-4 16 -37 43q8 8 8 25l-20 20q-6 -8 -6 -16q-8 14 -31 35 q12 14 12 32q0 29 -31 78q-49 82 -51 86q10 0 19 -6q4 12 37 43l-13 12q-4 -4 -14 -8t-10 -8q4 8 -4.5 23.5t-8.5 25.5q0 8 13.5 32.5t13.5 39.5l18 -17q10 12 11 25q0 10 -31 43v35q14 12 26.5 50t14.5 39t4 9t14 8q2 0 12.5 30t10.5 42l16 -16q16 35 60 86q61 74 102 73 q176 0 242 -135q-4 6 -13 0q-10 -8 -10 -18q6 -6 12 -2q6 6 7 12q18 -16 30 -47q-31 0 -30 8l-11 -14q12 0 35 -45q4 -6 21 -7v-206zM524 487q0 8 -9 44t-9 53q-4 143 -17 200q-2 12 -20 27.5t-29 15.5q-72 -57 -104 -112q-4 4 -12.5 8t-12.5 8q2 -57 -30 -127q0 -2 -27 -2 q0 -37 -5 -60l-5 -22q0 -10 13 -36.5t13 -39.5q164 0 246 17q0 2 4 8t4 18zM168 559l-12 4l-11 -20l13 -4zM270 244l-22 10l-4 -12l20 -11zM256 215l-12 4l-11 -20l13 -4zM182 236v22h-12v-22h12zM270 106h-10l-10 -26l12 -6z" />
<glyph unicode="f" horiz-adv-x="786" d="M307 8h-28v53q4 2 26 50q0 -4 4 -52q2 -31 -2 -51zM592 1145q-14 10 -21 10l21 21v-31zM240 1128l-11 -30l-10 4l10 26h11zM264 1067l-20 -18l-8 8l20 18zM254 965h-31q-2 25 21 45q0 -25 10 -45zM737 487q-14 -10 -35 -28q-4 0 -9 10t-7 12q-6 -4 -6 -22q4 0 -18 22 q-39 -39 -82 -39q-10 0 -8.5 4.5t-8.5 4.5q-12 0 -18 -13l-8 -18q-12 -2 -25 22q-8 0 -8 -8q4 12 12 12h-43q-33 -4 -33 -28q0 8 -15 18t-22 23q-12 -29 -63 -76q25 -41 25 -141v-95q55 -57 55 -139q0 -35 -29 -63q4 20 -22 32l-17 -16q-16 14 -22 14q-12 0 -22.5 -2 t-14.5 -2q8 8 8 15q-2 2 -53 8q-25 16 -25 47q0 27 17 43q-2 35 -33 92q16 27 16 68l15 -4q12 -2 16 2q-8 20 -39 20q2 8 2 17q0 16 -14.5 39.5t-18.5 35.5q2 -2 11 -14l16 16q4 -4 11 -8t11 -8l13 14q0 8 -6 17q-12 10 -15 16q-12 -12 -4 -20q-6 0 -26 20q-14 -14 -9 -20 q-4 4 -14 2q-12 -6 -22 -7q-10 0 -15.5 10.5t-6.5 12.5t-18.5 6t-17.5 8t10 9q-10 10 -14 10q-10 0 -8 -4t-8 -4q-12 0 -22.5 15t-16.5 19v35q20 -4 57 0q53 2 49 2q33 0 45 25q-12 -20 2 -47q10 20 35 65q-6 6 -20 -2q-10 23 -35 33q18 27 18 59h39v27q-4 8 -18 8 q0 -4 4 -12t4 -12q-14 8 -23 8q0 12 23 35q-14 31 -31 20q23 20 35 14l12 13q-12 8 -28.5 33.5t-26.5 35.5q8 18 47 58q-6 6 -22 -4q18 31 55 69q4 -2 6 -2q8 0 6 8t-10 9q-4 0 -10 -4q33 45 10 120q18 -29 39 -28q14 14 14 20q0 14 -17.5 59.5t-29.5 61.5q14 -10 37 -39 q25 12 35 43q-12 6 -39 6q2 14 18 70q10 37 9 72q0 -8 12 -9v27q0 16 -17 25q51 59 119 59q10 0 14.5 -11.5t13.5 -11.5t11 -8t12 -8q6 0 7 16q10 -20 26 -55q6 6 4 39q0 -8 19 -8q10 0 10 8t10 8q-6 0 66 -28q8 -8 26 -43q6 6 7 30q51 -104 51 -153q0 -51 -31 -72 q0 -12 12 -27q2 0 25 23q-2 -6 -5 -21.5t-5 -15.5q-6 4 -15 2q-8 -4 -8 -10q-20 39 -76 55q2 39 13.5 71t11.5 27q0 25 -21 52q-31 43 -34 47q-8 0 -13 -8q-6 -14 -8 -17q-16 10 -63 25q-4 -6 -14.5 -26.5t-22.5 -20.5q-10 0 -12.5 4t-4.5 4l-14 -15q16 -35 12 -73 q0 4 -8 16q-6 -12 2 -31q-18 16 -22 17q10 -41 -6 -109q-2 -2 -21 -69q-14 -57 -53 -82q-2 -2 4 -11q6 6 29 7q-10 -18 -11 -52v-28q2 -18 2 -27q0 -47 -32 -55q0 -18 24 -19v-125q-6 0 -18 9q2 -18 -13 -52l11 -12q4 2 10 12v-38q94 -20 90 -21q10 0 14 6q4 4 13 0l16 17 q14 0 33 -31q12 39 59 39q8 0 14.5 -14.5t12.5 -16.5q4 4 5 15.5t5 15.5q0 -25 18 -25q12 0 14 4l3 4l18 -14q8 6 21 6q8 0 31.5 -16.5t31.5 -16.5zM397 442l-22 -10v10l18 11zM367 1352v28h-13v-28h13zM426 1208v31q-16 -6 -25 -39q0 8 25 8zM375 1055l-10 4l-11 -21l11 -4 zM356 956q0 -4 -22 19q6 8 6 18q-14 0 -14 -37h30zM287 870l-8 9l-19 -19l6 -10zM246 807q-8 8 -10 22q-6 0 -23 -12q10 -10 33 -10zM264 672v30h-14v-30h14zM250 659q0 -8 -21 -8q8 -6 13 -20q8 10 8 28zM479 424l-12 2l-10 -18l10 -7zM315 522q-4 23 -16 53q-8 0 -23 -10 q8 -8 11 -16h-29q34 0 57 -27zM137 455l-10 4l-10 -21l10 -4zM242 276v48q-2 -16 -21 -35q9 -9 21 -13zM348 133q-4 0 -15 -4t-16 -4q0 -4 19 -23q12 11 12 31z" />
<glyph unicode="g" horiz-adv-x="823" d="M324 -889h-15l-8 39h12zM295 -918h-23v13h23v-13zM-49 -643l-31 -10v14l27 8zM745 174q-18 -20 -59 -57q-4 0 -9 11t-7 13q-14 -10 -17 -18q8 -29 9 -29q-23 0 -31 -6q0 -16 12 -29q14 14 19 15v-51l-19 -21q0 10 -8 16q-10 -12 -10 -20t13 -32.5t13 -37.5q0 -14 -20 -22 q12 -23 39 -25h-33q-12 -18 -12 -22l12 -15q23 25 25 25q0 -6 -31 -37q0 -6 14 -9t21 -7q-25 -37 -13 -119q-12 0 -18 8q-27 -4 -27 -33q0 -41 -10 -55q0 -20 12 -20q-8 -76 -41 -215l-16 18q-12 -2 -25.5 -29.5t-13.5 -46.5q0 -10 2 -14q-10 -2 -20 6q-12 -37 -33 -109 q0 10 -14 17q-18 12 -25 18v-98q-14 4 -43 25h-23q0 -8 -3 -29t-3 -29q-16 0 -16 -24q-27 8 -47 47q-20 -20 -21 -33q-8 6 -17 17.5t-15 15.5q-2 -18 -19 -56q0 8 -6 15q-18 -20 -16 -41q-12 12 -31 2q0 10 8 18q-10 10 -33 29l-22 -14q0 14 -11 14q-14 0 0 -14q-6 0 -20 14 q-10 -8 -35 -23q4 4 23 43l-13 13q-12 -27 -43 -56q0 -2 -24 50q-6 0 -23 -17q-27 16 -86 58q0 4 10.5 15t14.5 19q-6 6 -14 2q-6 -2 -7 -8q0 23 -28 23q25 109 8 159q4 8 47 25q-4 2 -41 45q6 2 21 -2q12 -4 24 0q0 8 -16 18q-23 16 -29 21q23 20 23 45q6 -8 26 -49 q27 12 27 33q0 6 -4 22.5t-4 26.5l22 -8q14 -4 25 0q-4 -18 -19 -70q-14 -43 -14 -53t13.5 -24.5t13.5 -16.5q-8 2 -17 -6q27 -45 27 -115v-22.5v-18.5q0 -63 51 -64q18 0 67.5 -3t51.5 -3q8 0 19.5 12.5t27.5 12.5q8 0 6 -5t8 -5q16 0 51 26.5t35 44.5q72 63 84 144 q10 0 35 -23q4 2 -3 9.5t-7 17.5q0 16 6 22t12 0q25 16 25 43q0 10 -8 49q-8 29 -2 48q2 0 9 -10.5t15 -14.5q12 47 23.5 93t42.5 85q-18 18 -25 15q0 6 9.5 25.5t9.5 25.5q0 -12 14 -13q6 -8 6 13q0 10 -10 27.5t-12 21.5q10 47 10 43q0 14 -27 29v57q18 -18 33 -4 q-18 18 -41 63q-18 -12 -76 -35l-22 17q6 -8 -15 -8q-8 0 -47 37q-49 47 -63 53q-45 35 -76 112q-27 63 -53 125q12 20 6 52q-6 31 -25 47q2 6 35 24q-14 29 -41 29v115h23q0 31 -17 47q4 6 49 24q-14 20 -14 51q0 53 45 93q0 -16 14 -33q6 14 23 47l-14 12q-14 -16 -19 -16 v16q2 10 2 15q0 -8 6 -17q-2 8 6.5 35t8.5 39q0 14 -8 25q2 0 12 -4.5t20 -4.5q8 0 27.5 13.5t30.5 13.5q12 0 24.5 -8t14.5 -8q0 -8 -7 -23q-6 -10 0 -23q2 -6 29 -28q12 20 -2 63q18 -6 33.5 -26.5t21.5 -20.5q10 0 8.5 3t10.5 3q10 0 10 -8q-2 -12 0 -14l18 14l7 -18 q6 -17 4 -31l30 8q16 -39 54 -45q-12 0 -27 -14q41 -10 80 -148q37 -121 37 -200l-8 -66q-7 -65 -4 -96l-17 18q4 -35 14 -35h37q14 0 15 21q0 -18 -23 -74q6 -6 12 -2q10 2 11 8q0 -18 14 -18q12 0 15 3t5 3zM561 -481l-10 -23l-14 6l12 21zM487 -551h-14l-8 39h12z M635 420l-14 4l-9 -23l13 -4zM272 766l-10 6l-10 -22l10 -5zM199 674v31h-13v-31h13zM614 319q0 10 -24 29q-37 23 -37 27q0 -20 -6 -27q6 55 10 111q4 41 -10 90q-39 125 -39 131q0 10 16.5 28.5t16.5 28.5q-8 0 -21 -8v29q0 -4 -14 -21q-14 23 -10 35q0 -27 -17 -43 q-18 16 -119 74l-4 -8l-16 8q-16 0 -53 -86q-43 -96 -43 -158q0 -25 8 -39q-47 -88 -47 -96q0 -12 6 -17.5t6 -7.5q14 33 23 41l16 -14q-8 -23 -8 -43q0 -37 26.5 -119t24.5 -137q23 27 39 25q16 -31 8 -50q4 0 17.5 7.5t17.5 7.5q33 -51 31 -60q16 76 67 93q4 -6 17 -23 q8 18 47 51l-27 27q20 18 68 47q-29 29 -52 29q25 12 24 30.5t5 30.5q18 -33 35 -74q0 16 9 34.5t9 16.5zM684 -25l-12 5l-13 -23l15 -4zM479 102l-10 39h-14l10 -39h14zM573 -55l-4 10l-18 -8v-15zM553 -104v30h-16v-30h16zM362 70l-10 24l-10 -4l10 -20h10zM616 -246v31 h-12v-31h12zM614 -270l-4 10l-18 -8v-15zM535 -369v23h-13v-23h13z" />
<glyph unicode="h" horiz-adv-x="813" d="M270 145h-12l-8 19l10 4zM750 29l-19 14q-12 -27 -12 -51q-16 -10 -55 -10q-27 0 -33 10q-12 68 -29 203q-33 285 -41 325q-45 244 -125 244q-8 0 -82 -47l-75 -47q-10 0 -9 6q4 6 2 10q-2 -16 -8 -45l-18 -27q-14 -18 -15 -32v-101q10 -10 11 -30q0 -16 -10.5 -50 t-10.5 -45q0 -10 10.5 -25.5t6.5 -56.5q4 -6 12 -4q4 -14 16 -45v-26q-4 8 -16 22q2 -12 -8.5 -34.5t-10.5 -30.5q0 -12 13 -25q-25 0 -31 -6q12 -12 23.5 -12t22.5 -8.5t13 -8.5v-92q-16 25 -28 25q-16 -49 0 -78l-19 16q-4 -8 -16 -24q0 8 -6 16l-33 -22q4 14 -25 38v177 q-8 0 37 20q-4 16 -18 49q-23 -8 -23 -16l-8 239q-14 174 -18 367q-6 315 -6 334q0 59 -5 180q0 10 -6 34.5t-6 35.5v24q45 14 90 -8q0 -47 19 -90q6 -82 -6 -244q8 -18 8 -51q-2 -43 0 -55q4 4 12 15t12 15q-10 -23 -28 -51q20 -41 21 -70.5t13 -60.5q-2 -16 3 -57q2 0 6 8 t13 8t17.5 11.5t18.5 11.5q12 0 17 -7.5t9 -15.5q0 12 7 39l16 -16q20 18 66 45q-20 -18 -11 -29q10 4 26.5 17.5t27.5 13.5q8 0 18 -8.5t18 -8.5h25q6 -12 22 -61q8 12 5 45q27 -2 53 -32.5t26 -63.5q0 -25 -18 -39q6 -12 45 -39l-31 -29q8 -6 29 -59q8 12 33 22 q0 4 -31 19v24q4 4 8 7q8 -2 8 0q-4 0 -4 -4q0 -2 9.5 -11.5l11.5 -11.5q2 -12 -2 -309q27 -6 26 -39q0 -10 -6 -41q-4 -25 0 -33q6 0 6 6q-6 -12 -6 -22q0 -18 24.5 -47t31.5 -58v-26zM692 264l-10 -20l-10 4l10 20zM193 1098v35h-13v-35h13zM670 559l-13 4l-8 -20l10 -4z M639 541l-10 22l-11 -4l9 -18h12zM377 809h-10l-11 -27l13 -4zM678 500h-14l-9 -45h15zM193 743l-11 5l-10 -19l10 -6z" />
<glyph unicode="i" horiz-adv-x="489" d="M217 209l-24 -10v12l20 10zM367 1245q-2 -20 -13 -57q0 8 -16 24l-12 -14q6 -10 24 -29q-2 -12 -22 -41v52q-23 -6 -58 -60q0 -2 -4 45q-4 31 2 58q-6 0 -20 14q0 -70 -17 -84q14 10 -10 29q0 74 41 96q6 -2 20.5 -17.5t26.5 -15.5q10 0 8 4t9 4q10 0 10 -8t10 -8 q13 0 21 8zM211 1204h-14v31h14v-31zM279 578h-15v38h15v-38zM334 784q2 -10 2 -22q0 -31 -26.5 -101.5t-26.5 -105.5q0 -14 2 -25q-18 -27 -19 -53q0 -10 6.5 -40.5t6.5 -55.5q0 4 -17 20q-12 -12 -12 -47q0 -25 33 -102q2 0 -17 -4q-12 -2 -18 2q-4 -2 16 -57q6 0 14.5 8 t12.5 8q2 -61 14 -182q2 -14 12 -31q-4 -4 -18 -8t-20 -8l12 8t10 8q-8 2 -39 37q-14 -20 -41 -49q-18 16 -18 41q0 -4 10 -17q16 31 8 43q-12 -10 -35 -35q-31 90 -14 123q-2 4 -12 20.5t-10 28.5q0 4 7 51.5t7 65.5q2 12 20 35l-22 18q-8 -8 -8 -28q0 20 -13 35l23 20 q0 -18 12 -18q16 39 17 39q0 12 -15 36q-6 -10 -6 -49q-4 4 -11 14.5t-11 14.5q18 20 18 92q0 29 -8 45q4 -4 14 -16.5t14 -16.5q14 16 15 25q0 8 -9.5 20.5t-9.5 20.5h35q0 -4 -26 24h24q0 4 4 7.5t4 15.5q0 18 -32 68q35 35 34 53q18 -16 25 -17q0 10 -14.5 22.5 t-28.5 22.5q4 14 53 64q19 -21 72 -68zM328 774l-13 4l-10 -22l12 -4zM250 786l-21 11l-4 -13l21 -10zM287 659h-13l-10 -28l12 -4zM244 680l-39 33l-6 -11l37 -32zM162 291h-12l-11 -29l13 -4z" />
<glyph unicode="j" horiz-adv-x="485" d="M115 -676h-15v41h15v-41zM-272 -725q-18 -18 -35 0q0 6 12 23zM-201 -866l-10 -23l-14 4l12 25zM311 1264q0 -55 -20 -88q-18 18 -29 18l-24 -18q0 43 -17 43q-12 0 -14 -3.5t-4 -3.5q-12 18 -13 70q0 45 60 86q0 -18 14 -35q8 14 29 35q0 -18 9 -57t9 -47zM238 -252 l-13 -22l-12 4l12 24zM330 614q0 -8 -13 -172q-12 -154 -8 -192q2 -37 2 -545q0 -180 -28 -180q-12 0 -13.5 4t-3.5 4q-2 -4 -3 -23.5t-19 -33.5q23 -23 43 -23q-66 -131 -135 -252q-8 0 -27 17q-16 -33 -14 -52q-4 0 -21 17q-8 -4 -16 -10q-12 -10 -13 -21q0 -8 15 -20h-43 q4 14 -23 41q-14 0 -14 -33q-6 0 -23 16q-2 0 -6 -17.5t-18 -17.5q-12 0 -15.5 5.5t-7.5 5.5q0 -10 -9 -27.5t-9 -28.5q-4 14 -29 45q-8 -6 -14 -10q-14 -8 -15 -16q0 -6 9 -10q-4 2 -43 2q-4 12 0 34q8 23 2 35q-8 -8 -25 8l-26 -24q-6 8 -19 24q-27 0 -27 -12q0 41 -55 80 h33q0 4 -43 68q0 14 18 14q-4 14 0 52t0 54l-16 17q-23 0 -23 -29q-6 14 39 62q2 14 -26 43q41 20 41 67q0 6 -2 14q6 -8 43 9h30q-16 -20 -16 -41q0 -53 33 -197q41 -174 80 -174q100 0 161.5 54.5t69.5 138.5q-2 -8 18 -9q18 0 21 17v30q8 14 37 46q-6 6 -25 6 q47 59 47 139q0 43 -20 57q8 -6 37 -22q25 49 -8 129q4 2 -0.5 4t-4.5 16q0 12 35 47q-14 10 -35 37q4 0 21 -12q10 16 -10 51q-2 0 -12.5 -7t-16.5 -7q2 4 21 45q14 31 14 43t-11.5 34.5t-31.5 24.5q10 12 10 43q18 -18 27 -18q10 0 19 9t11 9q0 -18 13 -26q8 4 8 16 q0 41 -45 68q37 31 37 51q0 39 -33 39q-8 0 -18 -6q0 14 14 30q-16 23 -17 88q4 0 13.5 -3t15.5 -3q6 14 6 62q0 10 -16 53q-8 25 -19 47q4 8 19 4l18 -8q12 10 11 43q10 -10 22 -2q-16 35 -59 96q12 8 24 39q8 27 8 35q0 14 -4 18l-20 -18q12 27 2 35q-6 2 -8 37 q-12 -12 14 -29q10 31 -8 69q29 -25 29 -24q8 8 6 35h49q18 -27 14 -86q-6 -72 -2 -92q2 -10 13.5 -25t11.5 -25zM115 -606h-15v24h15v-24zM246 -27v33h-17v-33h17zM256 -131v41h-16v-41h16zM174 -430l-8 35l-14 -4l12 -31h10zM168 -559l-14 6l-11 -25l15 -4zM-283 -393 q-16 16 -16 22q-14 0 -25 11l-20 -25q18 -8 33 6q12 -14 28 -14z" />
<glyph unicode="k" horiz-adv-x="794" d="M608 819q-4 -10 -18 -51q-10 -33 -15 -33q-18 0 -18 -14q0 4 -8 16q-41 -106 -119 -133q-23 -47 -33 -47q-8 0 -10 4t-8 4q6 -14 -7.5 -33.5t-29.5 -25.5q98 -166 143 -213q63 -61 127 -123q104 -111 105 -154q0 -37 -27 -36h-86q-8 0 -5 7t-7 7t-66 112q-6 0 -6 -14 q-25 18 -78 141q-4 -4 -4 -36q-53 49 -106 149q-8 0 -8 -8q2 23 -45 39q-12 -4 -31 -43q-10 -18 -19 -39q-6 -10 -6 -19q0 -12 21 -20q0 -23 -8.5 -74t-8.5 -76q0 -29 9 -51q-23 0 -29 -6q31 -29 31 -51q0 -72 -39 -72q-8 0 -4 7.5t-7 7.5q-10 0 -16 -3.5t-8 -3.5 q-6 18 -27 46l-18 -17q-4 20 -25 55q0 4 5 14.5t5 12.5q8 -6 23 -6q18 37 -2 37q-10 0 -10 -6q2 51 4 104q4 68 43 86q-18 16 -19 41q0 43 50 94l-13 11q-10 -6 -16 -7q-4 16 -17 50q45 23 46 43l-33 67q0 10 -3 30.5t-3 18.5q0 45 17 111.5t17 107.5q0 53 -18 117 q23 20 27 31q10 23 10 92q0 10 -7 13t-7 5q14 27 12 43q-29 37 -29 103q0 10 12.5 81.5t12.5 80.5v63q12 -2 32 -22q27 25 37 53q8 -10 35 -23q14 -6 14 -26q0 6 -10 -76q-6 0 -18 -8q12 -295 -4 -434l-37 -312q-8 8 -14 8q4 -16 2 -55q4 -6 12 -2q6 2 6 8q0 -14 23 -26 q6 6 40 53l19 -8q4 8 -3 22.5t-7 20.5q25 25 28 24l33 -8q14 29 28.5 58.5t43.5 48.5q0 -12 13 -32t15 -30q4 -2 11 6q-27 63 -21 78q8 -8 15 -8q4 12 16 37q-2 -6 16 -6q10 0 9 -4q-4 -8 -3 -13q14 12 23 88q14 14 39 56q16 31 59 49q2 0 13.5 -10.5t19.5 -14.5l-2 -61 q-2 0 -37 -36t-39 -32zM645 868l-12 4l-8 -20l10 -4zM518 707v28h-14v-28h14zM434 662v20h-12v-20h12zM426 618l-8 21l-10 -4l8 -17h10zM303 422v29q-6 0 -16 8q-4 0 -10.5 -16.5t-8.5 -18.5q33 0 35 -2zM299 412h-10l-10 -25l12 -4zM180 326v26h-14v-26h14z" />
<glyph unicode="l" horiz-adv-x="456" d="M248 250h-12v18h12v-18zM172 219q0 -27 -20 -43v23q0 20 20 20zM168 57l-10 -28l-11 4l11 24h10zM307 1427q0 4 -8 17q-27 -68 -27 -121l27 -43q2 -4 2 -35q0 -47 -18 -55q-25 -10 -33 -55l14 -13q-2 0 21 21q0 -8 -4 -27q-2 -16 0 -22q4 -10 20 -19q-2 -4 -10 -47 q-6 -35 -25 -55q10 -10 35 2q-23 -18 -22 -39q0 -10 8 -21q-12 -131 0 -170q-14 0 -23 -8q8 -262 17 -379q4 -33 -5 -100q25 -119 25 -188q0 -8 -4 -45t-4 -54q-12 4 -47 -14q4 20 -25 20q-18 0 -33 -14q-14 29 -32 47q-6 18 10 19l14 -9v82q-10 -10 -24 4q16 -2 37 9 l-43 69v250q16 12 16 31v31q4 14 20 20v33l-18 18q-2 -16 -8 -49q0 10 -5 42t-5 40v35q6 12 49 61q-12 12 -23 13q27 47 6 118q0 8 5.5 35t5.5 41q0 27 -13 39q25 76 10 131q16 16 17 35q0 10 -8.5 13t-7 8.5t-10 30t-11.5 32.5q0 4 27 39q0 -4 8 -14q2 -2 10 4q0 2 -6 39 q-2 23 -12 22l-33 -6v41q41 31 41 72q0 -8 -10 81q31 4 59 7q37 2 53 -7v-43zM180 311q-4 -4 -14 -16t-14 -16q4 6 9 24.5t9 24.5q0 -5 10 -17zM274 1264l-6 18h-12l6 -18h12zM211 1307v34h-12v-34h12zM256 926h-12l-8 -49h12zM256 614v27h-12v-27h12z" />
<glyph unicode="m" horiz-adv-x="1095" d="M954 39l-10 -31l-10 4l8 27h12zM670 618q-12 10 -19 11q16 18 17 37q16 -19 2 -48zM997 10q-10 2 -26.5 -14t-22.5 -33q-33 20 -67 43q-23 16 -23 53q0 6 31 54q-6 6 -21 -4q2 20 -13 91.5t-15 104.5q0 25 8 39q-8 14 -19 4v201q18 0 2 16q-10 -8 -18 -8v41q0 20 39 80 q2 4 -4 10q-23 -23 -27 -22q0 29 6 28l-12 11q-12 -14 -12 -31q4 0 -19 22l-18 -20q20 -20 31 -21q-14 -29 -27.5 -55.5t-40.5 -46.5q4 -10 0 -27q-4 -27 -4 -28q-10 -4 -27 -17q-6 -72 -18 -116q-10 -33 -21 -68q-6 -55 -22 -168q-29 -43 -35 -127q-6 -2 -14 -2 q-20 0 -49 25q-39 35 -52 41q-4 20 -4 38q0 10 3 29t3 27q0 12 -24 12q18 27 18 61q0 12 -3 36t-3 34q0 31 27 43q-25 45 -47 131q-29 104 -43 141q-68 -86 -84 -129q-53 -150 -64 -276q2 -59 -6 -176q-10 -14 -31 -43q-25 12 -73 63q0 4 10 9.5t12 7.5q-37 35 -24 125 q0 16 12 39q-14 63 -45 176q6 14 6 32q0 45 -27 129q-18 55 -37 111q74 -6 113 -88q35 -74 68 -149q10 20 30 51q-4 47 3.5 91t21.5 44q10 0 8 -6q-4 -6 -2 -11q4 4 43 56q20 27 17 43q2 0 12 5t22 5q10 0 10.5 -8t8.5 -8q10 0 12 4t12 4q14 0 52 -62q47 -82 49 -86 q-2 6 -17 -24q8 -8 31 -6q0 -6 -4 -23.5t-4 -25.5q0 -39 35 -74q39 90 44 115.5t9 52.5q45 33 70 41q2 4 2 27.5t22 41.5q10 12 -6 23q-20 -10 -20 8q0 10 5 21.5t5 13.5q0 -10 10 -21q6 8 12 9q6 6 -10 36q6 0 27 -20q16 31 4 33q4 4 12 -2q10 14 29 69q6 0 25.5 -8 t29.5 -8t8 -7t8 -7t15.5 7t15.5 7t16.5 -4t10.5 -4q27 -115 26 -142q0 -8 -5 -23t-5 -42q0 -10 15.5 -58.5t15.5 -58.5l-10 -29q-2 -12 2 -40q2 -25 0 -39q-4 -18 -23 -29q0 -8 21 -14q0 -8 9 -38t9 -38q0 -33 -39 -51l12 -15q2 2 5 2q4 0 0 -12t-11 -18q0 -12 31 -13 q-7 -106 16 -174zM854 717l-12 2l-8 -19l10 -6zM764 721v29q-10 -6 -29 -19q11 -10 29 -10zM915 512v29h-14v-29h14zM846 608l-10 4l-11 -20l11 -4zM768 621v20h-12v-20h12zM856 479q18 37 0 53q-20 0 -20 -18q0 -35 20 -35zM969 319l-8 9l-19 -19l8 -10zM682 553 q-10 10 -31 10q18 -20 19 -33q0 11 12 23zM952 258q-6 4 -17 15.5t-22 11.5v-37zM946 125v20h-12v-20h12z" />
<glyph unicode="n" horiz-adv-x="892" d="M197 158h-15v30h15v-30zM709 393l-27 -63l-12 4l26 59h13zM756 10l-8 -6q-7 -6 -11 -20q-4 0 -26 24q-8 -6 -52 -76q-33 51 -32 84q-25 -25 -35 -24v203q14 16 16 41v34q2 0 12.5 5.5t10.5 17.5q0 20 -39 141q25 0 31 8q0 16 -13 2q-37 70 -28 164l16 15q-12 14 -31 14 l3 15q3 16 3 34q-4 6 -10 6q-10 -4 -10 -41q-12 33 -49 90q-4 -12 -19 -32q0 4 -8 16q-82 -41 -112 -129q-16 -68 -35 -135q2 10 -6 18q-20 -131 -15 -164q-27 -27 -26 -34q-8 6 -13 6q-2 0 -4 -4q0 10 15 -43q8 4 8 12q0 -20 -15.5 -48t-15.5 -38q0 -16 27 -29 q0 -16 -25 -28q0 -80 -20 -101q-59 16 -86 43q4 12 4 35q0 25 -7.5 80t-7.5 74q0 -2 4 24q2 20 0 43q23 16 11 62q0 2 10 22.5t10 32.5q0 18 -22 33q-14 106 6 149q-16 14 -23 8q6 4 19 25q-8 55 6 127q0 -4 8 -16q8 10 8 16q35 -43 92 -131q33 61 33 82q0 -4 8 -17l15 17 q92 92 102 92t8 -6q-4 -8 0 -10l21 22q43 10 119 43q14 -12 31.5 -51t33.5 -57q2 20 10 51q4 -33 19 -99q-8 2 -13 3q-6 0 4.5 -16.5t10.5 -24.5q0 -12 -9.5 -44t-9.5 -42q0 -66 31 -66q10 0 13 3t6 3q0 -16 -4.5 -41.5t-4.5 -36.5q0 -25 15 -45l18 17q0 -8 4 -29t4 -27 q-4 0 -18 15q-33 -35 -2 -66q8 0 8 8q-6 -12 -6 -61q-2 -39 -21 -51l15 -13q18 -2 24 -2q-16 -47 19 -133v-43zM643 678v22h-14v-22h14zM610 305v39h-14v-39h14zM289 578q0 -8 -6.5 -17.5t-3.5 -21.5v-35q24 23 10 74z" />
<glyph unicode="o" horiz-adv-x="827" d="M694 436q0 -23 -8 -69q-12 -57 -24 -58h-27l-12 -12q2 -8 12 -25q2 0 12 9.5t17 11.5q-16 -76 -52 -211q0 8 -8 16q-6 -20 -6 -59q-4 6 -10 14q-14 -2 -25 -22q-14 -35 -18 -41q-41 -4 -68 -31q0 10 6 18l-10 11q-23 -14 -67 -43q-6 16 -39 16q16 35 120 170q8 61 35 197 q4 18 39 47q29 27 21 59q0 -18 6 -22v43q-10 -6 -29 -29q12 37 12 70q0 31 -18 120q-20 109 -41 109q-8 0 -6 -3t-8 -3t-31 20.5t-25 36.5q-82 -45 -144 -199.5t-62 -281.5q0 -170 133 -262q12 -6 12 -37q-25 0 -25 -12q0 12 -10 12l-20 -16q-4 12 -17 36q-29 -4 -33 7.5 t-8 23.5q-6 -8 -6 -14q-10 6 -26.5 35.5t-26.5 29.5t-12 -4t-4 -4q-2 45 6 68l-11 12q-2 -4 -16 -43q-16 37 -45 113v24q8 -6 23 -6q6 4 6 18q0 18 -29 62q4 -6 12 0q8 4 8 10q-8 45 11 172q4 0 16 -6q20 4 19 57q27 0 24 0q16 12 14 33q-4 33 -4 37q18 23 66 68 q0 25 -12 10q51 98 63 112q31 33 96 33q8 0 13.5 -7t15.5 -7q14 0 41 14q0 10 -4 -18q0 -10 10 -10t12 3t4 3q0 -4 -3 -12.5t-3 -12.5l13 -12q20 20 20 29q72 -68 100 -148q35 -92 35 -250zM121 346h-12v21h12v-21zM614 731l-2 10l-24 -8v-10zM537 764l-9 20l-10 -4l8 -16 h11zM457 846l-11 4l-10 -19l10 -4zM573 346v21h-12v-21h12zM186 434v27h-12v-27h12zM172 420l-10 20l-10 -4l10 -16h10zM182 358q-6 0 -15 -7t-9 -13q2 4 6 4q18 0 16 -33q2 8 2 49zM229 201v26h-12v-26h12z" />
<glyph unicode="p" horiz-adv-x="792" d="M133 545h-14v20h14v-20zM707 506q0 -29 -15.5 -85t-15.5 -112q-53 -6 -55 -45q-2 -25 -3 -49q-23 -18 -102 -65q14 -12 21 -7q-37 -25 -105 -86q4 4 4 9.5t4 9.5q-4 4 -14 4q-25 0 -16 -29q-10 4 -27 15q-4 0 -4 -21q-6 0 -20.5 -4t-24.5 -4q-14 0 -19.5 9t-7.5 20 q-12 0 -12 -15h-27q0 16 -14 29q4 0 -18 -21q-8 -4 -9 -24q0 -8 2 -29v-33q0 -68 -30 -96q4 -4 14 0l14 4q0 -2 4.5 -14t4.5 -23q0 -8 -14.5 -39.5t-14.5 -40.5q0 4 8 -39.5t4 -89.5q4 -20 -2 -61q-2 -10 8.5 -29.5t10.5 -27.5q0 -41 -21 -80q8 -16 12 -39q4 -29 -12 -37 q16 -35 -8 -51q4 -4 20 -4q8 -25 -8 -94q-8 8 -22 8v-29h-43q0 4 9 8t13 8q-10 0 -45 5q-14 0 -45 32v92q16 0 23 5q-10 25 -11 41q0 14 8.5 26t8.5 17q0 10 -15.5 26.5t-15.5 24.5l10 8q14 63 15 108q4 0 14 4.5t14 4.5q-8 -29 -2 -35q8 8 12 22q4 29 7 31q-10 10 -37 -2 q4 47 -17 59v226q16 0 31 14q0 6 -12 16l-19 -12q27 35 27 60q-2 4 -16 8q0 2 26 147v66q0 49 -11 49t-11 18q6 14 12 29q14 29 33 39q4 2 -2 8q-16 -14 -35 4q6 137 20 158q0 -23 9 -29q6 16 2 35q-8 23 -9 25q0 18 17 12q6 12 2 20q-2 0 18 15q-41 37 -43 40t-2 23 q0 25 13 37q0 -4 8 -16q12 0 26 14q6 23 -24 23q-10 0 -14.5 -2.5t-8.5 -2.5q6 6 47 25q-12 14 -30 49v41q6 0 18 -6q4 4 13.5 9t13.5 9q-8 29 -31 86v86q51 14 72 15q8 0 24 -15q10 4 15 -2q-14 -70 -13 -227q4 0 21 16q16 -33 14 -51q-10 12 -18 4l24 -18q18 27 21 47 q4 29 10 47l18 -14q6 0 13 -6l18 12q-6 -4 0 -12q8 -8 19 -9q10 10 8 29l14 -14q16 31 39 30q10 0 27.5 -11t25.5 -11q12 0 23 10q-6 -6 8 -18q6 8 6 14q55 -14 90 -86q27 -55 51 -111q-8 2 -14 -8q-12 -16 -16 -18q12 -2 30 -19q-12 0 -18 7q-12 -10 -12 -17q12 -12 20 -12 q6 0 6 14q13 -22 13 -59zM489 770l-8 45h-12l6 -45h14zM406 735v29h-13v-29h13zM596 397v49h-14v-49h14zM664 322l-27 24l-8 -6l26 -27zM608 492q0 10 -5 15t-5 7q-6 -8 -6 -17.5t-17 -19.5q-4 41 -7 118t-7 118l-18 -8q-8 0 -14.5 15t-16.5 15q-139 0 -236 -86 q-8 -80 -32 -100v-78q0 -16 10 -16q-4 -4 -3 -14.5t-3 -14.5q-8 6 -19 6v-78q18 -12 19 -32q0 -12 -8 -35q-8 2 -15.5 11t-9.5 9q10 -20 6 -41q25 0 31 -8q0 -57 -3 -88t-3 -23q12 4 42.5 -2t35.5 -6q16 0 45 29q14 -12 14 -23q27 43 55 74q14 -14 17 -14q23 59 65 106 q16 94 55 140zM578 254q-10 4 -29 16v-34q11 4 29 18zM219 442q0 10 -16 29q-10 -10 -10 -37q4 0 14 4t12 4zM170 369l-10 8l-17 -27l9 -6zM276 119v26h-12v-26h12zM133 45v27h-14v-27h14zM160 49q-4 0 -14.5 -3t-14.5 -3q0 -14 5 -26.5t5 -14.5q1 10 19 47zM182 -4l-28 8 q4 -4 0 -12q-6 -12 -7 -15q4 4 18.5 9.5t16.5 9.5zM147 -287v27h-12v-27h12zM215 -522l-8 8l-19 -18l9 -9zM223 -606h-10l-10 -25l12 -4zM160 -637q-18 0 -19 14q0 -4 -5 -12t-5 -12q19 0 29 10zM147 -684v20h-12v-20h12zM133 -725l-10 4l-10 -20l10 -4z" />
<glyph unicode="q" horiz-adv-x="780" d="M541 -90l-9 -19l-10 5l8 16zM672 -612q-10 0 -17 6q-4 -6 -37 -23q-12 8 -26 35q-4 -6 -4 -12q-31 14 -56 14q2 12 3 27q0 16 -31 172q0 -16 20 71q-33 47 -32 136v29.5v29.5q0 88 -35 135q-20 -4 -38 -24.5t-57 -20.5h-34q-8 0 -6 7t-7 7q-10 0 -14 -6t-6 -6 q0 14 -29 15q0 2 3 10t3 12q-39 -8 -71 31q-23 39 -45 76q-8 -2 -23 -15q2 6 0 39q-2 27 29 37q4 18 -27 18q-8 0 -14 -8q-16 51 -17 70q0 14 27 43q-12 20 -25 20q10 0 31 23l-4 26q-6 0 -20 -30q0 39 -15 55q4 0 15.5 -10t19.5 -10q14 186 14 188q8 -8 21 -2q0 6 -6 10 q-10 4 -15 0q-2 -8 -2 49q4 0 21 15q0 -14 10 -29q4 12 4 78q16 18 21 18q20 0 18 23q0 -18 10 -31q0 10 7.5 40t7.5 40q0 12 -6 16q14 25 43 62l22 -23q14 43 -8 64q12 0 52 9t48 9t42 -21.5t42 -21.5t3 7t3 7q23 0 37 -30q18 23 19 65q0 39 -15 86q8 0 15 -6q8 29 -9 70 q47 25 54 24q51 0 51 -104q0 -51 -12 -68v-69q27 -96 26 -152q0 -16 -4 -24q-20 -8 -26 -43q-6 -55 -9 -60l-12 15q4 -18 14.5 -30.5t10.5 -17.5q0 -12 -10.5 -63t-10.5 -74q0 -12 2 -20v-74q0 -4 -9 -45t-9 -55q0 -4 9 -42t9 -73q0 -18 -2 -39q-6 -41 -8 -35q14 -98 6 -116 v-195l19 -41q8 0 4 -6q-6 -6 -17 -10v-27q6 -4 13 -2q8 2 8 10q0 -8 12 -59q10 -45 8 -56q-10 10 -10 -6q0 -10 6 -14q14 -10 17 -12q10 -16 10 -35v-53zM121 406h-12v26h12v-26zM254 731v21h-12v-21h12zM221 662h-22q4 0 4 -27q18 21 18 27zM545 653q0 27 -15 88 q-2 0 -4 -2t-12 -2q6 0 -18.5 47t-67.5 47q-27 0 -51 -43q-14 -31 -29 -59q-27 -8 -40 -43t-27 -68q-18 -39 -45 -149q-27 -102 -27 -121q0 -84 24 -174q29 -125 84 -125q16 0 53.5 26.5t39.5 28.5t36 66q23 45 33 115q20 70 53 211q-8 6 -14 0q-10 -6 -16 -7q-8 0 -21 13 q45 39 41 63q2 2 8.5 11.5t4.5 11.5q0 10 -9 37q19 26 19 28zM201 580l-19 18q0 -4 -6 -18.5t-6 -16.5q15 17 31 17zM182 528v27h-10v-27h10zM524 70q-6 0 -16 10v-33q0 5 16 23zM565 -55q-6 0 -24 32v-40q2 0 11 4t13 4zM393 57v21h-10v-21h10zM133 262l-8 6l-16 -16l6 -10 zM147 233l-10 5l-8 -17l10 -4zM170 154l-8 6l-19 -17l7 -6zM520 694h-10l-14 33l10 2z" />
<glyph unicode="r" horiz-adv-x="712" d="M342 657h-12v19h12v-19zM645 563q0 -12 -33 -35q-14 14 -18 15q-4 -18 -16 -51q0 4 -7 14l-18 -12q10 10 2 20q-4 -6 -23 -6q12 14 13 31q0 10 -11.5 26.5t-15.5 26.5q14 -14 23 -14q12 12 12 18q0 27 -18 45q-20 -20 -17 -20q2 31 -14 38q18 16 22 54q-16 0 -16 -4 q-6 18 -29 18q-8 0 -10 -4t-10 -4q-12 0 -27 29q-12 -4 -24 -35q-2 0 -17 14q-14 -14 -14 -29q2 14 -12 21q-8 -14 -9 -41q-10 14 -34 14q-14 -14 -15 -14q0 -14 -2 -41q-27 -23 -45 -117q-14 -68 -14 -96q0 -25 14 -25q10 0 10 11q0 -23 -24 -35l14 -13v-45q-8 -10 -37 -49 l6 -39q6 4 14.5 21.5t14.5 19.5q-4 -8 0 -18q4 -14 4 -16q0 -8 -10 -17l12 -10q10 4 17 4q-12 -6 -9 -33q12 12 13 17q0 -25 9 -73t9 -54q0 -53 -33 -82l-14 14q-2 -2 -1 -8t-9 -6q-55 0 -78 88q-14 53 -14 110q0 29 34 54l-12 12l-28 -8q-10 14 -11 28q0 10 10.5 37 t12.5 49q-2 6 -8 7q-8 -8 -9 -25q0 119 5 160q-8 -6 -15 -6q-8 25 -8 63q-16 -2 -16 -29q-6 2 -12.5 6.5t-6.5 14.5q0 16 17 49q6 -6 12 -6q4 4 -2 18q-2 10 8 11q10 0 9 -6.5t1 -8.5q16 18 17 76v10q0 35 4 53q27 14 26 33l-12 13l-14 -15q0 10 7 22.5t7 14.5q0 6 -10 8 q4 4 10 -2q12 8 12 29q0 18 -18 31q2 18 12 73q74 -4 74 -41q0 -6 -4 -24q-4 -14 0 -21q0 -10 -6 -29.5t-4 -31.5l14 14q4 -8 0 -20q-4 -16 -4 -23q0 -10 31 -43q18 23 36 43q25 29 35 29t8 -4q-4 -8 0 -10l19 20q14 0 14 14q14 -2 39 -20q4 0 12.5 11t12.5 13q20 4 80 5 q6 0 43 -23q29 -63 28 -82q0 -4 -2 -35q-4 -23 0 -35t22.5 -49t18.5 -47zM590 692l-8 21l-11 -4l9 -17h10zM496 782q-8 0 -21 -10q23 -10 17 -39q4 8 4 49zM555 649v33h-12v-33h12zM442 756v18h-12v-18h12zM578 641h-13l-4 -41h12zM229 918h-12l-8 -25l10 -4zM211 889h-27 q0 -4 17 -21q6 7 10 21zM178 672v18h-12v-18h12zM162 569q-4 0 -14.5 -4t-14.5 -4q8 -6 19 -12q6 6 10 20zM211 399q-27 -6 -27 -34q0 -10 19 -29q8 26 8 63zM190 260q-10 47 -10 62q-10 -31 -24 -62h34z" />
<glyph unicode="s" horiz-adv-x="651" d="M188 2h-14l-10 21l12 4zM541 152q-8 10 -19 10q0 -16 -14 -84q-20 -29 -43 -86q0 33 -10 53q-10 -4 -29 -39q-29 -51 -33 -59q0 27 -10 37q-10 -2 -16 -17q-8 -20 -19 -37q0 6 -16 27q-25 2 -25 -37q-20 20 -55 90q-16 -27 -37 -80q-16 8 -2 23q-47 43 -55 51 q-18 14 -52 23q-29 43 -28 71q0 8 11 25.5t11 28.5q0 14 -12 24q8 -6 25.5 -30.5t29.5 -39.5q14 37 13 72q2 -35 28 -88q33 -63 68 -63q20 0 29 -9q49 14 88 87t30 124q70 29 70 56q-33 55 -57 63q0 -2 -3 -23.5t-14 -21.5q-12 0 -23.5 27.5t-23.5 31.5q12 66 -47 123 q-68 59 -68 109q0 14 5 35q-10 -2 -41 4q-4 0 0 -2t8 0q8 2 8 10q0 27 -23 27q-14 0 -16 -3t-6 -3q4 23 -18.5 82t-26.5 85q12 -10 20 -10l17 17q0 16 -15 28q-8 -4 -8 -12q0 23 6 31q8 -10 17 -11q4 49 8 56q18 33 82 26l20 19q78 -27 80 -27q41 10 47 10h2q-2 -6 -20 -18 q-6 -8 8 -47q8 18 23 53q31 -4 45 -49q23 -61 24 -64q-10 6 -26 7q-14 0 -41 -27q-53 55 -123 90q-10 -20 -19 -43q-18 -33 -41 -45q0 -12 35 -31q0 -25 -18 -24l-17 -15q0 -20 23 -20q10 0 20 8q2 -6 23 -88q16 -53 29 -53q12 0 15 3t5 3q0 -29 -6 -39q6 -2 17.5 -16.5 t21.5 -14.5q14 0 12 6q-6 16 -6 13q53 -84 53 -99q0 -16 -10 -22q20 -12 43 -37q-4 -6 -12 -10t-13 -8q8 -16 31 -37q6 6 19 26q0 -14 20.5 -74.5t20.5 -86.5q-16 33 -11 39q-6 2 -24 14q-6 -6 -31 -6l8 -74q4 23 17 61q4 -13 47 -79zM244 852q0 -10 -29 57v-43q29 0 29 -14 zM188 768v25h-16v-25h16zM422 489h-16l-11 -40h15zM348 535h-12l-12 -31l14 -6zM358 465v24h-16v-24h16zM393 403v41h-16v-41h16zM463 152l-35 12v-14l29 -11z" />
<glyph unicode="t" horiz-adv-x="749" d="M356 457l-12 -25l-12 6l10 25zM520 -10l-26 -13v15l22 10zM328 1047h-13l-12 30l14 4zM541 805h-17v35h17v-35zM293 979l-12 -43h-15l10 43h17zM346 901l-10 -24l-14 6l12 24zM705 152q-29 -37 -11 -95q-6 0 -22 17q-20 -18 -41 -35q-23 -23 -23 -41q0 -8 2 -14 q-20 2 -57 -39h-33q18 23 4 37q-16 -18 -16 -37q-4 2 -3 14t-13 12q-12 0 -9.5 -4t-9.5 -4t-25.5 18.5t-25.5 18.5t-49 -18q0 27 -15 26q-12 0 -10 -4t-8 -4q-14 0 -33 33q-27 45 -37 55l27 29v98l-12 16q-8 -10 -9 -18q-16 10 -43 31q12 14 32 47t32 45q-10 8 -47 6 q-12 -23 -12 -66q0 31 -2 93l22 -19q14 0 31 17q-6 23 -45 22q4 16 4 74q0 33 6 47q2 4 14 22q10 12 11 27q0 35 -35 35q16 35 16 53q0 37 -45 43q-57 10 -82 49q-10 4 -53 -18q-14 12 -14 41q0 35 75 59q63 18 121 19q10 41 21 82q14 49 32 63q-12 4 -45 16q18 18 19 39 q0 51 -25 88q-8 -10 -8 -18q0 25 2 49q4 33 31 49q0 23 -13 23q-12 49 56 72q4 -12 18 -46q16 0 17 37q18 -31 18 -106q0 12 -12 10q-4 0 -11 -4q0 -20 27 -20q0 -6 -11 -13.5t-13 -9.5q4 -18 32 -53v-146q-16 2 -26 -8l-19 -16q2 -4 19 -39q8 -25 8 -41q43 -12 121 -8 q14 -55 -2 -119q-2 14 -9 39q-16 8 -40 35q-2 -4 -8.5 -18.5t-10.5 -8.5q-27 0 -27 -25q0 4 -20 25q-2 0 -11.5 -11.5t-17.5 -15.5q8 -29 11 -82q-10 -6 -21 -34v-45q6 -6 14 -2q8 6 9 14q0 -6 -5.5 -16.5t-7.5 -24.5q12 -33 13 -45q0 -8 -7.5 -11t-7.5 -10q0 -14 8.5 -22 t12.5 -14q-10 -10 -19 -21q20 -117 15 -145q6 -20 30 -60q-8 0 -18 4q-4 2 -10 -2q20 -49 41 -98q45 -82 112 -82q29 0 94 66q61 59 64 73q0 -9 23 -32zM383 1096l-12 4l-13 -23l15 -6zM584 819v17h-27v-17h27zM328 649v33h-15v-33h15zM272 668v32h-16v-32h16zM317 573 l-24 13l-6 -15l24 -12zM59 750v34h-14v-34h14zM301 399l-10 62h-17l11 -62h16z" />
<glyph unicode="u" horiz-adv-x="831" d="M688 55q0 -45 -35 -65q0 -14 9 -15q-10 2 -37 29q-6 -6 -7 -14q-25 0 -55 37q23 14 23 30q-16 0 -47 6l-19 -16q0 20 -6 27q-14 -23 -39 -47q-12 -14 -12 -25q0 -4 2 -12q-12 0 -21.5 3t-19.5 3q-8 0 -21.5 -12.5t-25.5 -12.5q-10 0 -20.5 4.5t-19.5 4.5t-54 32.5 t-68 36.5q-16 16 -4 53q-14 14 -33 15q8 0 8 20q0 14 -15 49t-28 45q2 -8 19 -8q-33 27 -33 101q0 20 3 62t3 60q0 20 -2 37q-14 16 -14 39q0 14 6 42t4 38q-12 94 -10 182q10 4 100 27q0 -8 14.5 -30.5t16.5 -30.5q8 -18 -2 -78q-2 -10 6 -25.5t8 -25.5l-16 -85 q-17 -85 -17 -98q0 -10 13.5 -34.5t13.5 -36.5q6 -78 16 -136q2 -12 9.5 -31.5t7.5 -27.5q0 -12 -10 -18l16 -15q23 -14 57 -76q49 33 76 60l16 -17q12 10 33 58q59 20 60 96q0 29 -9.5 78t-9.5 61.5t-5 37t-5 34.5q0 14 12 17.5t15 5.5q-16 8 -17 34q0 -6 12 64q0 -6 9 -19 q10 16 14 43q8 47 8 50h10q-12 14 -34 53q-6 -8 -7 -23q0 35 -6 70t-6 41q0 27 60 41q37 6 71 14q29 -45 29 -186q0 -29 -4 -41q-18 -10 -19 -80v-102q-2 -16 -8 -80q-4 -51 -4 -80q18 20 19 -12q0 -29 -13 -29q-10 0 -14 4q-2 2 -8 -2q61 -160 61 -199zM555 788v39h-16v-39 h16zM561 522l-20 21l-9 -8l21 -23zM545 479h-13l-10 -28l13 -5zM571 109l-10 8l-29 -29l9 -8z" />
<glyph unicode="v" horiz-adv-x="798" d="M301 158h-12v41h12v-41zM700 801q0 -10 -11 -40t-11 -44q0 -12 4 -23q-8 8 -16 8q-10 -27 -11 -55q0 -29 10.5 -66.5t10.5 -43.5q0 -4 -18.5 -18.5t-18.5 -35.5q0 -12 4 -28q0 -127 -47 -215q8 -2 16 -2q-6 0 -34 30q-8 -59 -41 -194q-23 -20 -45 -41q-35 -33 -35 -58 q-2 2 -16.5 17.5t-24.5 15.5t-4 -8t-4 -8q-16 0 -60 47q4 18 25 45q0 23 -25 22q4 12 14 44q-2 8 -8 8q-4 -18 -9 -53t-9 -54q-6 16 -43 84q-35 61 -35 72q0 12 14 39q16 35 19 43q-12 14 -19 14q-6 -6 -6 -18q-2 -12 4 -13q-4 0 -13 -6t-13 -6q0 35 -33 45q0 23 8 78 q-6 0 -13 -12.5t-7 -24.5q-2 20 -16.5 64.5t-14.5 70.5q0 12 4 23q-33 14 -33 41q27 0 31 12l-12 14q-14 -16 -17 -16q-14 31 -2 72q-2 6 -10 6q0 -4 -5 -19.5t-5 -27.5q-23 49 -13 153l-12 15q-10 -12 -35 -33q4 8 12.5 32.5t12.5 34.5l100 -2q4 -12 60 -194 q47 -160 47 -189q0 12 12 13q6 0 47 -119t72 -141q4 23 16 61q8 -10 17 -10q4 4 6 15t6 16q-6 8 -23 -2q18 59 19 94l16 -19q2 4 10 66q6 47 35 69q-16 14 -16 52q0 90 45 157q-2 31 -10 93q14 10 28 45q-4 4 -6 10t-6 12q-8 -10 -8 -31v31q-2 25 -2 49q2 0 42 14.5t48 14.5 q29 0 31 -23q2 -10 16 -33.5t14 -35.5zM608 580v65q0 -2 -10 -10t-10 -21q0 -11 20 -34zM567 555l-8 41h-14l8 -41h14zM614 305v23h-14v-23h14zM588 338l-4 12l-19 -12v-12zM317 250h-12l-10 -49h14z" />
<glyph unicode="w" horiz-adv-x="1042" d="M244 115l-11 -21l-10 6l10 21zM971 821q-4 -6 -22.5 -26.5t-18.5 -26.5q0 -10 26 -8l-4 -86q-14 -29 -43 -41l-14 -15q-6 -23 20 -38q0 -2 -24 -25q2 -6 2 -16q0 -33 -23 -99q-8 -18 -6 -65q2 -43 8 -56q-16 -27 -22 -94q-4 -53 -6 -106q-10 12 -31 -4l-2 -45 q41 12 39 12q-10 -10 -26.5 -17.5t-16.5 -9.5q0 -6 18 -16q-16 6 -45 -6q4 20 -10 57q-18 4 -20 -22q-47 8 -56 57q-4 35 -10 70l-20 -15q-12 16 0 43q-59 10 -62 168q-8 -8 -16 -6q-2 33 -19.5 81t-21.5 77q-6 -6 -8 -29q2 14 -13 31q-4 -41 -28 -121q0 -10 -19 -8 q-10 0 -10 8t-2 10q-2 -6 -19 -67q2 -4 11 -17q12 23 32 56q-16 -43 -36 -130q0 8 -16.5 19.5t-20.5 17.5q-12 0 -16.5 -6t-8.5 -12q-2 -6 8.5 -7t26.5 -1l-4 -54q-8 -16 -33 -77q-16 -45 -27 -45q-12 0 -13 5t-3 5q-8 -18 -9 -61.5t-32 -75.5q-100 37 -96 139 q-31 53 -21 76q-6 6 7 49q-6 18 -39 47q8 -2 21 9t18 13l-2 70q-18 2 -19 -25q-6 25 -29 52q-8 0 -8 -17q-2 51 -20 131q-20 94 -25 131q0 12 23 43q0 2 4 7q2 2 0 2q0 2 -10 2t-11 -17q-4 25 -15 39.5t-11 18.5q0 6 6 18q4 -4 14 -8q14 12 10 33q-10 -14 -41 -13 q25 23 68 52q18 -29 53 -84q-18 -53 31 -82q-12 -12 -14 -29q8 25 -11 25q-18 2 -30 -11q10 -23 47 -45q2 -16 0 -57l4 -12q2 -4 18 -11v19q4 -14 -18 -45q4 -10 14 -29q4 -2 8 6q-12 -23 -14 -41q33 -18 41 -43q4 -12 5 -55t30 -70q18 55 57 164q31 20 37 31q0 12 2 27 l2 24q8 4 25 -16q10 18 35 45q-4 12 -5 26q0 51 33 105q33 6 41 47q29 -18 62 -20q6 0 6 16q16 -20 53 -66q-4 -4 -12 -16t-13 -16l2 -37l15 16q10 0 26 14q-4 -8 -4 -18q0 -16 33 -102q-18 -23 -12 -62q14 10 16 41q20 -88 21 -96l-2 -23q14 20 47 54q-4 41 14 139 q20 117 23 139q16 2 39 10q-23 20 -21 39q0 4 21 41v-67q2 -4 10 -17q6 12 14 45q6 70 -6 70q-10 2 -13 -2t-5 -4l2 28q6 12 27.5 26.5t31.5 14.5q2 0 36 -20.5t40 -30.5zM264 463q0 -4 -5 -15.5t-5 -15.5q-6 2 -21 12q21 19 31 19zM836 686h-13l-10 -27l10 -6zM840 549 l-9 24l-10 -4l8 -20h11zM874 502h-12l-10 -37h12zM836 225l2 41q-20 -18 -21 -30q7 -1 19 -11zM756 315l2 29l-13 2l-2 -31h13zM846 188l-10 5l-13 -21l11 -4zM418 446l2 29l-12 2l-2 -31h12zM135 715l-14 37h-10l12 -41zM371 383q6 10 6 25q2 14 -4 14l-21 -19 q7 -10 19 -20zM377 365q-14 -8 -31 -35q0 -18 10 -21q19 17 21 56zM184 463l2 20l-12 2l-2 -22h12zM207 481q-23 2 -27 -37q0 -12 6.5 -17t12.5 -9q0 24 8 63zM143 526l-10 4l-10 -20l10 -6zM233 315l-16 21l-8 -8l16 -21zM217 150l2 40l-2 -20h-14q16 0 14 -20z" />
<glyph unicode="x" horiz-adv-x="819" d="M199 170l-13 -4l-14 45h12zM772 -4q0 -10 -8 -18.5t-8 -10.5t4 -4q-12 0 -25 14q-16 -14 -6 -24q-57 29 -115 84q-74 68 -86 131l-18 -18q-8 31 -29 90l-20 -19q-4 4 -4 31q-6 8 -41 6v27q-8 0 -23 18q-16 -18 -16 -37q2 10 -10 37q-14 -33 -11 -51q-47 -23 -37 -74 q-35 6 -40 -33q-10 -51 -31 -59l-17 8q-6 -8 -2 -24q4 -23 4 -27q-41 -29 -79 -29q-12 0 -27.5 19.5t-28.5 36.5q0 10 9.5 24.5t9.5 18.5q0 6 -11 12q35 51 68 100q29 37 94 90l-24 29q14 25 51 62q-14 14 -19 53q-6 33 -16 33q-12 0 -12 -15q0 25 4 29q-6 12 -53 59 q-35 37 -37 72q-8 -6 -8 -14q0 16 -17.5 31.5t-36.5 9.5q-12 57 -37 98h66l18 -19q33 0 50 -12q53 -68 145 -182q-4 -10 -4 -33q-8 -6 12 -6h39q25 0 47 70q16 63 35 129q0 -18 14 -19q4 4 2 10q-6 10 -6 21q0 18 25 72q29 68 63 77q6 6 2 15q-4 6 -12 6l31 33q0 -16 10 -27 q12 0 12 16h39q0 -20 6 -24q6 8 7 18l20 -18q10 8 18 8q0 -6 -4 -17.5t-4 -17.5q-4 0 -13 4t-13 4v-51q-8 -31 -47 -47q-4 -63 -19 -100q-33 -37 -27 -70q-4 0 -28 25q-2 -2 2 -54q-14 14 -25 5q14 -14 25 -15v-35l-19 9q-6 -6 -2 -15q6 -6 15 -6q-10 -14 -19.5 -29.5 t-34.5 -21.5q-10 -10 11 -33q-27 -23 -27 -35t66 -149q14 16 14 26q10 -8 32.5 -58t32.5 -50q12 0 13 18q4 -18 26 -53l21 16q-8 0 -8 -20q0 -4 22 -51l19 18q0 -4 -3 -19.5t-3 -19.5q12 2 30 0q37 -28 37 -59zM580 737l-13 27l-10 -6l10 -21h13zM510 643h-12l-19 -47l13 -6 zM520 514l-12 6l-12 -24l12 -4zM442 502v24h-14v-24h14zM436 477v0v0v0zM469 412v24h-16v-24h16zM422 461q-20 0 -21 16q0 -2 -2 -16v-23zM362 465l-4 12l-20 -12v-12zM311 371l-22 20q0 -10 5 -27.5t5 -21.5q0 15 12 29z" />
<glyph unicode="y" horiz-adv-x="819" d="M57 -571l-32 -31l-9 10l31 31zM682 426q0 -41 -20 -229q6 0 6 8q-27 -55 -6 -158q-6 8 -15 2q-8 -6 -8 -24q0 -51 -2 -29q0 -12 14 -12q12 0 15.5 4t7.5 4v-84q-29 -127 -29 -207q0 -33 4 -57q-20 -51 -53 -133q0 -33 -49 -104t-68 -77l-16 17q-10 -8 -6 -43 q-14 2 -47 26q-6 -14 -12.5 -29.5t-20.5 -15.5q-10 0 -8 5t-9 5q-27 0 -2 -24q-4 0 -20 -2h-29q-12 0 -17 9t-9 17q-6 -4 -18.5 -20t-26.5 -16q-25 0 -64 36q-25 0 -24 -26q-20 18 -27 45q-8 37 -29 70q-8 -16 -16 -33q-12 -29 -19 -29q-4 2 -4 12q2 23 28 83.5t30 97.5 q-4 -41 20 -97q33 -72 92 -71q8 0 32 13t36 13q10 0 10 -4t12 -4q10 0 13 4q2 4 0 10q-2 10 -2 13l36 -8q16 31 17 59q23 8 57.5 47t48.5 49q2 20 -26 33q23 14 35 36.5t18 29.5q0 18 -16 2q4 20 8 41q6 29 22 45q2 20 0 59q-4 47 -4 65q8 0 10 -12q4 -10 -2 -18 q14 -14 19 -15q0 8 26 86q-16 29 -61 68q0 6 25 31q0 4 4 8q2 2 0 2q-2 2 -13 2q-18 0 -18 66q-6 6 -18 6q-10 0 -42 -22.5t-42.5 -22.5t-22.5 -4.5t-22 -4.5t-60 25q-70 37 -78 41q0 10 -23.5 43t-29.5 53q-8 49 -24 142q-33 137 -33 155q0 33 37 58l-15 14 q-16 -16 -39 -16q8 18 15 81q0 10 14 56q12 39 8 59q-8 47 -8 66q0 -8 8 -17q0 -2 4 17q2 14 0 26l9 11h43q12 0 4.5 -9.5t5.5 -9.5q8 0 8 4q0 2 -2 5t-2 5q2 4 8 5q35 0 45 -41q4 -27 10 -52q-27 -119 -26 -274q0 -37 19.5 -105.5t19.5 -91.5q0 -31 -23 -43q29 -14 39 -56 t29 -54q43 20 110 106q0 -29 6 -35q8 25 58 109q37 66 37 106q0 14 -2 29q29 39 28 62q-27 35 -20 86q-6 12 -21 26q-4 12 17 29v102q-10 14 -37 37v74q20 20 39 20q129 0 129 -102q0 -27 -10 -61q20 -193 20 -279zM506 -492h-14v50h14v-50zM174 604v25h-16v-25h16z M596 -111v23h-14v-23h14zM283 145v23h-17v-23h17zM543 -369v52h-17v-52h17z" />
<glyph unicode="z" horiz-adv-x="880" d="M412 14l-13 -37l-12 7l10 30h15zM801 41q0 12 -8 18q-4 -2 -29 -32q-16 -20 -47 -29q10 10 10 27l-16 18q-2 -4 -4 -20.5t-15 -16.5q-10 0 -10 4t-12 4q-25 0 -47 -43q-2 0 -2 8.5t-13 8.5q-14 0 -14 -15q0 25 -25 25l-32 -27q10 10 -7 27q-27 -14 -63 -55q0 4 -8 18 q-6 -8 -6 -18h-33q-4 10 -17 26q-6 -12 -28 -35q0 20 -6 27q-16 -16 -17 -35q-14 12 -47 35l-20 -18q0 2 -25 26q-2 -16 -12 -45q0 2 -5 25.5t-5 40.5q-12 0 -17 -17v27q-25 10 -92 57q2 0 8 -3t19 -3q8 0 8 4q0 2 -2 5t-2 6q2 4 10 4q25 0 25 4l-5 10q-6 10 -6 20 q6 -4 10.5 -13t8.5 -13l4 8q2 6 0 12q-4 10 -14 19v49q10 12 10 20q18 -18 35 -4q-16 16 -17 27q0 -4 21 -4q20 0 49 31l-15 14q-4 -4 -9 -13.5t-9 -13.5q0 20 -16 25h24q2 6 13 51q8 33 12 33q4 -2 8 -21q14 0 29 17q0 12 -6 41q-12 -8 -21 -9q0 2 27 35q20 25 14 45 q0 -8 15.5 -20t21.5 -25q6 6 4 23q-2 18 -21 24q18 23 48 31q0 59 34 80l-16 16v33l21 -18q6 14 20 45q0 -18 6 -27q10 35 39 109q-6 -20 8 -45q4 8 13.5 22t13.5 23q0 -29 8 -37q14 29 14 47q0 10 -18 31q-29 33 -49 67q-10 -4 -10 -14q0 23 -9 33q-14 -14 -14 -27 q0 -12 16.5 -23.5t20.5 -19.5l-33 -31q12 18 -8 19q-16 0 -16 -27q-6 10 -7 66q-2 8 -10 8l-26 -82q-10 0 -33 -9.5t-35 -9.5q-10 0 -10 9v0q0 10 -13 10q-10 0 -6 -14q-20 -4 -41 -7q-37 -8 -45 -24q-2 0 -7 13t-17 13t-13 -10q2 14 -26 29q-4 -10 -5 -27.5t-5 -27.5h-39 q-10 16 -19 53q-6 31 -10 61q23 23 78 39q4 -14 -1 -40.5t1 -41.5q8 10 31 82q4 0 22 -18l25 26q6 0 11 -11t9 -15q6 14 29 37q0 -2 -2 -13q-2 -6 0 -10q4 -4 12 -4q12 0 10 4t8 4q14 0 13.5 -7t3.5 -11q14 0 20 6q0 4 -8 16.5t-8 22.5q2 0 9 9t22 9q4 0 31.5 -15t31.5 -22 q18 20 4 35q-10 0 39 -24q0 12 8 34h31q0 -12 8 -34q10 4 17.5 14t11.5 10q0 -2 14.5 -14t18.5 -29q12 61 39 68q37 2 73 4l-6 -19q-2 -12 2 -16q6 4 39 2q45 -4 39 -4q-6 -8 -68 -121q-51 -94 -90 -131l-18 19q-6 -8 -6 -72q-4 0 -14.5 4t-14.5 4q-4 -4 4 -7t8 -15 q0 -23 -34 -39q8 10 8 26q-4 0 -23 17q0 -31 -14 -69t-14 -58q0 -16 4 -33q-45 -2 -45 -55q-27 4 -45 -15q8 -8 28 -8q-6 -4 -43 -70q0 20 -6 29q-10 -33 -8 -108q-12 0 -21 8q-27 -25 -41 -49q20 -35 25.5 -38t44.5 -3h107q12 0 12 9t11 9t119.5 4t119.5 4q18 0 26 -18 q15 -33 19 -37zM78 772l-12 -35l-13 4l10 31h15zM618 840v32h-14v-32h14zM483 758v24h-14v-24h14zM465 780l-12 4l-13 -24l15 -4zM285 801q0 -18 -17 -35q-8 8 -8 22q0 -14 8 -36.5t8 -36.5q0 16 9 51q6 29 0 35zM221 731v25h-14v-25h14zM240 125v33h-17v-33h17z" />
<glyph unicode="&#xa0;" />
<glyph unicode="&#x2000;" horiz-adv-x="812" />
<glyph unicode="&#x2001;" horiz-adv-x="1624" />
<glyph unicode="&#x2002;" horiz-adv-x="812" />
<glyph unicode="&#x2003;" horiz-adv-x="1624" />
<glyph unicode="&#x2004;" horiz-adv-x="541" />
<glyph unicode="&#x2005;" horiz-adv-x="406" />
<glyph unicode="&#x2006;" horiz-adv-x="270" />
<glyph unicode="&#x2007;" horiz-adv-x="270" />
<glyph unicode="&#x2008;" horiz-adv-x="203" />
<glyph unicode="&#x2009;" horiz-adv-x="324" />
<glyph unicode="&#x200a;" horiz-adv-x="90" />
<glyph unicode="&#x202f;" horiz-adv-x="324" />
<glyph unicode="&#x205f;" horiz-adv-x="406" />
<glyph unicode="&#x25fc;" horiz-adv-x="921" d="M0 922h922v-922h-922v922z" />
</font>
</defs>
</svg>
